<?xml version="1.0" encoding="utf-8"?>
<!-- Generator: Adobe Illustrator 27.8.1, SVG Export Plug-In . SVG Version: 6.00 Build 0)  -->
<svg version="1.1" id="圖層_1" xmlns="http://www.w3.org/2000/svg" xmlns:xlink="http://www.w3.org/1999/xlink" x="0px" y="0px"
	 viewBox="0 0 353.2 116.2" style="enable-background:new 0 0 353.2 116.2;" xml:space="preserve">
<style type="text/css">
	.st0{fill:#FFFFFF;}
	.st1{fill:#16336D;}
	.st2{fill:#EA6100;}
	.st3{clip-path:url(#SVGID_00000036239821230978867530000004663731013468088963_);}
</style>
<path class="st0" d="M2.7,2.7h347.7v110.7H2.7L2.7,2.7z"/>
<g>
	<path class="st1" d="M347.7,5.5v105.2H5.5V5.5H347.7z M353.2,0H0v116.2h353.2V0z"/>
	<path class="st1" d="M0,0h111.2v116.2H0L0,0z"/>
	<path class="st1" d="M166.7,61.6c-3-2.5-7.8-6.3-12.2-9.4c-2.7,3.6-6.4,7.1-11.4,10.3h69.8v49.7H197v-7.4h-40.7v7.4h-15.1V63.7
		c-1.6,1-3.4,1.9-5.3,2.7c-2-3.1-6.3-7.7-9.7-10.1c9.2-3.5,14.4-7.8,17.2-12.3h-32.7V32.2h24.2c-2.9-1.8-6.4-3.8-8.7-4.9
		c5.5-4.9,10.5-15.8,12.4-23.6l14,1c-0.5,1.9-2.5,8.8-3.2,10.6h24.8V27h-12.7v5.2h15.1V44h-13.7c5,2.5,12.5,6.7,14.8,8.1L166.7,61.6
		z M147,32.1v-5.2h-3.3c-1.2,1.9-2.4,3.6-3.7,5.2H147z M156.3,74.4V78H197v-3.6H156.3z M197,92.7v-3.8h-40.7v3.8H197z M222,15v42.3
		h-42.3V15H222z M206.8,28.4H194v15.3h12.8V28.4z"/>
	<path class="st1" d="M233.9,103.5c6.2-4.3,10.9-11,13.3-18.2l13.8,5c-2.8,8.5-7,16.7-14.3,22.2L233.9,103.5z M324.3,111.9
		c-1.7-4-5.7-9.4-10-14.2c-1.9,11.8-6.1,14.8-16.9,14.8h-15.5c-15.6,0-19.1-4.1-19.1-16.6V85.4h14.4l-1.3-0.9l2-1.6h-32.6v-9.3h65.6
		V71h-72.6v-8.7h72.6v-2.5h-65v-9.3h80.6v11.8h21.1v8.8h-21.1V83h-30.6c1.7,1.5,3.3,2.9,4.4,4.4l-10.8,9.2c-2.2-2.9-6.6-7-10.9-10
		v9.3c0,3.1,0.8,3.4,5.5,3.4H296c3.5,0,4.3-1,4.8-7.4c2.8,2,8.6,4,12.8,5c-1.9-2-3.7-3.8-5.6-5.5l12.8-7.2
		c6.9,5.7,14.4,13.6,17.6,20L324.3,111.9z M254.1,45.3h-15.7v-9h15.7v-2.4h-12.4v-8.8h12.4v-2.3h-15v-9h15V5h14.5v8.8h14.3v9h-14.3
		v2.3h12.9v8.8h-12.9v2.4h15.5v9h-15.5v3.6h-14.5V45.3z M301,45.3h-14.3v-9H301v-2.4h-11.9v-8.8H301v-2.3h-14.2v-9H301V5h14.7v8.8
		h16.4v9h-16.4v2.3h14.2v8.8h-14.2v2.4h18.2v9h-18.2v3.6H301V45.3z"/>
</g>
<path class="st2" d="M42.8-0.5L0,43.7V-0.5H42.8z"/>
<g>
	<defs>
		<rect id="SVGID_1_" y="-0.8" width="111.9" height="116.9"/>
	</defs>
	<clipPath id="SVGID_00000069380734674743055170000009709362800778178204_">
		<use xlink:href="#SVGID_1_"  style="overflow:visible;"/>
	</clipPath>
	<g style="clip-path:url(#SVGID_00000069380734674743055170000009709362800778178204_);">
		<path class="st0" d="M24,65c0.1,4.5,0.8,8.8,2.2,13s3.4,7.8,6.1,10.9s6,5.5,10.1,7.3c4,1.8,8.8,2.7,14.4,2.6
			c7.7-0.1,13.9-1.8,18.6-5.1s8.1-8.1,10.3-14.6l25-0.4c-1.3,6.3-3.6,11.9-6.9,16.9s-7.3,9.2-12.1,12.6c-4.7,3.4-10.1,6.1-16,7.9
			s-12.1,2.8-18.6,2.9c-9.4,0.1-17.8-1.2-25.1-4.1s-13.5-7-18.6-12.2c-5.1-5.3-9-11.6-11.6-19.1C-0.9,76.2-2.3,68-2.4,59
			c-0.1-8.2,1.1-16,3.7-23.5c2.6-7.4,6.3-14,11.3-19.7c4.9-5.7,10.9-10.2,18-13.6c7-3.4,15-5.2,24-5.3C64-3.2,72.5-1.5,80,2.2
			S93.8,10.8,98.9,17c5,6.2,8.7,13.3,11.1,21.4s3.1,16.5,2.1,25.2L24,65z M85.3,47.3c-0.4-4-1.3-7.9-2.8-11.6s-3.6-6.9-6.2-9.6
			s-5.7-4.9-9.4-6.6s-7.7-2.5-12.2-2.4c-4.6,0.1-8.8,0.9-12.6,2.5s-7,3.8-9.6,6.6c-2.7,2.8-4.8,6.1-6.3,9.8
			c-1.6,3.8-2.4,7.8-2.5,12.1L85.3,47.3z"/>
	</g>
</g>
</svg>
