<?xml version="1.0" encoding="utf-8"?>
<!-- Generator: Adobe Illustrator 27.8.1, SVG Export Plug-In . SVG Version: 6.00 Build 0)  -->
<svg version="1.1" id="Stock_graph_technology" xmlns="http://www.w3.org/2000/svg" xmlns:xlink="http://www.w3.org/1999/xlink"
	 x="0px" y="0px" viewBox="0 0 1600 692.1" style="enable-background:new 0 0 1600 692.1;" xml:space="preserve">
<style type="text/css">
	.st0{enable-background:new    ;}
	.st1{fill:#FFFFFF;}
	.st2{fill:#DD0A00;}
	.st3{fill:#2BB573;}
	.st4{fill:none;}
	.st5{fill:none;stroke:#FFFFFF;stroke-linecap:round;stroke-linejoin:round;}
	.st6{fill:none;stroke:#FFFFFF;stroke-linecap:round;stroke-linejoin:round;stroke-dasharray:12.0739,12.0739;}
	.st7{fill:#EA6100;}
</style>
<g class="st0">
	<path class="st1" d="M1142.5,648.2c-1,2.4-2.1,5-3.3,7.3v27.9h-4.5v-20.7c-0.7,1-1.5,1.9-2.2,2.8c-0.5-1.2-1.7-3.9-2.6-5.1
		c3.5-3.8,6.9-9.6,8.8-15.5l4.5,1.4c-0.2,0.5-0.4,1-0.6,1.6h10.4c-0.3-0.8-0.7-1.6-1.1-2.2l4.5-1.2c0.6,1.1,1.3,2.4,1.7,3.5h10.2
		v4.1h-25.8V648.2z M1168.8,671.5h-4.3v2.4h-6.5v4.8c0,2.2-0.5,3.4-2.2,4.1c-1.7,0.6-4.1,0.6-7.2,0.6c-0.2-1.3-0.8-3-1.4-4.3
		c1.9,0.1,4.3,0.1,5,0.1s0.8-0.1,0.8-0.6V674h-7.1v-3.8h18.5V668h-18.5v3.6h-4.2v-7.5h27.2v7.4H1168.8z M1145,662.4v-8.8h20.6v8.8
		H1145z M1149.5,659.1h11.4v-2.2h-11.4V659.1z"/>
	<path class="st1" d="M1186.7,666.7c-1.6,0.5-3.2,0.9-4.8,1.3v10.1c0,2.4-0.4,3.6-1.8,4.4c-1.4,0.7-3.4,0.9-6.3,0.9
		c-0.1-1.2-0.8-3.2-1.3-4.5c1.6,0.1,3.3,0.1,3.8,0.1s0.7-0.2,0.7-0.8v-8.8l-4.6,1.2l-1.2-4.7c1.7-0.3,3.7-0.8,5.8-1.3v-7.3h-5.1
		v-4.7h5.1v-7.7h4.8v7.7h4.2v4.5h-4.2v6.1c1.4-0.3,2.8-0.7,4.2-1.1L1186.7,666.7z M1204,676.2c2.5,1.6,5.1,3.6,6.6,5l-4.9,2.3
		c-1.4-1.6-4.1-3.9-6.5-5.5l2.6-1.8h-8.2l2.8,1.8c-2.4,2.1-6.4,4.3-9.6,5.5c-0.8-1-2.3-2.4-3.4-3.3c2.6-0.9,5.7-2.5,7.7-4h-3.2
		v-19.1h20.6v19.1H1204z M1207.6,655.6h-18.7v-9.4h18.7V655.6z M1192.5,662.5h11.1v-1.9h-11.1V662.5z M1192.5,667.6h11.1v-2h-11.1
		V667.6z M1192.5,672.8h11.1v-2h-11.1V672.8z M1202.8,649.6h-9.5v2.7h9.5V649.6z"/>
	<path class="st1" d="M1239,678c4.4,1,9.6,2.4,12.7,3.5l-5.8,2.2c-2.4-1-6.7-2.3-11.2-3.4l4.1-2.2h-12.4l3.7,1.7
		c-3.6,1.6-9.1,3-13.3,3.8c-0.8-1-2.5-2.6-3.5-3.3c4.1-0.5,8.8-1.2,11.8-2.2h-6.2v-14.3h27.6v14.3L1239,678L1239,678z M1229.8,650
		h-15.3v-3.2h15.3v-2h4.8v2h15.6v3.2h-15.6v1.3h12.9v2.9h-30.1v-2.9h12.3L1229.8,650L1229.8,650z M1216.5,655.4h32v7.2h-32V655.4z
		 M1220.8,659.9h5v-1.8h-5V659.9z M1223.6,667.7h17.8v-1.4h-17.8V667.7z M1223.6,671.6h17.8v-1.4h-17.8V671.6z M1223.6,675.4h17.8
		V674h-17.8V675.4z M1229.7,659.9h5v-1.8h-5V659.9z M1238.7,659.9h5.2v-1.8h-5.2V659.9z"/>
	<path class="st1" d="M1290.6,665.5v17.9h-5.5v-2.2h-28.4v-15.7h5.5v10.8h8.7v-13h-12v-15h5.2v10.3h6.8v-13.7h5.5v13.7h7.1v-10.3
		h5.5v15h-12.6v13h8.7v-10.8H1290.6z"/>
</g>
<g class="st0">
	<path class="st1" d="M1401.8,43.8c-1,2.4-2.1,5-3.3,7.3V79h-4.5V58.3c-0.7,1-1.5,1.9-2.2,2.8c-0.5-1.2-1.7-3.9-2.6-5.1
		c3.5-3.8,6.9-9.6,8.8-15.5l4.5,1.4c-0.2,0.5-0.4,1-0.6,1.6h10.4c-0.3-0.8-0.7-1.6-1.1-2.2l4.5-1.2c0.6,1.1,1.3,2.4,1.7,3.5h10.2v4
		h-25.8V43.8z M1428,67.1h-4.3v2.4h-6.5v4.8c0,2.2-0.5,3.4-2.2,4.1c-1.7,0.6-4.1,0.6-7.2,0.6c-0.2-1.3-0.8-3-1.4-4.3
		c1.9,0.1,4.3,0.1,5,0.1s0.8-0.1,0.8-0.6v-4.6h-7.1v-4h18.5v-2.2H1405V67h-4.2v-7.4h27.2V67.1z M1404.2,58v-8.8h20.6V58H1404.2z
		 M1408.7,54.7h11.4v-2.2h-11.4V54.7z"/>
	<path class="st1" d="M1444.1,59.4c2,1.5,6.1,5,7.2,5.9l-2.9,4.2c-1-1.3-2.7-3.1-4.4-4.8V79h-4.8V64.2c-1.9,3.8-4.1,7.3-6.3,9.7
		c-0.5-1.4-1.7-3.6-2.5-4.8c3-2.9,6-7.6,7.9-11.9h-6.9v-4.5h7.9v-5.1c-2.4,0.5-4.7,0.8-6.9,1.1c-0.2-1.1-0.8-2.8-1.4-3.8
		c6-0.9,12.6-2.4,16.6-4.3l3.5,3.8c-2.1,0.8-4.5,1.5-7,2.1v6.2h7.1v4.5h-7.1L1444.1,59.4L1444.1,59.4z M1457.9,68.5h-4.8V45.4h4.8
		V68.5z M1467.8,41.2V73c0,2.9-0.6,4.2-2.3,5c-1.7,0.8-4.5,1-8.2,1c-0.2-1.4-1-3.7-1.7-5.1c2.7,0.1,5.3,0.1,6.2,0.1
		c0.8,0,1.1-0.3,1.1-1V41.2H1467.8z"/>
	<path class="st1" d="M1498.2,73.6c4.4,1,9.6,2.4,12.7,3.5l-5.8,2.2c-2.4-1-6.7-2.3-11.2-3.4l4.1-2.2h-12.4l3.7,1.7
		c-3.6,1.6-9.1,3-13.3,3.8c-0.8-1-2.5-2.6-3.5-3.3c4.1-0.5,8.8-1.2,11.8-2.2h-6.2V59.4h27.6v14.2H1498.2z M1489,45.6h-15.3v-3.2
		h15.3v-2h4.8v2h15.6v3.2h-15.6v1.3h12.9v2.9h-30.1v-2.9h12.3L1489,45.6L1489,45.6z M1475.7,50.9h32v7.2h-32V50.9z M1480,55.4h5
		v-1.8h-5V55.4z M1482.9,63.3h17.8v-1.4h-17.8V63.3z M1482.9,67.1h17.8v-1.4h-17.8V67.1z M1482.9,71h17.8v-1.4h-17.8V71z
		 M1488.9,55.4h5v-1.8h-5V55.4z M1497.9,55.4h5.2v-1.8h-5.2V55.4z"/>
	<path class="st1" d="M1549.8,61.1V79h-5.5v-2.2h-28.4V61.1h5.5v10.8h8.7v-13h-12v-15h5.2v10.3h6.8V40.4h5.5v13.7h7.1V43.9h5.5v15
		h-12.6v13h8.7V61.1H1549.8z"/>
</g>
<g class="st0">
	<path class="st1" d="M76.1,432.6c-2.8-0.3-6-1.6-8.2-3.6l2.7-4.1c2.3,1.8,4.5,2.8,6.8,2.8c2.9,0,4.2-1.3,4.2-3.6
		c0-5.6-12.6-5.1-12.6-13.7c0-4.5,2.7-7.6,7-8.4v-4.8h4.1v4.7c3,0.4,5.1,1.9,6.9,3.8l-3.1,3.5c-1.7-1.6-3.2-2.4-5.3-2.4
		c-2.4,0-3.8,1.2-3.8,3.4c0,5.1,12.6,4.3,12.6,13.6c0,4.5-2.5,7.9-7.3,8.8v4.8H76v-4.8H76.1z"/>
	<path class="st1" d="M93.7,427.2h6.6v-18.6h-5.5v-3.8c3.1-0.6,5.2-1.4,7.1-2.6h4.5v24.9h5.7v4.9H93.7V427.2z"/>
	<path class="st1" d="M116.4,417.1c0-10.1,4.1-15.3,10.4-15.3s10.3,5.3,10.3,15.3c0,10.1-4.1,15.6-10.3,15.6
		S116.4,427.2,116.4,417.1z M131.4,417.1c0-8.3-1.9-10.6-4.6-10.6s-4.6,2.3-4.6,10.6c0,8.3,2,10.9,4.6,10.9S131.4,425.4,131.4,417.1
		z"/>
	<path class="st1" d="M140.8,417.1c0-10.1,4.1-15.3,10.4-15.3c6.3,0,10.3,5.3,10.3,15.3c0,10.1-4.1,15.6-10.3,15.6
		C144.9,432.7,140.8,427.2,140.8,417.1z M155.8,417.1c0-8.3-1.9-10.6-4.6-10.6s-4.6,2.3-4.6,10.6c0,8.3,2,10.9,4.6,10.9
		S155.8,425.4,155.8,417.1z"/>
</g>
<g>
	<g>
		<rect x="172.6" y="391.8" class="st2" width="19.2" height="62.5"/>
		<rect x="181.4" y="381.3" class="st2" width="1.5" height="87.6"/>
	</g>
	<g>
		<rect x="196.9" y="416" class="st3" width="19.2" height="33.8"/>
		<rect x="205.7" y="348.8" class="st3" width="1.5" height="110.5"/>
	</g>
	<g>
		<rect x="292.4" y="413.9" class="st3" width="19.2" height="37.9"/>
		<rect x="301.2" y="387.4" class="st3" width="1.5" height="82.2"/>
	</g>
	<g>
		<rect x="220.6" y="389.7" class="st3" width="19.2" height="44.7"/>
		<rect x="229.4" y="350" class="st3" width="1.5" height="116.5"/>
	</g>
	<g>
		<rect x="268.4" y="369.1" class="st3" width="19.2" height="71.1"/>
		<rect x="277.1" y="326.4" class="st3" width="1.8" height="147.3"/>
	</g>
	<g>
		<rect x="387.8" y="365.4" class="st3" width="19.2" height="43.4"/>
		<rect x="396.4" y="346.9" class="st3" width="1.8" height="81.1"/>
	</g>
	<g>
		<rect x="435.7" y="422.5" class="st3" width="19.2" height="64.5"/>
		<rect x="444.3" y="402.7" class="st3" width="1.8" height="113.2"/>
	</g>
	<g>
		<rect x="625.6" y="398.1" class="st3" width="19.2" height="78.9"/>
		<rect x="634.3" y="391.6" class="st3" width="1.8" height="103"/>
	</g>
	<g>
		<rect x="530.2" y="302.9" class="st3" width="19.2" height="78.9"/>
		<rect x="538.8" y="296.5" class="st3" width="1.8" height="103"/>
	</g>
	<g>
		<rect x="458.3" y="427.7" class="st3" width="19.2" height="23.2"/>
		<rect x="466.9" y="407.1" class="st3" width="1.8" height="56.4"/>
	</g>
	<g>
		<rect x="505.7" y="336.5" class="st3" width="19.2" height="25"/>
		<rect x="514.4" y="320.5" class="st3" width="1.8" height="81.9"/>
	</g>
	<g>
		<rect x="720.9" y="353.1" class="st3" width="19.2" height="25"/>
		<rect x="729.6" y="328.9" class="st3" width="1.8" height="118.3"/>
	</g>
	<g>
		<rect x="791.9" y="343.4" class="st3" width="19.2" height="34.4"/>
		<rect x="800.6" y="318.5" class="st3" width="1.8" height="75"/>
	</g>
	<g>
		<rect x="911.4" y="371.7" class="st3" width="19.2" height="43.6"/>
		<rect x="920.1" y="350.8" class="st3" width="1.8" height="95.9"/>
	</g>
	<g>
		<rect x="981.1" y="310.2" class="st3" width="19.2" height="37.3"/>
		<rect x="989.8" y="251" class="st3" width="1.8" height="124"/>
	</g>
	<g>
		<rect x="1125.1" y="500" class="st3" width="19.2" height="55.3"/>
		<rect x="1133.7" y="481.6" class="st3" width="1.8" height="143.1"/>
	</g>
	<g>
		<rect x="1172.5" y="442.7" class="st3" width="19.2" height="116.1"/>
		<rect x="1181" y="435.3" class="st3" width="1.8" height="132"/>
	</g>
	<g>
		<rect x="1243.9" y="226.4" class="st2" width="19.2" height="143.7"/>
		<rect x="1252.5" y="219" class="st2" width="1.8" height="159.7"/>
	</g>
	<g>
		<rect x="1341.9" y="32.7" class="st3" width="19.2" height="162.1"/>
		<rect x="1350.5" class="st3" width="1.8" height="230.9"/>
	</g>
	<g>
		<rect x="935" y="319.7" class="st3" width="19.2" height="85"/>
		<rect x="943.7" y="289.6" class="st3" width="1.8" height="146.2"/>
	</g>
	<g>
		<rect x="838.6" y="319.2" class="st3" width="19.2" height="24.1"/>
		<rect x="847.3" y="290.6" class="st3" width="1.8" height="63.8"/>
	</g>
	<g>
		<rect x="767.8" y="283.9" class="st3" width="19.2" height="69.2"/>
		<rect x="776.4" y="235.9" class="st3" width="1.8" height="139"/>
	</g>
	<g>
		<rect x="553.7" y="322.6" class="st3" width="19.2" height="88.5"/>
		<rect x="562.4" y="312.4" class="st3" width="1.8" height="116.7"/>
	</g>
	<g>
		<rect x="815.9" y="352.3" class="st3" width="19.2" height="7.2"/>
		<rect x="824.5" y="324.5" class="st3" width="1.8" height="62.6"/>
	</g>
	<g>
		<rect x="482.3" y="405.6" class="st3" width="19.2" height="45.4"/>
		<rect x="491" y="386.6" class="st3" width="1.8" height="77.1"/>
	</g>
	<g>
		<rect x="315.7" y="396.1" class="st3" width="19.2" height="23.2"/>
		<rect x="324.2" y="375.5" class="st3" width="1.8" height="56.4"/>
	</g>
	<g>
		<rect x="339.7" y="374" class="st3" width="19.2" height="45.4"/>
		<rect x="348.4" y="355.1" class="st3" width="1.8" height="77.1"/>
	</g>
	<g>
		<rect x="244.2" y="370.1" class="st2" width="19.2" height="63.7"/>
		<rect x="253.1" y="319.2" class="st2" width="1.5" height="141.1"/>
	</g>
	<g>
		<rect x="363" y="306.4" class="st2" width="19.2" height="84.3"/>
		<rect x="371.8" y="293.8" class="st2" width="1.5" height="122.2"/>
	</g>
	<g>
		<rect x="578" y="328.5" class="st2" width="19.2" height="84.3"/>
		<rect x="586.7" y="320.8" class="st2" width="1.8" height="98.2"/>
	</g>
	<g>
		<rect x="1005.6" y="338.6" class="st3" width="19.2" height="78.9"/>
		<rect x="1014.2" y="332.1" class="st3" width="1.8" height="103"/>
	</g>
	<g>
		<rect x="1029.1" y="358.3" class="st3" width="19.2" height="88.5"/>
		<rect x="1037.8" y="348.1" class="st3" width="1.8" height="116.7"/>
	</g>
	<g>
		<rect x="1053.4" y="412.6" class="st2" width="19.2" height="84.3"/>
		<rect x="1062.1" y="404.8" class="st2" width="1.8" height="98.2"/>
	</g>
	<g>
		<rect x="601.9" y="371.5" class="st2" width="19.2" height="61.9"/>
		<rect x="610.5" y="343.8" class="st2" width="1.8" height="95.8"/>
	</g>
	<g>
		<rect x="648.4" y="372.2" class="st2" width="19.2" height="51.7"/>
		<rect x="657.1" y="350.6" class="st2" width="1.8" height="88.6"/>
	</g>
	<g>
		<rect x="743.8" y="322" class="st2" width="19.2" height="64"/>
		<rect x="752.4" y="308.7" class="st2" width="1.8" height="92.5"/>
	</g>
	<g>
		<rect x="698.8" y="366.5" class="st2" width="19.2" height="109.1"/>
		<rect x="707.4" y="355.9" class="st2" width="1.8" height="135.1"/>
	</g>
	<g>
		<rect x="861.8" y="335.5" class="st2" width="19.2" height="35.1"/>
		<rect x="870.5" y="324.5" class="st2" width="1.8" height="91.4"/>
	</g>
	<g>
		<rect x="958.3" y="347.5" class="st2" width="19.2" height="17.2"/>
		<rect x="967" y="291.5" class="st2" width="1.8" height="100.2"/>
	</g>
	<g>
		<rect x="1266.7" y="201.9" class="st2" width="19.2" height="17.2"/>
		<rect x="1275.3" y="169.3" class="st2" width="1.8" height="102.9"/>
	</g>
	<g>
		<rect x="1316.1" y="159.9" class="st2" width="19.2" height="33.2"/>
		<rect x="1324.8" y="143.5" class="st2" width="1.8" height="62.2"/>
	</g>
	<g>
		<rect x="1290" y="163.2" class="st2" width="19.2" height="9.9"/>
		<rect x="1298.6" y="149.4" class="st2" width="1.8" height="52.4"/>
	</g>
	<g>
		<rect x="1077.9" y="471.4" class="st2" width="19.2" height="74.9"/>
		<rect x="1086.5" y="462.9" class="st2" width="1.8" height="99"/>
	</g>
	<g>
		<rect x="1195.4" y="391.7" class="st2" width="19.2" height="60.2"/>
		<rect x="1204.1" y="349.4" class="st2" width="1.8" height="86.5"/>
	</g>
	<g>
		<rect x="1101.7" y="553.4" class="st2" width="19.2" height="73.6"/>
		<rect x="1110.3" y="519.6" class="st2" width="1.8" height="141.2"/>
	</g>
	<g>
		<rect x="1148.6" y="479" class="st2" width="19.2" height="73.6"/>
		<rect x="1157.3" y="415" class="st2" width="1.8" height="131.1"/>
	</g>
	<g>
		<rect x="1221.7" y="293.6" class="st3" width="19.2" height="116.1"/>
		<rect x="1230.4" y="286.3" class="st3" width="1.8" height="132"/>
	</g>
	<g>
		<rect x="886.8" y="370.4" class="st2" width="19.2" height="43.8"/>
		<rect x="895.5" y="337.1" class="st2" width="1.8" height="109.5"/>
	</g>
	<g>
		<rect x="672.8" y="414.8" class="st2" width="19.2" height="27.8"/>
		<rect x="681.3" y="394.9" class="st2" width="1.8" height="54.5"/>
	</g>
	<g>
		<rect x="410.9" y="394.5" class="st2" width="19.2" height="92"/>
		<rect x="419.5" y="354.4" class="st2" width="1.8" height="140.5"/>
	</g>
	<circle class="st1" cx="1112.2" cy="592.6" r="10.7"/>
	<circle class="st1" cx="1352.5" cy="57" r="10.7"/>
	<g>
		<line class="st4" x1="167.6" y1="421" x2="1412.7" y2="421"/>
		<g>
			<line class="st5" x1="167.6" y1="421" x2="173.1" y2="421"/>
			<line class="st6" x1="184.3" y1="421" x2="1401.7" y2="421"/>
			<line class="st5" x1="1407.2" y1="421" x2="1412.7" y2="421"/>
		</g>
	</g>
</g>
<path class="st1" d="M1106.3,565.7c1.4,1.4,3.3,2.2,5.3,2.3c1.8,0,3.6-0.6,4.9-1.8c0.1-0.1,0.3-0.2,0.4-0.4l42.2-41.3
	c2.2-2.1,2.9-5.4,1.7-8.2c-1.1-2.8-3.8-4.7-6.9-4.7l-17.4-0.2l0.5-46.7c0-4.1-3.3-7.6-7.4-7.6l-33.4-0.4c-1.8,0-3.5,0.6-4.9,1.8
	c-1.7,1.4-2.7,3.5-2.7,5.7l-0.5,46.7l-17.5-0.2c-3,0-5.8,1.8-7,4.6s-0.6,6,1.5,8.2L1106.3,565.7z M1093.4,521.8c3,0,5.5-2.4,5.5-5.4
	l0.5-48.8l26.7,0.3l-0.5,48.8c0,1.4,0.5,2.8,1.5,3.9c1,1,2.4,1.6,3.8,1.6l14.8,0.2l-34,33.3l-33.2-34L1093.4,521.8z"/>
<path class="st1" d="M1357.3,96.1c-1.4-1.4-3.3-2.2-5.3-2.3c-1.8,0-3.6,0.6-4.9,1.8c-0.1,0.1-0.3,0.2-0.4,0.4l-42.2,41.3
	c-2.2,2.1-2.9,5.4-1.7,8.2c1.1,2.8,3.8,4.7,6.9,4.7l17.4,0.2l-0.5,46.7c0,4.1,3.3,7.6,7.4,7.6l33.4,0.4c1.8,0,3.5-0.6,4.9-1.8
	c1.7-1.4,2.7-3.5,2.7-5.7l0.5-46.7l17.5,0.2c3,0,5.8-1.8,7-4.6c1.2-2.8,0.6-6-1.5-8.2L1357.3,96.1z M1370.2,139.9
	c-3,0-5.5,2.4-5.5,5.4l-0.5,48.8l-26.7-0.3l0.5-48.8c0-1.4-0.5-2.8-1.5-3.9c-1-1-2.4-1.6-3.8-1.6l-14.8-0.2l34-33.3l33.2,34
	L1370.2,139.9z"/>
<g>
	
		<ellipse transform="matrix(0.7071 -0.7071 0.7071 0.7071 -140.8627 860.9274)" class="st7" cx="968.8" cy="600.5" rx="91.6" ry="91.6"/>
	<g class="st0">
		<path class="st1" d="M944.8,627c-2.7-0.3-5.8-1.6-7.9-3.5l2.6-4c2.2,1.7,4.3,2.7,6.6,2.7c2.8,0,4.1-1.2,4.1-3.5
			c0-5.4-12.1-4.9-12.1-13.3c0-4.4,2.6-7.4,6.8-8.2v-4.6h4v4.6c2.9,0.4,4.9,1.8,6.6,3.6l-3,3.4c-1.6-1.5-3.1-2.4-5.1-2.4
			c-2.4,0-3.7,1.1-3.7,3.3c0,5,12.1,4.2,12.1,13.1c0,4.4-2.4,7.6-7,8.5v4.6h-4L944.8,627L944.8,627z"/>
	</g>
	<g class="st0">
		<path class="st1" d="M960.4,620.4l4.8-6.6c2.9,2.9,6.6,5.3,11.4,5.3c5.4,0,9.2-3.2,9.2-8.8s-3.5-8.8-8.8-8.8
			c-3.1,0-4.8,0.8-7.8,2.7l-4.7-3l1.4-25.3h27.8v8.6h-18.9l-1,11c2.1-0.9,3.9-1.4,6.2-1.4c8.7,0,16,4.9,16,15.7
			c0,11.2-8.6,17.6-18.2,17.6C969.7,627.5,964.2,624.3,960.4,620.4z"/>
	</g>
</g>
<circle class="st7" cx="1488.8" cy="208.3" r="91.6"/>
<g class="st0">
	<path class="st1" d="M1443.9,234.9c-2.7-0.3-5.8-1.6-7.9-3.5l2.6-4c2.2,1.7,4.3,2.7,6.6,2.7c2.8,0,4.1-1.2,4.1-3.5
		c0-5.4-12.1-4.9-12.1-13.3c0-4.4,2.6-7.4,6.8-8.2v-4.5h4v4.6c2.9,0.4,4.9,1.8,6.6,3.6l-3,3.4c-1.6-1.5-3.1-2.4-5.1-2.4
		c-2.4,0-3.7,1.1-3.7,3.3c0,5,12.1,4.2,12.1,13.1c0,4.4-2.4,7.6-7,8.5v4.6h-4V234.9z"/>
</g>
<g class="st0">
	<path class="st1" d="M1463.4,226h11.2v-31.5h-9.4v-6.4c5.2-1,8.8-2.3,12.1-4.4h7.7V226h9.8v8.4h-31.2V226H1463.4z"/>
	<path class="st1" d="M1502,208.8c0-17.1,7-26,17.6-26c10.7,0,17.6,9,17.6,26c0,17.2-6.9,26.5-17.6,26.5
		C1509,235.4,1502,226,1502,208.8z M1527.5,208.8c0-14-3.3-18-7.8-18s-7.9,3.9-7.9,18s3.4,18.5,7.9,18.5S1527.5,222.9,1527.5,208.8z
		"/>
</g>
<text transform="matrix(1 0 0 1 1128.9404 1526.0773)" class="st1" style="font-family:'SourceHanSansTW-Bold-B5pc-H'; font-size:41.3588px;">停損賣出</text>
<text transform="matrix(1 0 0 1 1388.1516 921.654)" class="st1" style="font-family:'SourceHanSansTW-Bold-B5pc-H'; font-size:41.3588px;">停利賣出</text>
<text transform="matrix(1 0 0 1 65.908 1278.324)" class="st1" style="font-family:'SourceHanSansTW-Bold-B5pc-H'; font-size:41.3588px;">$100</text>
<g>
	<g>
		<rect x="172.6" y="1238" class="st2" width="19.2" height="62.5"/>
		<rect x="181.4" y="1227.5" class="st2" width="1.5" height="87.6"/>
	</g>
	<g>
		<rect x="196.9" y="1262.2" class="st3" width="19.2" height="33.8"/>
		<rect x="205.7" y="1195" class="st3" width="1.5" height="110.5"/>
	</g>
	<g>
		<rect x="292.4" y="1260.1" class="st3" width="19.2" height="37.9"/>
		<rect x="301.2" y="1233.6" class="st3" width="1.5" height="82.2"/>
	</g>
	<g>
		<rect x="220.6" y="1235.9" class="st3" width="19.2" height="44.7"/>
		<rect x="229.4" y="1196.2" class="st3" width="1.5" height="116.5"/>
	</g>
	<g>
		<rect x="268.4" y="1215.3" class="st3" width="19.2" height="71.1"/>
		<rect x="277.1" y="1172.6" class="st3" width="1.8" height="147.3"/>
	</g>
	<g>
		<rect x="387.8" y="1211.6" class="st3" width="19.2" height="43.4"/>
		<rect x="396.4" y="1193.1" class="st3" width="1.8" height="81.1"/>
	</g>
	<g>
		<rect x="435.7" y="1268.7" class="st3" width="19.2" height="64.5"/>
		<rect x="444.3" y="1249" class="st3" width="1.8" height="113.2"/>
	</g>
	<g>
		<rect x="625.6" y="1244.3" class="st3" width="19.2" height="78.9"/>
		<rect x="634.3" y="1237.8" class="st3" width="1.8" height="103"/>
	</g>
	<g>
		<rect x="530.2" y="1149.1" class="st3" width="19.2" height="78.9"/>
		<rect x="538.8" y="1142.7" class="st3" width="1.8" height="103"/>
	</g>
	<g>
		<rect x="458.3" y="1273.9" class="st3" width="19.2" height="23.2"/>
		<rect x="466.9" y="1253.3" class="st3" width="1.8" height="56.4"/>
	</g>
	<g>
		<rect x="505.7" y="1182.7" class="st3" width="19.2" height="25"/>
		<rect x="514.4" y="1166.7" class="st3" width="1.8" height="81.9"/>
	</g>
	<g>
		<rect x="720.9" y="1199.3" class="st3" width="19.2" height="25"/>
		<rect x="729.6" y="1175.1" class="st3" width="1.8" height="118.3"/>
	</g>
	<g>
		<rect x="791.9" y="1189.7" class="st3" width="19.2" height="34.4"/>
		<rect x="800.6" y="1164.7" class="st3" width="1.8" height="75"/>
	</g>
	<g>
		<rect x="911.4" y="1217.9" class="st3" width="19.2" height="43.6"/>
		<rect x="920.1" y="1197" class="st3" width="1.8" height="95.9"/>
	</g>
	<g>
		<rect x="981.1" y="1156.4" class="st3" width="19.2" height="37.3"/>
		<rect x="989.8" y="1097.2" class="st3" width="1.8" height="124"/>
	</g>
	<g>
		<rect x="1125.1" y="1346.2" class="st3" width="19.2" height="55.3"/>
		<rect x="1133.7" y="1327.8" class="st3" width="1.8" height="143.1"/>
	</g>
	<g>
		<rect x="1172.5" y="1288.9" class="st3" width="19.2" height="116.1"/>
		<rect x="1181" y="1281.5" class="st3" width="1.8" height="132"/>
	</g>
	<g>
		<rect x="1243.9" y="1072.6" class="st2" width="19.2" height="143.7"/>
		<rect x="1252.5" y="1065.3" class="st2" width="1.8" height="159.7"/>
	</g>
	<g>
		<rect x="1341.9" y="878.9" class="st3" width="19.2" height="162.1"/>
		<rect x="1350.5" y="846.2" class="st3" width="1.8" height="230.9"/>
	</g>
	<g>
		<rect x="935" y="1165.9" class="st3" width="19.2" height="85"/>
		<rect x="943.7" y="1135.8" class="st3" width="1.8" height="146.2"/>
	</g>
	<g>
		<rect x="838.6" y="1165.4" class="st3" width="19.2" height="24.1"/>
		<rect x="847.3" y="1136.8" class="st3" width="1.8" height="63.8"/>
	</g>
	<g>
		<rect x="767.8" y="1130.1" class="st3" width="19.2" height="69.2"/>
		<rect x="776.4" y="1082.1" class="st3" width="1.8" height="139"/>
	</g>
	<g>
		<rect x="553.7" y="1168.8" class="st3" width="19.2" height="88.5"/>
		<rect x="562.4" y="1158.6" class="st3" width="1.8" height="116.7"/>
	</g>
	<g>
		<rect x="815.9" y="1198.5" class="st3" width="19.2" height="7.2"/>
		<rect x="824.5" y="1170.7" class="st3" width="1.8" height="62.6"/>
	</g>
	<g>
		<rect x="482.3" y="1251.8" class="st3" width="19.2" height="45.4"/>
		<rect x="491" y="1232.8" class="st3" width="1.8" height="77.1"/>
	</g>
	<g>
		<rect x="315.7" y="1242.3" class="st3" width="19.2" height="23.2"/>
		<rect x="324.2" y="1221.7" class="st3" width="1.8" height="56.4"/>
	</g>
	<g>
		<rect x="339.7" y="1220.2" class="st3" width="19.2" height="45.4"/>
		<rect x="348.4" y="1201.3" class="st3" width="1.8" height="77.1"/>
	</g>
	<g>
		<rect x="244.2" y="1216.3" class="st2" width="19.2" height="63.7"/>
		<rect x="253.1" y="1165.4" class="st2" width="1.5" height="141.1"/>
	</g>
	<g>
		<rect x="363" y="1152.6" class="st2" width="19.2" height="84.3"/>
		<rect x="371.8" y="1140" class="st2" width="1.5" height="122.2"/>
	</g>
	<g>
		<rect x="578" y="1174.7" class="st2" width="19.2" height="84.3"/>
		<rect x="586.7" y="1167" class="st2" width="1.8" height="98.2"/>
	</g>
	<g>
		<rect x="1005.6" y="1184.8" class="st3" width="19.2" height="78.9"/>
		<rect x="1014.2" y="1178.3" class="st3" width="1.8" height="103"/>
	</g>
	<g>
		<rect x="1029.1" y="1204.5" class="st3" width="19.2" height="88.5"/>
		<rect x="1037.8" y="1194.3" class="st3" width="1.8" height="116.7"/>
	</g>
	<g>
		<rect x="1053.4" y="1258.8" class="st2" width="19.2" height="84.3"/>
		<rect x="1062.1" y="1251" class="st2" width="1.8" height="98.2"/>
	</g>
	<g>
		<rect x="601.9" y="1217.7" class="st2" width="19.2" height="61.9"/>
		<rect x="610.5" y="1190" class="st2" width="1.8" height="95.8"/>
	</g>
	<g>
		<rect x="648.4" y="1218.4" class="st2" width="19.2" height="51.7"/>
		<rect x="657.1" y="1196.8" class="st2" width="1.8" height="88.6"/>
	</g>
	<g>
		<rect x="743.8" y="1168.2" class="st2" width="19.2" height="64"/>
		<rect x="752.4" y="1154.9" class="st2" width="1.8" height="92.5"/>
	</g>
	<g>
		<rect x="698.8" y="1212.7" class="st2" width="19.2" height="109.1"/>
		<rect x="707.4" y="1202.1" class="st2" width="1.8" height="135.1"/>
	</g>
	<g>
		<rect x="861.8" y="1181.7" class="st2" width="19.2" height="35.1"/>
		<rect x="870.5" y="1170.7" class="st2" width="1.8" height="91.4"/>
	</g>
	<g>
		<rect x="958.3" y="1193.7" class="st2" width="19.2" height="17.2"/>
		<rect x="967" y="1137.7" class="st2" width="1.8" height="100.2"/>
	</g>
	<g>
		<rect x="1266.7" y="1048.1" class="st2" width="19.2" height="17.2"/>
		<rect x="1275.3" y="1015.5" class="st2" width="1.8" height="102.9"/>
	</g>
	<g>
		<rect x="1316.1" y="1006.1" class="st2" width="19.2" height="33.2"/>
		<rect x="1324.8" y="989.7" class="st2" width="1.8" height="62.2"/>
	</g>
	<g>
		<rect x="1290" y="1009.5" class="st2" width="19.2" height="9.9"/>
		<rect x="1298.6" y="995.6" class="st2" width="1.8" height="52.4"/>
	</g>
	<g>
		<rect x="1077.9" y="1317.6" class="st2" width="19.2" height="74.9"/>
		<rect x="1086.5" y="1309.1" class="st2" width="1.8" height="99"/>
	</g>
	<g>
		<rect x="1195.4" y="1237.9" class="st2" width="19.2" height="60.2"/>
		<rect x="1204.1" y="1195.6" class="st2" width="1.8" height="86.5"/>
	</g>
	<g>
		<rect x="1101.7" y="1399.6" class="st2" width="19.2" height="73.6"/>
		<rect x="1110.3" y="1365.8" class="st2" width="1.8" height="141.2"/>
	</g>
	<g>
		<rect x="1148.6" y="1325.2" class="st2" width="19.2" height="73.6"/>
		<rect x="1157.3" y="1261.2" class="st2" width="1.8" height="131.1"/>
	</g>
	<g>
		<rect x="1221.7" y="1139.8" class="st3" width="19.2" height="116.1"/>
		<rect x="1230.4" y="1132.5" class="st3" width="1.8" height="132"/>
	</g>
	<g>
		<rect x="886.8" y="1216.6" class="st2" width="19.2" height="43.8"/>
		<rect x="895.5" y="1183.3" class="st2" width="1.8" height="109.5"/>
	</g>
	<g>
		<rect x="672.8" y="1261" class="st2" width="19.2" height="27.8"/>
		<rect x="681.3" y="1241.1" class="st2" width="1.8" height="54.5"/>
	</g>
	<g>
		<rect x="410.9" y="1240.7" class="st2" width="19.2" height="92"/>
		<rect x="419.5" y="1200.6" class="st2" width="1.8" height="140.5"/>
	</g>
	<circle class="st1" cx="1112.2" cy="1438.8" r="10.7"/>
	<circle class="st1" cx="1352.5" cy="903.2" r="10.7"/>
	<g>
		<line class="st4" x1="167.6" y1="1267.2" x2="1412.7" y2="1267.2"/>
		<g>
			<line class="st5" x1="167.6" y1="1267.2" x2="173.1" y2="1267.2"/>
			<line class="st6" x1="184.3" y1="1267.2" x2="1401.7" y2="1267.2"/>
			<line class="st5" x1="1407.2" y1="1267.2" x2="1412.7" y2="1267.2"/>
		</g>
	</g>
</g>
<path class="st1" d="M1106.3,1411.9c1.4,1.4,3.3,2.2,5.3,2.3c1.8,0,3.6-0.6,4.9-1.8c0.1-0.1,0.3-0.2,0.4-0.4l42.2-41.3
	c2.2-2.1,2.9-5.4,1.7-8.2c-1.1-2.8-3.8-4.7-6.9-4.7l-17.4-0.2l0.5-46.7c0-4.1-3.3-7.6-7.4-7.6l-33.4-0.4c-1.8,0-3.5,0.6-4.9,1.8
	c-1.7,1.4-2.7,3.5-2.7,5.7l-0.5,46.7l-17.5-0.2c-3,0-5.8,1.8-7,4.6c-1.2,2.8-0.6,6,1.5,8.2L1106.3,1411.9z M1093.4,1368
	c3,0,5.5-2.4,5.5-5.4l0.5-48.8l26.7,0.3l-0.5,48.8c0,1.4,0.5,2.8,1.5,3.9c1,1,2.4,1.6,3.8,1.6l14.8,0.2l-34,33.3l-33.2-34
	L1093.4,1368z"/>
<path class="st1" d="M1357.3,942.3c-1.4-1.4-3.3-2.2-5.3-2.3c-1.8,0-3.6,0.6-4.9,1.8c-0.1,0.1-0.3,0.2-0.4,0.4l-42.2,41.3
	c-2.2,2.1-2.9,5.4-1.7,8.2c1.1,2.8,3.8,4.7,6.9,4.7l17.4,0.2l-0.5,46.7c0,4.1,3.3,7.6,7.4,7.6l33.4,0.4c1.8,0,3.5-0.6,4.9-1.8
	c1.7-1.4,2.7-3.5,2.7-5.7l0.5-46.7l17.5,0.2c3,0,5.8-1.8,7-4.6c1.2-2.8,0.6-6-1.5-8.2L1357.3,942.3z M1370.2,986.1
	c-3,0-5.5,2.4-5.5,5.4l-0.5,48.8l-26.7-0.3l0.5-48.8c0-1.4-0.5-2.8-1.5-3.9c-1-1-2.4-1.6-3.8-1.6l-14.8-0.2l34-33.3l33.2,34
	L1370.2,986.1z"/>
<g>
	
		<ellipse transform="matrix(0.7071 -0.7071 0.7071 0.7071 -739.2164 1108.7737)" class="st7" cx="968.8" cy="1446.7" rx="91.6" ry="91.6"/>
	
		<text transform="matrix(1 0 0 1 935.0099 1472.7518)" class="st1" style="font-family:'SourceHanSansTC-Bold-B5pc-H'; font-size:39.9632px;">$</text>
	
		<text transform="matrix(1 0 0 1 958.5558 1472.7518)" class="st1" style="font-family:'SourceHanSansTC-Bold-B5pc-H'; font-size:70.2056px;">5</text>
</g>
<circle class="st7" cx="1488.8" cy="1054.5" r="91.6"/>
<text transform="matrix(1 0 0 1 1434.0502 1080.5953)" class="st1" style="font-family:'SourceHanSansTC-Bold-B5pc-H'; font-size:39.9632px;">$</text>
<text transform="matrix(1 0 0 1 1457.5961 1080.5953)" class="st1" style="font-family:'SourceHanSansTC-Bold-B5pc-H'; font-size:70.2056px;">10</text>
</svg>
