<?xml version="1.0" encoding="utf-8"?>
<!-- Generator: Adobe Illustrator 27.8.1, SVG Export Plug-In . SVG Version: 6.00 Build 0)  -->
<svg version="1.1" id="Stock_graph_technology" xmlns="http://www.w3.org/2000/svg" xmlns:xlink="http://www.w3.org/1999/xlink"
	 x="0px" y="0px" viewBox="0 0 1600 839.6" style="enable-background:new 0 0 1600 839.6;" xml:space="preserve">
<style type="text/css">
	.st0{enable-background:new    ;}
	.st1{fill:#FFFFFF;}
	.st2{fill:none;}
	.st3{fill:none;stroke:#FFFFFF;stroke-linecap:round;stroke-linejoin:round;}
	.st4{fill:none;stroke:#FFFFFF;stroke-linecap:round;stroke-linejoin:round;stroke-dasharray:12.0786,12.0786;}
	.st5{fill:#DD0A00;}
	.st6{fill:#2BB573;}
	.st7{fill:#EA6100;}
</style>
<g class="st0">
	<path class="st1" d="M1259.2,14.6c-1.1-1-3.5-2.3-5.3-3.1l1.7-2.5c1.8,0.7,4.2,1.9,5.4,2.8L1259.2,14.6z M1262.6,18.6
		c-1.5,3-3.1,6.3-4.8,9l-2.9-2.2c1.5-2.1,3.5-5.6,5.2-8.9L1262.6,18.6z M1260.8,7.1c-1.1-1-3.4-2.4-5.2-3.2l1.8-2.5
		c1.8,0.7,4.2,1.9,5.4,2.9L1260.8,7.1z M1279.1,15.3c-1,3.1-2.5,5.5-4.6,7.4c1.9,0.9,4,1.6,6.4,2.1c-0.7,0.7-1.7,2.1-2.2,3.1
		c-2.7-0.6-5.1-1.6-7.1-3c-2.5,1.5-5.2,2.4-8.3,3c-0.3-0.9-1.1-2.3-1.6-3.1c2.6-0.5,5.1-1.2,7.2-2.2c-1.4-1.3-2.5-2.7-3.5-4.4
		l2.2-0.7h-3.8v-3h12.6l0.6-0.1L1279.1,15.3z M1269,6.8c-1,3.1-2.5,5.7-4.4,7.5c-0.6-0.5-2.1-1.6-2.9-2.1c2.9-2.3,4.4-6.2,4.9-10.9
		l3.5,0.4c-0.1,0.7-0.3,1.4-0.4,2.1h9.3c0,0,0,0.8-0.1,1.3c-0.3,4.5-0.6,6.6-1.5,7.5c-0.6,0.7-1.3,0.9-2.3,1
		c-0.8,0.1-2.2,0.1-3.7,0.1c-0.1-1-0.5-2.3-1-3.1c1.3,0.2,2.5,0.2,3.1,0.2c0.5,0,0.7-0.1,1-0.3c0.4-0.4,0.6-1.4,0.7-3.5L1269,6.8
		L1269,6.8z M1268.5,17.5c0.7,1.2,1.8,2.4,3.1,3.4c1.2-0.9,2.2-2.1,2.9-3.4H1268.5z"/>
	<path class="st1" d="M1287.6,12.7c-1,1.6-2.1,3.1-3.2,4.1c-0.5-0.7-1.5-1.8-2.2-2.4c1.9-1.4,3.7-3.9,4.8-6.4h-4.1V5.2h4.6v-4h3.2v4
		h4v2.9h-4v1.2c1.2,0.6,3.8,2.5,4.5,3.1l-1.7,2.7c-0.6-0.7-1.7-1.7-2.7-2.6v5.9h-3.2V12.7z M1282.4,24.7c1-1.5,2-3.8,2.5-5.8l3,1.2
		c-0.5,2-1.4,4.5-2.4,6.2L1282.4,24.7z M1298.7,24.3c1.4,0,1.5-0.4,1.7-3.3c0.7,0.5,2.1,1,3.1,1.2c-0.5,4.1-1.4,5.1-4.5,5.1h-5.1
		c-3.9,0-4.9-0.9-4.9-3.9v-3.9h3.4v3.8c0,0.8,0.3,1,1.8,1H1298.7z M1295.4,17.3l0.5,0.5V2.7h11.5V18h-11.3c1.1,1,2.4,2.2,3,3
		l-2.5,2.1c-0.8-1-2.5-2.7-3.7-4L1295.4,17.3z M1299,7h5.3V5.4h-5.3V7z M1299,11.2h5.3V9.6h-5.3V11.2z M1299,15.4h5.3v-1.7h-5.3
		V15.4z M1305.6,18.6c1.2,1.7,2.8,4.2,3.5,5.6l-3.2,1.6c-0.7-1.5-2.3-4-3.4-5.9L1305.6,18.6z"/>
	<path class="st1" d="M1320.9,22.2c1.8-0.3,3.6-0.6,5.5-0.9l0.2,2.9c-5,1-10.4,1.9-14.3,2.6l-0.7-3.1c1.7-0.2,3.8-0.5,6.2-0.9v-3.9
		h-5.2V16h5.2v-2.5h3.2V16h5.1v2.9h-5.1V22.2z M1311.8,2.9h14.8v2.9h-4c1.5,1.8,3.3,4.4,4,6.1l-2.5,1.6c-0.2-0.5-0.4-0.9-0.6-1.5
		c-7.8,0.6-9.1,0.8-9.9,1.2c-0.2-0.7-0.7-2.2-1.1-3.1c0.5-0.1,0.9-0.5,1.3-1.2c0.3-0.5,1.1-1.7,1.7-3.2h-3.6L1311.8,2.9L1311.8,2.9z
		 M1321.7,9.6c-0.5-0.8-1.1-1.6-1.6-2.4l2.4-1.4h-3.5c-0.7,1.4-1.6,2.8-2.5,4L1321.7,9.6z M1330.8,21.1h-3.1V3.9h3.1V21.1z
		 M1336.4,1.6v22c0,1.8-0.4,2.6-1.5,3.2c-1.1,0.5-2.7,0.6-4.9,0.6c-0.2-0.9-0.7-2.4-1.2-3.3c1.5,0.1,3,0.1,3.5,0.1
		c0.5,0,0.6-0.2,0.6-0.6v-22H1336.4z"/>
	<path class="st1" d="M1346.3,19.2c0-0.4-0.1-0.7-0.2-1.2c-4.4,0.6-5.3,0.9-5.8,1.2c-0.2-0.5-0.6-1.9-0.9-2.5c0.6-0.2,1.2-0.8,2-2
		c0.3-0.5,0.9-1.4,1.6-2.5c-1.9,0.3-2.5,0.4-2.9,0.5c-0.2-0.5-0.6-1.8-0.9-2.5c0.5-0.1,0.9-0.7,1.4-1.6c0.5-0.8,1.9-4.1,2.6-7.2
		l2.6,1.1c-0.8,2.5-2,5.1-3.2,7.2l1.6-0.1c0.6-1.3,1.2-2.7,1.7-4.1l2.5,1.5c-0.9,2.1-2.1,4.3-3.3,6.3l1.8-0.5c0.6,2,1.2,4.5,1.4,6
		L1346.3,19.2z M1342.8,20.4c-0.3,2.6-0.6,5.5-1.2,7.3c-0.5-0.3-1.6-0.6-2.3-0.7c0.6-1.8,1-4.5,1.2-6.8L1342.8,20.4z M1345.2,20
		c0.4,2.1,0.6,4.8,0.6,6.7l-2.1,0.4c0-1.8-0.3-4.6-0.5-6.7L1345.2,20z M1345.7,15.6c-0.2-0.7-0.4-1.5-0.5-2.2
		c-0.5,0.8-1.1,1.7-1.6,2.5L1345.7,15.6z M1347.6,19.3c0.5,1.8,1.1,4.1,1.4,5.6l-2,0.6c-0.2-1.5-0.7-4-1.3-5.7L1347.6,19.3z
		 M1366,24.6v2.6H1349v-25h2.8v10h13.5v2.4h-4l1.2,0.5c-0.5,1.1-1,2.1-1.6,3l1.3-0.2c0.3-0.5,0.5-0.9,0.8-1.5l1.9,0.9
		c-1,1.6-2.2,3.2-3.4,4.5l1.5-0.2c-0.1-0.5-0.3-0.8-0.4-1.2l1.7-0.5c0.5,1.2,0.9,2.7,1.1,3.6l-1.8,0.6c0-0.3-0.1-0.6-0.2-1
		c-3.4,0.5-4,0.6-4.5,0.9c-0.1-0.5-0.5-1.4-0.6-1.9c0.5-0.1,0.9-0.5,1.4-1c0.3-0.3,0.7-0.8,1.3-1.5c-1.5,0.3-1.9,0.4-2.1,0.5
		c-0.2-0.5-0.5-1.5-0.7-1.9c0.4-0.1,0.6-0.4,0.9-0.7c0.3-0.4,1-1.6,1.5-3.1h-5.6l1.5,0.6c-0.4,1-1,1.9-1.5,2.7l1-0.1
		c0.3-0.4,0.5-0.7,0.6-1.2l1.9,0.8c-0.9,1.5-2,3.1-3.1,4.3l1.1-0.1c-0.1-0.3-0.2-0.6-0.2-0.8l1.5-0.5c0.4,1.2,0.7,2.6,0.8,3.5
		l-1.6,0.6c0-0.4-0.1-0.7-0.2-1.2c-2.9,0.5-3.5,0.6-3.9,0.8c-0.1-0.5-0.4-1.4-0.6-1.9c0.5-0.1,0.8-0.5,1.4-0.9
		c0.2-0.3,0.7-0.8,1.2-1.5c-1.2,0.2-1.6,0.4-1.9,0.5c-0.1-0.5-0.5-1.4-0.7-1.9c0.3-0.1,0.6-0.3,0.8-0.7c0.3-0.4,1.1-1.6,1.5-3h-2.5
		v10L1366,24.6L1366,24.6z M1356.6,12.1c0-0.4-0.1-0.7-0.2-1.2c-2.9,0.5-3.5,0.6-3.9,0.8c-0.1-0.5-0.5-1.4-0.6-1.9
		c0.5-0.1,0.8-0.5,1.3-1c0.2-0.2,0.5-0.6,1-1.2c-1,0.2-1.4,0.3-1.6,0.4c-0.1-0.5-0.5-1.5-0.7-2c0.4-0.1,0.6-0.4,0.9-0.8
		c0.3-0.5,1.2-2.1,1.6-3.7l2.1,0.8c-0.5,1.2-1.2,2.5-1.8,3.5l0.8-0.1c0.3-0.5,0.5-0.9,0.7-1.5l1.9,0.9c-0.9,1.5-2,3-3.1,4.3l1.1-0.1
		c-0.1-0.3-0.2-0.6-0.3-0.8l1.5-0.5c0.4,1.2,0.7,2.6,0.8,3.5L1356.6,12.1z M1363.4,12c-0.1-0.3-0.1-0.6-0.2-1.1
		c-3.4,0.5-4,0.6-4.5,0.9c-0.1-0.5-0.5-1.4-0.6-1.9c0.5-0.1,0.8-0.5,1.4-1c0.2-0.3,0.5-0.7,1.1-1.3c-1.3,0.3-1.7,0.4-2,0.5
		c-0.1-0.5-0.5-1.5-0.7-2c0.4-0.1,0.6-0.4,1-0.8c0.3-0.5,1.3-2.2,1.7-3.9l2.1,0.8c-0.5,1.3-1.3,2.6-2,3.7l1.3-0.2
		c0.4-0.5,0.6-1.1,0.9-1.6l1.9,0.9c-1,1.6-2.3,3.2-3.5,4.5l1.5-0.2c-0.1-0.4-0.3-0.8-0.4-1.2l1.7-0.5c0.5,1.2,0.9,2.7,1.1,3.6
		L1363.4,12z"/>
	<path class="st1" d="M1375.6,19.2c-0.1-0.4-0.1-0.8-0.2-1.4c-5,0.7-6,1-6.5,1.3c-0.2-0.5-0.6-2-1-2.7c0.7-0.2,1.3-0.8,2.1-1.9
		c0.4-0.5,1-1.3,1.7-2.5c-2.1,0.3-2.6,0.4-3.1,0.6c-0.2-0.5-0.6-1.9-0.9-2.6c0.5-0.2,1-0.7,1.5-1.6c0.5-0.7,2.2-4,3.1-7l2.7,1.1
		c-0.9,2.4-2.2,4.9-3.5,6.9l1.8-0.2c0.6-1.2,1.3-2.5,1.8-3.8l2.5,1.5c-1.5,3-3.5,6.2-5.5,8.7l2.6-0.3c-0.2-0.7-0.4-1.5-0.6-2.2
		l2.3-0.6c0.6,1.9,1.3,4.5,1.5,5.9L1375.6,19.2z M1371.5,20.4c-0.2,2.6-0.7,5.5-1.3,7.4c-0.5-0.3-1.8-0.7-2.5-0.8
		c0.6-1.8,1-4.5,1.2-6.9L1371.5,20.4z M1374.1,19.9c0.4,2.1,0.6,4.7,0.6,6.5l-2.4,0.5c0-1.8-0.2-4.5-0.5-6.5L1374.1,19.9z
		 M1376.6,19.2c0.5,1.6,1.2,3.7,1.4,5.1l-2.2,0.7c-0.3-1.5-0.8-3.5-1.3-5.3L1376.6,19.2z M1389.2,23.6c1.9,0.6,3.8,1.4,5.1,1.9
		l-1.4,2.4c-1.5-0.7-4-1.7-6.2-2.5l0.9-1.7h-4.2l1.7,1.6c-2.3,1-5.1,2-7.2,2.7c-0.3-0.6-0.7-1.6-1.2-2.4c1.5-0.5,3.7-1.3,5.4-2.1
		h-3.8V15h14.4v8.5L1389.2,23.6L1389.2,23.6z M1384.1,4.6h-6.8V2.5h6.8V1.3h3.3v1.2h6.5v2.2h-6.5v1h5.5v2h-14.5v-2h5.7V4.6z
		 M1377.5,8.5h16.4v5.8h-16.4V8.5z M1380.2,12.2h2.1v-1.7h-2.1V12.2z M1381.5,17.7h8.3v-0.8h-8.3V17.7z M1381.5,19.8h8.3V19h-8.3
		V19.8z M1381.5,21.9h8.3V21h-8.3V21.9z M1386.6,12.2v-1.7h-1.8v1.7H1386.6z M1391,10.5h-1.8v1.7h1.8V10.5z"/>
	<path class="st1" d="M1422.5,23.1v3.5h-25.9v-3.5h10.2V1.6h3.6v8.2h10.1v3.5h-10v9.8H1422.5z"/>
	<path class="st1" d="M1436.5,20.2c-3.8,1.1-8,2.2-11.1,3.1l-0.8-3.5c1.2-0.3,2.5-0.5,4.1-0.9V7.9h-3.6V4.6h10.8v3.3h-3.8v10.2
		l4.1-0.9L1436.5,20.2z M1449.1,9.6c-0.9,4.4-2.2,7.8-4.3,10.6c1.8,2,4,3.6,6.8,4.6c-0.7,0.7-1.8,2.1-2.4,3.1
		c-2.8-1.2-5-2.8-6.8-4.9c-2.2,2.1-4.9,3.7-8.4,4.9c-0.3-0.8-1.2-2.4-1.8-3.1c3.5-1.1,6.2-2.5,8.2-4.6c-1.2-2-2.1-4.2-2.8-6.6
		c-0.5,0.7-0.9,1.5-1.5,2.1c-0.6-0.5-2.1-1.6-2.9-2c2.5-2.8,4.5-7.6,5.6-12.5l3.4,0.7c-0.4,1.5-0.8,3-1.3,4.5h10.2v3.3L1449.1,9.6
		L1449.1,9.6z M1440,9.6c0.6,2.8,1.5,5.5,2.8,7.7c1.3-2.1,2.2-4.6,2.7-7.7H1440z"/>
	<path class="st1" d="M1270.1,53.2c1.9,5.7,5.4,10.5,10.7,12.8c-0.8,0.7-2,2.2-2.5,3.2c-5.3-2.5-8.5-7.2-10.7-13
		c-0.6,2.2-1.5,4.3-2.9,6.2l0.8-0.5c1.7,1.5,4,3.6,5,5.1l-3,2.2c-0.8-1.3-2.6-3.3-4.3-4.9c-1.7,1.9-4,3.6-6.9,4.9
		c-0.5-0.9-1.5-2.1-2.5-2.9c7-3,9.7-8,10.8-13.1h-9.9v-3.5h10.5c0.2-2.5,0.2-4.9,0.2-7.1h3.7c0,2.2-0.1,4.5-0.3,7.1h11.3v3.5
		L1270.1,53.2L1270.1,53.2z"/>
	<path class="st1" d="M1308.8,63h-11.5v6.1h-3.5V63h-11.1v-3.2h11.1v-3.3h-8.3V43.7h20.3v12.8h-8.5v3.3h11.5V63z M1288.9,48.8h13.4
		v-2.1h-13.4V48.8z M1288.9,53.6h13.4v-2.1h-13.4V53.6z"/>
	<path class="st1" d="M1335.8,56.7v12.4h-3.8v-1.5h-19.5V56.8h3.8v7.5h6v-8.9h-8.3V44.9h3.5V52h4.7v-9.5h3.7V52h4.9v-7.1h3.7v10.4
		h-8.6v8.9h6v-7.5C1332,56.7,1335.8,56.7,1335.8,56.7z"/>
	<path class="st1" d="M1354.6,56.8c-0.3,0.5-0.5,0.9-0.8,1.4h11.5c0,0,0,0.7-0.1,1.2c-0.4,5.5-0.8,7.8-1.6,8.6
		c-0.5,0.6-1.2,0.9-1.9,1c-0.6,0.1-1.7,0.1-2.9,0.1c-0.1-0.8-0.4-1.9-0.7-2.6c0.9,0.1,1.6,0.1,2,0.1c0.4,0,0.6-0.1,0.8-0.3
		c0.4-0.5,0.7-1.9,1.1-5.4h-1.1c-1.2,3.2-3.4,6.6-5.7,8.5c-0.5-0.6-1.5-1.5-2.4-1.9c2.2-1.4,4.1-3.9,5.3-6.5h-1.6
		c-1.5,2.7-4.2,5.5-6.6,7.2c-0.5-0.6-1.5-1.5-2.2-2c2.1-1.1,4.3-3.1,5.8-5.2h-1.6c-1.1,1.1-2.2,2.1-3.4,2.8c-0.5-0.5-1.5-1.5-2.2-2
		c-2.1,1-4.1,2.1-5.8,2.9l-1.3-3.5c1-0.4,2.2-0.8,3.5-1.4v-8h-2.8v-3.2h2.8v-5.7h3.1v5.6h2.6v3.2h-2.6v6.6l2.3-1l0.6,2.5
		c1-0.9,1.9-1.9,2.6-3h-3.2V54h17.9v2.8C1366,56.8,1354.6,56.8,1354.6,56.8z M1364,52.9h-13.5v-9.6h13.5L1364,52.9L1364,52.9z
		 M1360.9,45.6h-7.4V47h7.4V45.6z M1360.9,49.2h-7.4v1.4h7.4V49.2z"/>
	<path class="st1" d="M1382.6,47c-0.4,1.1-0.7,2.1-1,3h11.3v15.5c0,1.6-0.3,2.5-1.3,3c-1,0.5-2.5,0.5-4.4,0.5
		c-0.2-0.9-0.6-2.3-1.1-3.1c1.2,0.1,2.4,0,2.8,0c0.5,0,0.5-0.1,0.5-0.5V53.2h-3.4v15.1h-3.4V53.2h-3.1v15.1h-3.4V53.2h-3v15.9h-3.5
		V50h8.3c0.3-1,0.5-2,0.7-3h-10.4v-3.5h25.8V47H1382.6z"/>
	<path class="st1" d="M1407,63.5l0.2,2.6c-3.5,0.8-7.1,1.5-9.9,2.2l-0.6-3.1c1.2-0.2,2.5-0.5,4.2-0.7v-7h-3.8v-2.9h3.8v-2.1h-2.1
		v-1.3c-0.5,0.5-0.9,0.8-1.4,1.2c-0.2-0.7-0.7-2.6-1.2-3.5c2.1-1.5,4.4-4,5.6-6.6l2.5,1.2c-0.2,0.4-0.4,0.7-0.5,1.1
		c1.7,1,3.5,2.2,4.5,3.2l-1.4,2.7c-0.2-0.2-0.5-0.5-0.7-0.6v2.6h-2.5v2.1h3.5v2.9h-3.5v6.6L1407,63.5z M1399.2,58.6
		c0.5,1.5,0.9,3.5,1.1,4.8l-2.2,0.6c-0.1-1.4-0.5-3.4-0.9-4.9L1399.2,58.6z M1405.9,49.7c-1-0.9-2.4-1.9-3.7-2.7
		c-0.6,1-1.4,1.8-2.1,2.7H1405.9z M1403.8,63c0.4-1.3,0.8-3.4,1-4.8l2.4,0.6c-0.5,1.6-1.1,3.5-1.5,4.7L1403.8,63z M1422.8,51.5v3.1
		h-15.2v-3.1h3v-2.6h-2.5v-3h2.5v-3.3h3v3.3h3v-3.3h3v3.3h2.5v3h-2.5v2.6H1422.8z M1409.3,56.1h12v13h-3.1v-1h-5.9v1.1h-3
		L1409.3,56.1L1409.3,56.1z M1412.3,58.9v1.9h5.9v-1.9H1412.3z M1418.1,65.4v-1.9h-5.9v1.9H1418.1z M1413.6,51.5h3v-2.6h-3V51.5z"/>
	<path class="st1" d="M1441,58.4c2,3.8,5.5,6.5,10.8,7.5c-0.8,0.7-1.8,2.3-2.3,3.2c-5.5-1.5-9-4.4-11.3-8.8
		c-1.6,3.6-4.8,6.8-11.3,8.8c-0.4-0.8-1.5-2.3-2.2-3c6-1.7,8.8-4.5,10.2-7.7h-9.6v-3.5h10.6c0.2-1.2,0.2-2.3,0.2-3.5v-1.1h-5.5
		c-0.7,1.5-1.5,2.7-2.3,3.7c-0.7-0.5-2.4-1.5-3.3-1.8c2.1-2.2,3.7-5.8,4.6-9.5l3.5,0.7c-0.3,1.2-0.7,2.3-1.1,3.5h4v-4.5h3.5v4.5h8.7
		v3.5h-8.7v1.1c0,1.1,0,2.3-0.2,3.5h11.4v3.5H1441z"/>
	<path class="st1" d="M1463.9,49.9c-0.8,1.5-1.9,2.9-3,4.4v14.8h-3.4V58c-0.8,0.7-1.5,1.5-2.4,2.1c-0.5-0.7-1.6-2.2-2.3-2.9
		c2.9-2,6-5.3,7.8-8.5L1463.9,49.9z M1462.8,43.9c-2.1,2.6-5.1,5.6-7.8,7.5c-0.5-0.7-1.3-2.1-1.9-2.7c2.4-1.5,5.1-4.1,6.5-6.1
		L1462.8,43.9z M1479.6,55.2h-3.9v10c0,1.8-0.4,2.7-1.6,3.3c-1.2,0.5-3,0.5-5.5,0.5c-0.2-1-0.5-2.5-1-3.5c1.6,0.1,3.5,0.1,4,0.1
		c0.5,0,0.7-0.1,0.7-0.5v-9.9h-8.4V52h15.7L1479.6,55.2L1479.6,55.2z M1478.9,47.4H1465v-3.2h13.8V47.4z"/>
	<path class="st1" d="M1481.4,55.6c0.6-1.9,1.2-5.1,1.5-7.5l2.5,0.4c-0.2,2.5-0.7,5.8-1.4,8L1481.4,55.6z M1508.1,51.6V54h-17.5
		v-2.4L1490,52c-0.2-0.8-0.6-2-1.2-3.1v20.2h-3.1V42.6h3.1V47l1.5-0.7c0.7,1.5,1.6,3.3,2,4.5l-1.5,0.8h6.8v-1.2h-5.3v-2.3h5.3v-1.2
		h-6.3v-2.5h6.3v-1.9h3.4v1.9h6.3v2.5h-6.3v1.2h5.4v2.3h-5.4v1.2H1508.1z M1506.6,65.9c0,1.5-0.3,2.3-1.4,2.7
		c-1,0.5-2.4,0.5-4.4,0.5c-0.1-0.8-0.5-2.1-0.9-2.9c1.2,0.1,2.5,0.1,2.9,0.1c0.4,0,0.5-0.1,0.5-0.5v-1h-8.5c-0.4,1.6-1,3.3-2.1,4.5
		c-0.5-0.6-1.8-1.8-2.5-2.3c1.6-2,1.7-4.7,1.7-6.9v-5.2h14.4L1506.6,65.9L1506.6,65.9z M1503.4,62.6v-1.3h-8.1c0,0.5,0,0.8-0.1,1.3
		H1503.4z M1495.3,57.4v1.5h8v-1.5H1495.3z"/>
	<path class="st1" d="M1511.9,64.4c0-1.5,1.1-2.7,2.5-2.7c1.5,0,2.6,1.2,2.6,2.7c0,1.5-1.2,2.7-2.6,2.7
		C1513.1,67.1,1511.9,65.8,1511.9,64.4z M1512.5,49l-0.2-4h4.2l-0.2,4l-0.6,10.5h-2.7L1512.5,49z"/>
</g>
<g>
	<line class="st2" x1="689" y1="600.8" x2="1457.5" y2="600.8"/>
	<g>
		<line class="st3" x1="689" y1="600.8" x2="694.4" y2="600.8"/>
		<line class="st4" x1="705.4" y1="600.8" x2="1446.6" y2="600.8"/>
		<line class="st3" x1="1452" y1="600.8" x2="1457.5" y2="600.8"/>
	</g>
</g>
<g>
	<g>
		<rect x="82.9" y="578" class="st5" width="21.7" height="70.9"/>
		<rect x="93" y="566.1" class="st5" width="1.7" height="99.3"/>
	</g>
	<g>
		<rect x="110.5" y="605.4" class="st6" width="21.7" height="38.4"/>
		<rect x="120.5" y="529.3" class="st6" width="1.7" height="125.2"/>
	</g>
	<g>
		<rect x="218.7" y="626.4" class="st6" width="21.7" height="43"/>
		<rect x="228.7" y="596.3" class="st6" width="1.7" height="93.2"/>
	</g>
	<g>
		<rect x="137.3" y="575.6" class="st6" width="21.7" height="50.6"/>
		<rect x="147.3" y="530.6" class="st6" width="1.7" height="132"/>
	</g>
	<g>
		<rect x="191.6" y="552.3" class="st6" width="21.7" height="80.5"/>
		<rect x="201.3" y="503.8" class="st6" width="2.1" height="167"/>
	</g>
	<g>
		<rect x="326.9" y="604.3" class="st6" width="21.7" height="49.1"/>
		<rect x="336.6" y="583.3" class="st6" width="2.1" height="91.9"/>
	</g>
	<g>
		<rect x="381.1" y="720" class="st6" width="21.7" height="73.2"/>
		<rect x="390.9" y="697.6" class="st6" width="2.1" height="128.3"/>
	</g>
	<g>
		<rect x="596.4" y="585.1" class="st6" width="21.7" height="89.5"/>
		<rect x="606.2" y="577.8" class="st6" width="2.1" height="116.7"/>
	</g>
	<g>
		<rect x="488.2" y="528.4" class="st6" width="21.7" height="89.5"/>
		<rect x="498" y="521.1" class="st6" width="2.1" height="116.7"/>
	</g>
	<g>
		<rect x="406.7" y="669.7" class="st6" width="21.7" height="26.4"/>
		<rect x="416.5" y="646.5" class="st6" width="2.1" height="63.9"/>
	</g>
	<g>
		<rect x="460.5" y="566.5" class="st6" width="21.7" height="28.5"/>
		<rect x="470.3" y="548.3" class="st6" width="2.1" height="92.7"/>
	</g>
	<g>
		<rect x="704.4" y="534.2" class="st6" width="21.7" height="28.5"/>
		<rect x="714.2" y="506.7" class="st6" width="2.1" height="134.1"/>
	</g>
	<g>
		<rect x="784.9" y="460.7" class="st6" width="21.7" height="39"/>
		<rect x="794.7" y="432.6" class="st6" width="2.1" height="85.1"/>
	</g>
	<g>
		<rect x="920.3" y="393.7" class="st6" width="21.7" height="49.5"/>
		<rect x="930.1" y="369.9" class="st6" width="2.1" height="108.6"/>
	</g>
	<g>
		<rect x="999.4" y="396.5" class="st6" width="21.7" height="42.3"/>
		<rect x="1009.1" y="329.5" class="st6" width="2.1" height="140.5"/>
	</g>
	<g>
		<rect x="1162.4" y="284.5" class="st6" width="21.7" height="47.4"/>
		<rect x="1172.2" y="268.7" class="st6" width="2.1" height="122.5"/>
	</g>
	<g>
		<rect x="1216.1" y="278.1" class="st6" width="21.7" height="99.4"/>
		<rect x="1226" y="271.8" class="st6" width="2.1" height="113"/>
	</g>
	<g>
		<rect x="1297.1" y="187.6" class="st5" width="21.7" height="96.5"/>
		<rect x="1307" y="182.7" class="st5" width="2.1" height="107.2"/>
	</g>
	<g>
		<rect x="1408.1" y="122.7" class="st6" width="21.7" height="147.5"/>
		<rect x="1418" y="93" class="st6" width="2.1" height="210.1"/>
	</g>
	<g>
		<rect x="947" y="334.6" class="st6" width="21.7" height="96.4"/>
		<rect x="956.9" y="300.6" class="st6" width="2.1" height="165.8"/>
	</g>
	<g>
		<rect x="837.8" y="433.4" class="st6" width="21.7" height="27.4"/>
		<rect x="847.6" y="400.9" class="st6" width="2.1" height="72.4"/>
	</g>
	<g>
		<rect x="757.6" y="455.7" class="st6" width="21.7" height="78.5"/>
		<rect x="767.3" y="401.4" class="st6" width="2.1" height="157.6"/>
	</g>
	<g>
		<rect x="514.9" y="550.6" class="st6" width="21.7" height="100.3"/>
		<rect x="524.7" y="539.1" class="st6" width="2.1" height="132.3"/>
	</g>
	<g>
		<rect x="812" y="470.7" class="st6" width="21.7" height="8.1"/>
		<rect x="821.8" y="439.3" class="st6" width="2.1" height="71"/>
	</g>
	<g>
		<rect x="434" y="644.7" class="st6" width="21.7" height="51.5"/>
		<rect x="443.8" y="623.2" class="st6" width="2.1" height="87.4"/>
	</g>
	<g>
		<rect x="245" y="606.2" class="st6" width="21.7" height="26.4"/>
		<rect x="254.9" y="582.8" class="st6" width="2.1" height="63.9"/>
	</g>
	<g>
		<rect x="272.3" y="581.2" class="st6" width="21.7" height="51.5"/>
		<rect x="282.1" y="559.6" class="st6" width="2.1" height="87.4"/>
	</g>
	<g>
		<rect x="164.1" y="553.4" class="st5" width="21.7" height="72.3"/>
		<rect x="174.1" y="495.8" class="st5" width="1.7" height="159.8"/>
	</g>
	<g>
		<rect x="298.7" y="537.5" class="st5" width="21.7" height="95.5"/>
		<rect x="308.7" y="523.2" class="st5" width="1.7" height="138.5"/>
	</g>
	<g>
		<rect x="542.4" y="557.5" class="st5" width="21.7" height="95.5"/>
		<rect x="552.2" y="548.6" class="st5" width="2.1" height="111.3"/>
	</g>
	<g>
		<rect x="1027" y="428.7" class="st6" width="21.7" height="89.5"/>
		<rect x="1036.9" y="421.4" class="st6" width="2.1" height="116.7"/>
	</g>
	<g>
		<rect x="1053.8" y="383.1" class="st6" width="21.7" height="100.3"/>
		<rect x="1063.5" y="371.5" class="st6" width="2.1" height="132.3"/>
	</g>
	<g>
		<rect x="1081.3" y="392.5" class="st5" width="21.7" height="95.5"/>
		<rect x="1091" y="383.6" class="st5" width="2.1" height="111.3"/>
	</g>
	<g>
		<rect x="569.4" y="606.1" class="st5" width="21.7" height="70.1"/>
		<rect x="579.2" y="574.7" class="st5" width="2.1" height="108.5"/>
	</g>
	<g>
		<rect x="622.3" y="555.8" class="st5" width="21.7" height="58.6"/>
		<rect x="632.1" y="531.3" class="st5" width="2.1" height="100.4"/>
	</g>
	<g>
		<rect x="730.3" y="498.9" class="st5" width="21.7" height="72.5"/>
		<rect x="740" y="483.8" class="st5" width="2.1" height="104.9"/>
	</g>
	<g>
		<rect x="679.3" y="549.3" class="st5" width="21.7" height="123.6"/>
		<rect x="689.1" y="537.4" class="st5" width="2.1" height="153.1"/>
	</g>
	<g>
		<rect x="864" y="433.9" class="st5" width="21.7" height="39.7"/>
		<rect x="873.9" y="421.5" class="st5" width="2.1" height="103.6"/>
	</g>
	<g>
		<rect x="973.4" y="438.8" class="st5" width="21.7" height="19.5"/>
		<rect x="983.2" y="375.4" class="st5" width="2.1" height="113.5"/>
	</g>
	<g>
		<rect x="1323" y="242.1" class="st5" width="21.7" height="19.5"/>
		<rect x="1332.8" y="205.3" class="st5" width="2.1" height="116.7"/>
	</g>
	<g>
		<rect x="1379" y="150" class="st5" width="21.7" height="37.7"/>
		<rect x="1388.8" y="131.3" class="st5" width="2.1" height="70.5"/>
	</g>
	<g>
		<rect x="1349.3" y="207.2" class="st5" width="21.7" height="17.5"/>
		<rect x="1359.1" y="182.7" class="st5" width="2.1" height="92.9"/>
	</g>
	<g>
		<rect x="1109" y="356.2" class="st5" width="21.7" height="64.1"/>
		<rect x="1118.8" y="348.8" class="st5" width="2.1" height="84.6"/>
	</g>
	<g>
		<rect x="1243.2" y="265.4" class="st5" width="21.7" height="51.5"/>
		<rect x="1253" y="229.1" class="st5" width="2.1" height="73.9"/>
	</g>
	<g>
		<rect x="1136" y="326.6" class="st5" width="21.7" height="63"/>
		<rect x="1145.8" y="297.7" class="st5" width="2.1" height="120.8"/>
	</g>
	<g>
		<rect x="1189.1" y="309.2" class="st5" width="21.7" height="63"/>
		<rect x="1199" y="254.4" class="st5" width="2.1" height="112.2"/>
	</g>
	<g>
		<rect x="1270" y="201.7" class="st6" width="21.7" height="78.6"/>
		<rect x="1279.7" y="196.7" class="st6" width="2.1" height="89.4"/>
	</g>
	<g>
		<rect x="892.5" y="392.2" class="st5" width="21.7" height="49.7"/>
		<rect x="902.2" y="354.5" class="st5" width="2.1" height="124.1"/>
	</g>
	<g>
		<rect x="649.8" y="604" class="st5" width="21.7" height="31.5"/>
		<rect x="659.6" y="581.5" class="st5" width="2.1" height="61.8"/>
	</g>
	<g>
		<rect x="353" y="637.3" class="st5" width="21.7" height="104.3"/>
		<rect x="362.8" y="591.8" class="st5" width="2.1" height="159.3"/>
	</g>
</g>
<circle class="st7" cx="281.1" cy="751.1" r="88.5"/>
<g class="st0">
	<path class="st1" d="M274,759.7c3,1,6.3,2.2,8.3,3.1l-3.6,1.6c-1.7-0.9-4.9-2.3-8-3.3l2.3-1.5H265l2.5,1.1
		c-2.4,1.5-6.1,2.9-9.1,3.7c-0.5-0.6-1.8-1.9-2.5-2.5c2.8-0.5,5.9-1.5,7.9-2.4h-4.4v-12.5h19.4v12.5L274,759.7L274,759.7z
		 M280.3,746.2h-22.5v-7h22.5V746.2z M264.4,741.7H261v2h3.4V741.7z M262.9,750.8h12.5v-1.4h-12.5V750.8z M262.9,754.3h12.5v-1.5
		h-12.5V754.3z M262.9,757.7h12.5v-1.5h-12.5V757.7z M270.7,741.7h-3.5v2h3.5V741.7z M277,741.7h-3.5v2h3.5V741.7z"/>
	<path class="st1" d="M292.5,752c-0.4,2.4-0.9,4.4-1.6,6.2c1.7,2.6,4.8,3,9.3,3c3,0,7.7-0.2,10.9-0.5c-0.5,0.6-0.9,2.2-1.1,3.1
		c-2.9,0.2-6.5,0.3-9.8,0.3c-5.1,0-8.4-0.5-10.5-3.4c-1,1.6-2.3,2.9-3.6,3.8c-0.5-0.6-1.5-1.8-2.2-2.3c2.6-1.5,4.5-4.4,5.4-8.2h-2.4
		c-0.6,0-1.5,0.2-1.7,0.5c-0.2-0.6-0.7-2.1-1.1-2.7c0.5-0.1,0.9-0.4,1.5-0.9s1.7-2.1,2.7-3.5h-3.6v-2.7h5.7l0.4-0.2l2.1,0.9
		l-0.2,0.3c1.6-2.1,3.1-4.7,4-7.5l2.7,0.7c-0.5,1.2-0.9,2.4-1.5,3.5h4.3c-0.4-1.1-0.9-2.3-1.4-3.4l2.7-0.7c0.7,1.3,1.5,2.9,1.8,4.1
		h4.5v2.6H304v1.9h4.6v2.5H304v1.9h4.7v2.5H304v2h6.2v2.8h-15.9v-10.7c-0.5,0.7-1.1,1.4-1.6,1.9c-0.3-0.6-1-1.8-1.5-2.5
		c-0.9,1.3-2,2.8-2.9,4h2.1l0.5-0.1L292.5,752z M289,744.1c-0.8-1.2-2.5-3.2-3.7-4.5l2.5-1.5c1.4,1.4,2.9,3.1,3.8,4.3L289,744.1z
		 M301.1,745.2h-3.8v1.9h3.8V745.2z M301.1,749.7h-3.8v1.9h3.8V749.7z M301.1,754.1h-3.8v2h3.8V754.1z"/>
</g>
<circle class="st7" cx="581.3" cy="600.9" r="82.7"/>
<g class="st0">
	<path class="st1" d="M538.2,600.5c-0.3,0.3-0.5,0.5-0.7,0.7c-0.3-0.3-0.8-0.9-1.4-1.5c0.3,1.6,0.4,3.4,0.4,5c0,3.8-0.3,7.6-1.5,9.4
		c-0.5,0.5-1,1-1.7,1.1c-1.1,0.3-2.3,0.3-3.6,0.2c0-1.1-0.3-2.3-0.8-3.3c1.4,0.2,2.5,0.1,3,0.1c0.4-0.1,0.6-0.2,0.8-0.5
		c0.5-0.8,0.8-3.5,0.8-6.7c-1.2,1.6-2.6,3.2-3.9,4.3c-0.4-0.8-1.2-2.1-1.8-2.8c2-1.2,4.3-3.7,5.5-6.1c-0.2-1-0.4-1.9-0.6-2.7
		c-1.1,1.1-2.1,2.1-3.2,2.9c-0.4-0.9-1.2-2.3-1.8-3c1.1-0.7,2.3-1.7,3.5-2.8c-0.6-1-1.5-2-2.6-2.9l2.2-1.8c1,0.8,1.7,1.6,2.5,2.5
		c0.6-0.8,1.2-1.6,1.6-2.4l2.4,1.6c-0.6,1.1-1.5,2.2-2.4,3.4c0.6,1.1,1,2.4,1.3,3.5c1.3-1.1,2.6-2.6,3.5-4.1l1.6,0.6v-1.4H537v-2.5
		h4.1v-1.8h2.9v5.6l1.8-0.9c0.3,0.3,0.5,0.5,0.7,0.8v-5.5h3.1v1.7h4.4v2.5h-4.4v1.5h-3c0.5,0.5,1,1.1,1.3,1.5h5v2h-5.5v0.9h4.8v1.6
		h-4.8v1h4.8v1.6h-4.8v0.9h5.8v2H541v0.5H538v-6.9H538.2z M553.5,608.8c-1.2,1.5-2.8,2.7-4.7,3.7c1.8,0.4,3.8,0.6,5.8,0.8
		c-0.6,0.6-1.5,1.8-1.9,2.5c-2.8-0.3-5.5-0.9-8-1.7c-2.5,0.7-5.2,1.3-7.8,1.6c-0.2-0.7-0.9-2-1.5-2.6c1.9-0.2,3.7-0.4,5.5-0.7
		c-1.1-0.6-2-1.3-2.8-2l1.2-0.5h-1.8v-2.4H551l0.5-0.1L553.5,608.8z M544.6,598.6h-3.5v0.9h3.5V598.6z M544.6,601.2h-3.5v1h3.5
		V601.2z M544.6,603.8h-3.5v0.9h3.5V603.8z M541.3,595.1l1,0.4c-0.3,0.5-0.5,0.8-0.8,1.3h3.2c-0.4-0.5-0.7-0.9-1.1-1.3l0.5-0.3
		L541.3,595.1L541.3,595.1z M541.6,610.1c0.9,0.5,2,1.1,3.2,1.5c1.2-0.4,2.3-0.9,3.2-1.5H541.6z"/>
	<path class="st1" d="M565.2,602.5c1.4,1.1,4.2,3.5,5,4.1l-2,2.9c-0.6-0.9-1.9-2.2-3-3.4v9.8H562v-10.2c-1.3,2.5-2.8,5-4.4,6.6
		c-0.4-1-1.2-2.5-1.7-3.3c2-2,4.1-5.2,5.4-8.2h-4.7v-3.1h5.4v-3.5c-1.6,0.3-3.3,0.5-4.7,0.7c-0.2-0.7-0.5-1.9-1-2.6
		c4.1-0.6,8.6-1.6,11.5-2.9l2.4,2.6c-1.5,0.5-3.1,1.1-4.8,1.5v4.3h4.9v3.1h-4.9L565.2,602.5L565.2,602.5z M574.7,608.7h-3.3v-15.9
		h3.3V608.7z M581.4,590v21.8c0,2-0.4,2.9-1.5,3.5c-1.2,0.5-3.1,0.6-5.6,0.6c-0.2-1-0.6-2.5-1.2-3.5c1.8,0.1,3.6,0.1,4.3,0.1
		c0.5,0,0.7-0.2,0.7-0.7V590H581.4z"/>
	<path class="st1" d="M609.3,603.6v12.3h-3.8v-1.5H586v-10.7h3.8v7.4h6V602h-8.3v-10.3h3.5v7h4.7v-9.5h3.7v9.5h4.9v-7h3.7V602h-8.6
		v8.9h6v-7.5L609.3,603.6L609.3,603.6z"/>
	<path class="st1" d="M628.1,603.6c-0.2,0.5-0.5,0.9-0.8,1.4h11.5c0,0,0,0.7-0.1,1.2c-0.4,5.5-0.8,7.8-1.6,8.6
		c-0.5,0.6-1.2,0.9-1.9,1c-0.6,0.1-1.7,0.1-2.9,0.1c-0.1-0.8-0.4-1.9-0.7-2.6c0.9,0.1,1.6,0.1,2,0.1s0.6-0.1,0.8-0.3
		c0.4-0.5,0.7-1.9,1.1-5.3h-1.1c-1.2,3.2-3.4,6.6-5.6,8.4c-0.5-0.6-1.5-1.5-2.4-1.9c2.2-1.4,4.1-3.9,5.3-6.5H630
		c-1.5,2.7-4.2,5.5-6.6,7.1c-0.5-0.6-1.5-1.5-2.2-2c2.1-1.1,4.3-3,5.8-5.2h-1.6c-1.1,1.1-2.2,2-3.4,2.8c-0.5-0.5-1.5-1.5-2.2-2
		c-2,1-4.1,2-5.8,2.9l-1.3-3.4c1-0.4,2.2-0.8,3.5-1.4v-8h-2.8v-3.2h2.8v-5.6h3.1v5.6h2.6v3.2h-2.6v6.7l2.3-1l0.6,2.5
		c1-0.9,1.9-1.9,2.6-3h-3.2V601h17.8v2.8h-11.4V603.6z M637.5,599.7H624v-9.6h13.5V599.7z M634.3,592.5H627v1.4h7.4V592.5z
		 M634.3,596H627v1.4h7.4V596z"/>
</g>
<circle class="st1" cx="690.3" cy="602.7" r="10.9"/>
<circle class="st1" cx="391.9" cy="751.1" r="10.9"/>
<path class="st1" d="M1408.1,245.4c-3-3-6.9-4.7-11.2-4.8c-3.8,0-7.5,1.3-10.5,3.7c-0.3,0.3-0.5,0.5-0.9,0.8l-89.2,87.4
	c-4.6,4.5-6,11.4-3.6,17.3c2.5,6,8.1,9.9,14.5,9.9l36.8,0.4l-1.1,98.8c-0.1,8.7,7,16,15.7,16.1l70.5,0.7c3.8,0,7.5-1.3,10.5-3.7
	c3.5-3,5.6-7.4,5.6-12l1.1-98.8l37,0.4c6.3,0.1,12.3-3.7,14.8-9.6c2.5-5.9,1.3-12.7-3.3-17.4L1408.1,245.4z M1435.3,338.1
	c-6.4-0.1-11.5,5-11.6,11.4l-1.1,103.2l-56.5-0.6l1.1-103.2c0-3-1.2-6-3.3-8.2c-2.1-2.2-5-3.5-8.1-3.5l-31.3-0.4l71.9-70.5l70.2,72
	L1435.3,338.1z"/>
<text transform="matrix(1 0 0 1 1298.7627 1100.0872)" class="st1" style="font-family:'SourceHanSansTW-Bold-B5pc-H'; font-size:31.314px;">沒想到繼續上攻</text>
<text transform="matrix(1 0 0 1 1298.7627 1145.4872)" class="st1" style="font-family:'SourceHanSansTW-Bold-B5pc-H'; font-size:31.314px;">太早出場而錯失行情!</text>
<g>
	<line class="st2" x1="678.3" y1="1735.1" x2="1523.7" y2="1735.1"/>
	<g>
		<line class="st3" x1="678.3" y1="1735.1" x2="684.3" y2="1735.1"/>
		<line class="st4" x1="696.4" y1="1735.1" x2="1511.7" y2="1735.1"/>
		<line class="st3" x1="1517.7" y1="1735.1" x2="1523.7" y2="1735.1"/>
	</g>
</g>
<g>
	<g>
		<rect x="11.7" y="1710" class="st5" width="23.9" height="78"/>
		<rect x="22.7" y="1696.9" class="st5" width="1.9" height="109.2"/>
	</g>
	<g>
		<rect x="42" y="1740.1" class="st6" width="23.9" height="42.2"/>
		<rect x="53" y="1656.4" class="st6" width="1.9" height="137.7"/>
	</g>
	<g>
		<rect x="161" y="1763.2" class="st6" width="23.9" height="47.3"/>
		<rect x="172" y="1730.1" class="st6" width="1.9" height="102.5"/>
	</g>
	<g>
		<rect x="71.5" y="1707.3" class="st6" width="23.9" height="55.7"/>
		<rect x="82.5" y="1657.9" class="st6" width="1.9" height="145.2"/>
	</g>
	<g>
		<rect x="131.2" y="1681.7" class="st6" width="23.9" height="88.6"/>
		<rect x="141.9" y="1628.4" class="st6" width="2.3" height="183.7"/>
	</g>
	<g>
		<rect x="280" y="1738.9" class="st6" width="23.9" height="54"/>
		<rect x="290.7" y="1715.8" class="st6" width="2.3" height="101.1"/>
	</g>
	<g>
		<rect x="339.7" y="1866.3" class="st6" width="23.9" height="80.5"/>
		<rect x="350.4" y="1841.7" class="st6" width="2.3" height="141.1"/>
	</g>
	<g>
		<rect x="576.5" y="1717.9" class="st6" width="23.9" height="98.4"/>
		<rect x="587.3" y="1709.8" class="st6" width="2.3" height="128.4"/>
	</g>
	<g>
		<rect x="457.5" y="1655.4" class="st6" width="23.9" height="98.4"/>
		<rect x="468.2" y="1647.4" class="st6" width="2.3" height="128.4"/>
	</g>
	<g>
		<rect x="367.8" y="1810.9" class="st6" width="23.9" height="29"/>
		<rect x="378.6" y="1785.3" class="st6" width="2.3" height="70.3"/>
	</g>
	<g>
		<rect x="427" y="1697.3" class="st6" width="23.9" height="31.3"/>
		<rect x="437.8" y="1677.3" class="st6" width="2.3" height="102"/>
	</g>
	<g>
		<rect x="695.3" y="1661.8" class="st6" width="23.9" height="31.3"/>
		<rect x="706.1" y="1631.6" class="st6" width="2.3" height="147.5"/>
	</g>
	<g>
		<rect x="783.8" y="1581" class="st6" width="23.9" height="42.9"/>
		<rect x="794.6" y="1550" class="st6" width="2.3" height="93.6"/>
	</g>
	<g>
		<rect x="932.8" y="1507.3" class="st6" width="23.9" height="54.4"/>
		<rect x="943.6" y="1481.2" class="st6" width="2.3" height="119.5"/>
	</g>
	<g>
		<rect x="1019.8" y="1510.4" class="st6" width="23.9" height="46.5"/>
		<rect x="1030.5" y="1436.6" class="st6" width="2.3" height="154.6"/>
	</g>
	<g>
		<rect x="1199.1" y="1387.2" class="st6" width="23.9" height="52.1"/>
		<rect x="1209.9" y="1369.8" class="st6" width="2.3" height="134.7"/>
	</g>
	<g>
		<rect x="1258.2" y="1380.2" class="st6" width="23.9" height="109.3"/>
		<rect x="1269" y="1373.2" class="st6" width="2.3" height="124.3"/>
	</g>
	<g>
		<rect x="1347.3" y="1280.7" class="st5" width="23.9" height="106.1"/>
		<rect x="1358.1" y="1275.2" class="st5" width="2.3" height="117.9"/>
	</g>
	<g>
		<rect x="1469.4" y="1209.2" class="st6" width="23.9" height="162.2"/>
		<rect x="1480.2" y="1176.5" class="st6" width="2.3" height="231.1"/>
	</g>
	<g>
		<rect x="962.2" y="1442.4" class="st6" width="23.9" height="106"/>
		<rect x="973" y="1404.8" class="st6" width="2.3" height="182.4"/>
	</g>
	<g>
		<rect x="842" y="1550.9" class="st6" width="23.9" height="30.1"/>
		<rect x="852.8" y="1515.2" class="st6" width="2.3" height="79.6"/>
	</g>
	<g>
		<rect x="753.8" y="1575.5" class="st6" width="23.9" height="86.4"/>
		<rect x="764.5" y="1515.7" class="st6" width="2.3" height="173.4"/>
	</g>
	<g>
		<rect x="486.8" y="1680" class="st6" width="23.9" height="110.3"/>
		<rect x="497.6" y="1667.2" class="st6" width="2.3" height="145.5"/>
	</g>
	<g>
		<rect x="813.7" y="1592" class="st6" width="23.9" height="8.9"/>
		<rect x="824.4" y="1557.4" class="st6" width="2.3" height="78.1"/>
	</g>
	<g>
		<rect x="397.8" y="1783.4" class="st6" width="23.9" height="56.6"/>
		<rect x="408.6" y="1759.8" class="st6" width="2.3" height="96.1"/>
	</g>
	<g>
		<rect x="190" y="1741" class="st6" width="23.9" height="29"/>
		<rect x="200.8" y="1715.4" class="st6" width="2.3" height="70.3"/>
	</g>
	<g>
		<rect x="220" y="1713.5" class="st6" width="23.9" height="56.6"/>
		<rect x="230.8" y="1689.8" class="st6" width="2.3" height="96.1"/>
	</g>
	<g>
		<rect x="101" y="1682.9" class="st5" width="23.9" height="79.5"/>
		<rect x="112" y="1619.6" class="st5" width="1.9" height="175.8"/>
	</g>
	<g>
		<rect x="249" y="1665.5" class="st5" width="23.9" height="105.1"/>
		<rect x="260" y="1649.7" class="st5" width="1.9" height="152.3"/>
	</g>
	<g>
		<rect x="517.1" y="1687.4" class="st5" width="23.9" height="105.1"/>
		<rect x="527.9" y="1677.7" class="st5" width="2.3" height="122.4"/>
	</g>
	<g>
		<rect x="1050.2" y="1545.8" class="st6" width="23.9" height="98.4"/>
		<rect x="1061" y="1537.8" class="st6" width="2.3" height="128.4"/>
	</g>
	<g>
		<rect x="1079.6" y="1495.6" class="st6" width="23.9" height="110.3"/>
		<rect x="1090.3" y="1482.8" class="st6" width="2.3" height="145.5"/>
	</g>
	<g>
		<rect x="1109.9" y="1505.9" class="st5" width="23.9" height="105.1"/>
		<rect x="1120.6" y="1496.2" class="st5" width="2.3" height="122.4"/>
	</g>
	<g>
		<rect x="546.8" y="1741" class="st5" width="23.9" height="77.1"/>
		<rect x="557.6" y="1706.4" class="st5" width="2.3" height="119.4"/>
	</g>
	<g>
		<rect x="605" y="1685.6" class="st5" width="23.9" height="64.5"/>
		<rect x="615.8" y="1658.7" class="st5" width="2.3" height="110.4"/>
	</g>
	<g>
		<rect x="723.8" y="1623" class="st5" width="23.9" height="79.8"/>
		<rect x="734.5" y="1606.4" class="st5" width="2.3" height="115.4"/>
	</g>
	<g>
		<rect x="667.7" y="1678.4" class="st5" width="23.9" height="136"/>
		<rect x="678.5" y="1665.3" class="st5" width="2.3" height="168.4"/>
	</g>
	<g>
		<rect x="870.9" y="1551.5" class="st5" width="23.9" height="43.7"/>
		<rect x="881.7" y="1537.8" class="st5" width="2.3" height="114"/>
	</g>
	<g>
		<rect x="991.2" y="1556.9" class="st5" width="23.9" height="21.5"/>
		<rect x="1002" y="1487.1" class="st5" width="2.3" height="124.9"/>
	</g>
	<g>
		<rect x="1375.7" y="1340.6" class="st5" width="23.9" height="21.5"/>
		<rect x="1386.5" y="1300" class="st5" width="2.3" height="128.4"/>
	</g>
	<g>
		<rect x="1437.4" y="1239.2" class="st5" width="23.9" height="41.5"/>
		<rect x="1448.1" y="1218.7" class="st5" width="2.3" height="77.5"/>
	</g>
	<g>
		<rect x="1404.7" y="1302.1" class="st5" width="23.9" height="19.3"/>
		<rect x="1415.5" y="1275.2" class="st5" width="2.3" height="102.2"/>
	</g>
	<g>
		<rect x="1140.3" y="1466" class="st5" width="23.9" height="70.5"/>
		<rect x="1151.1" y="1457.9" class="st5" width="2.3" height="93.1"/>
	</g>
	<g>
		<rect x="1288" y="1366.1" class="st5" width="23.9" height="56.6"/>
		<rect x="1298.8" y="1326.3" class="st5" width="2.3" height="81.3"/>
	</g>
	<g>
		<rect x="1170" y="1433.5" class="st5" width="23.9" height="69.3"/>
		<rect x="1180.8" y="1401.8" class="st5" width="2.3" height="132.9"/>
	</g>
	<g>
		<rect x="1228.5" y="1414.3" class="st5" width="23.9" height="69.3"/>
		<rect x="1239.3" y="1354" class="st5" width="2.3" height="123.4"/>
	</g>
	<g>
		<rect x="1317.4" y="1296.1" class="st6" width="23.9" height="86.5"/>
		<rect x="1328.1" y="1290.7" class="st6" width="2.3" height="98.3"/>
	</g>
	<g>
		<rect x="902.2" y="1505.6" class="st5" width="23.9" height="54.7"/>
		<rect x="912.9" y="1464.1" class="st5" width="2.3" height="136.5"/>
	</g>
	<g>
		<rect x="635.2" y="1738.7" class="st5" width="23.9" height="34.7"/>
		<rect x="646" y="1713.9" class="st5" width="2.3" height="68"/>
	</g>
	<g>
		<rect x="308.8" y="1775.2" class="st5" width="23.9" height="114.7"/>
		<rect x="319.5" y="1725.2" class="st5" width="2.3" height="175.2"/>
	</g>
</g>
<circle class="st7" cx="229.7" cy="1900.4" r="97.3"/>
<text transform="matrix(1 0 0 1 200.7891 1912.4619)" class="st1" style="font-family:'SourceHanSansTC-Bold-B5pc-H'; font-size:31.2122px;">買進</text>
<circle class="st7" cx="559.9" cy="1735.2" r="91"/>
<text transform="matrix(1 0 0 1 499.9507 1749.0332)" class="st1" style="font-family:'SourceHanSansTC-Bold-B5pc-H'; font-size:31.2122px;">獲利出場</text>
<circle class="st1" cx="679.8" cy="1737.3" r="12"/>
<circle class="st1" cx="351.5" cy="1900.4" r="12"/>
<path class="st1" d="M1469.4,1344.1c-3.3-3.3-7.6-5.2-12.3-5.3c-4.2,0-8.3,1.4-11.5,4.1c-0.3,0.3-0.6,0.5-1,0.9l-98.1,96.1
	c-5.1,5-6.6,12.5-4,19c2.7,6.6,8.9,10.9,16,10.9l40.5,0.4l-1.2,108.7c-0.1,9.6,7.7,17.6,17.3,17.7l77.6,0.8c4.2,0,8.3-1.4,11.5-4.1
	c3.9-3.3,6.2-8.1,6.2-13.2l1.2-108.7l40.7,0.4c6.9,0.1,13.5-4.1,16.3-10.6s1.4-14-3.6-19.1L1469.4,1344.1z M1499.3,1446.2
	c-7-0.1-12.7,5.5-12.8,12.5l-1.2,113.5l-62.1-0.7l1.2-113.5c0-3.3-1.3-6.6-3.6-9c-2.3-2.4-5.5-3.8-8.9-3.8l-34.4-0.4l79.1-77.5
	l77.2,79.2L1499.3,1446.2z"/>
</svg>
