<?xml version="1.0" encoding="utf-8"?>
<!-- Generator: Adobe Illustrator 27.8.1, SVG Export Plug-In . SVG Version: 6.00 Build 0)  -->
<svg version="1.1" id="Stock_graph_technology" xmlns="http://www.w3.org/2000/svg" xmlns:xlink="http://www.w3.org/1999/xlink"
	 x="0px" y="0px" viewBox="0 0 1600 947.9" style="enable-background:new 0 0 1600 947.9;" xml:space="preserve">
<style type="text/css">
	.st0{fill:none;stroke:#FFFFFF;stroke-width:25;stroke-linecap:round;stroke-linejoin:round;stroke-miterlimit:10;}
	.st1{fill:none;stroke:#FFFFFF;stroke-width:36;stroke-linecap:round;stroke-linejoin:round;stroke-miterlimit:10;}
	.st2{opacity:0.73;fill:none;stroke:#FFFFFF;stroke-width:25;stroke-linecap:round;stroke-linejoin:round;stroke-miterlimit:10;}
	.st3{opacity:0.44;fill:none;stroke:#FFFFFF;stroke-width:25;stroke-linecap:round;stroke-linejoin:round;stroke-miterlimit:10;}
	.st4{opacity:0.16;fill:none;stroke:#FFFFFF;stroke-width:25;stroke-linecap:round;stroke-linejoin:round;stroke-miterlimit:10;}
	.st5{opacity:0.54;fill:none;stroke:#FFFFFF;stroke-width:25;stroke-linecap:round;stroke-linejoin:round;stroke-miterlimit:10;}
	.st6{opacity:0.82;fill:none;stroke:#FFFFFF;stroke-width:25;stroke-linecap:round;stroke-linejoin:round;stroke-miterlimit:10;}
	.st7{opacity:0.23;fill:none;stroke:#FFFFFF;stroke-width:25;stroke-linecap:round;stroke-linejoin:round;stroke-miterlimit:10;}
	
		.st8{fill:none;stroke:#FFFFFF;stroke-width:25;stroke-linecap:round;stroke-linejoin:round;stroke-miterlimit:10;stroke-dasharray:0.388,5.3381;}
	.st9{fill:#EA6100;}
	.st10{enable-background:new    ;}
	.st11{fill:#FFFFFF;}
</style>
<path class="st0" d="M353.4,853.6c-22.6-5.3-45.1-12.9-67-23c-175.8-80.9-252.7-289-171.8-464.7c80.9-175.8,289-252.7,464.7-171.8
	C750.8,273,828.1,472.9,756.9,645.7"/>
<path class="st0" d="M636.1,797.7c-19,13.5-39.5,25.2-61.6,35c-177,78.2-383.8-2-462-179c-78.2-177,2-383.8,179-462
	c172.6-76.2,373.6-1.9,456,166"/>
<polyline class="st0" points="726.7,591.7 756.9,653.1 817.7,621.9 "/>
<line class="st0" x1="432.9" y1="217.7" x2="432.9" y2="233.1"/>
<line class="st1" x1="432.9" y1="783.3" x2="432.9" y2="798.7"/>
<line class="st0" x1="142.4" y1="501.2" x2="157.8" y2="501.2"/>
<line class="st0" x1="708" y1="501.2" x2="723.4" y2="501.2"/>
<line class="st0" x1="287.6" y1="256.6" x2="295.4" y2="270"/>
<line class="st0" x1="181.3" y1="653.4" x2="194.7" y2="645.7"/>
<line class="st0" x1="671.1" y1="370.6" x2="684.5" y2="362.9"/>
<line class="st0" x1="578.2" y1="256.6" x2="570.4" y2="270"/>
<line class="st0" x1="295.4" y1="746.4" x2="287.6" y2="759.8"/>
<line class="st0" x1="570.5" y1="746.4" x2="578.2" y2="759.8"/>
<line class="st0" x1="181.3" y1="362.9" x2="194.7" y2="370.6"/>
<line class="st0" x1="671.1" y1="645.7" x2="684.5" y2="653.4"/>
<polyline class="st0" points="323.9,510.2 436,510.9 436,288.8 "/>
<polyline class="st0" points="323.9,510.2 436,510.9 436,288.8 "/>
<line class="st2" x1="628.8" y1="399.8" x2="434.6" y2="507.6"/>
<line class="st3" x1="624.2" y1="623.9" x2="432.2" y2="512.2"/>
<line class="st4" x1="432.2" y1="732.9" x2="433.6" y2="510.9"/>
<line class="st5" x1="654.2" y1="504.6" x2="432.2" y2="509.9"/>
<line class="st6" x1="550.6" y1="313.4" x2="436" y2="503.6"/>
<line class="st7" x1="543.2" y1="700.3" x2="429" y2="509.9"/>
<line class="st8" x1="682.2" y1="763.8" x2="675.8" y2="769"/>
<line class="st8" x1="727.7" y1="711.9" x2="722.9" y2="718.7"/>
<circle class="st9" cx="431.1" cy="134.3" r="74.6"/>
<g class="st10">
	<path class="st11" d="M413.1,120v6.2l0.8-0.9c4.2,2.1,10.4,5.5,13.4,7.9l-3.5,4.3c-2.3-2-6.8-4.9-10.7-7.2V149h-5v-29h-14.2v-4.7
		H429v4.7H413.1z"/>
	<path class="st11" d="M468.3,144.1H453v5h-4.8v-5h-15v-4h15v-2H437v-14.8h27.9v14.8H453v2h15.3V144.1z M449.6,121.8h-14v-7.9h14
		V121.8z M445.3,116.7h-5.5v2.3h5.5V116.7z M441.6,129h6.7v-2.1h-6.7V129z M448.2,134.5v-2.1h-6.7v2.1H448.2z M466.1,121.8H452v-7.9
		h14.1V121.8z M460.1,126.9H453v2.1h7.1V126.9z M460.1,132.3H453v2.1h7.1V132.3z M461.8,116.7h-5.6v2.3h5.6V116.7z"/>
</g>
<circle class="st9" cx="431.1" cy="873.3" r="74.6"/>
<g class="st10">
	<path class="st11" d="M413.1,858.9v6.2l0.8-0.9c4.2,2.1,10.4,5.5,13.4,7.9l-3.5,4.3c-2.3-2-6.8-4.9-10.7-7.2V888h-5v-29h-14.2v-4.7
		H429v4.7H413.1z"/>
	<path class="st11" d="M468.3,883.1H453v5h-4.8v-5h-15v-4h15v-2H437v-14.8h27.9V877H453v2h15.3V883.1z M449.6,860.8h-14v-7.9h14
		V860.8z M445.3,855.7h-5.5v2.3h5.5V855.7z M441.6,868h6.7v-2.1h-6.7V868z M448.2,873.5v-2.1h-6.7v2.1H448.2z M466.1,860.8H452v-7.9
		h14.1V860.8z M460.1,865.9H453v2.1h7.1V865.9z M460.1,871.3H453v2.1h7.1V871.3z M461.8,855.7h-5.6v2.3h5.6V855.7z"/>
</g>
<path class="st0" d="M353.4,1938.9c-22.6-5.3-45.1-12.9-67-23c-175.8-80.9-252.7-289-171.8-464.7c80.9-175.8,289-252.7,464.7-171.8
	c171.4,78.9,248.7,278.8,177.5,451.6"/>
<path class="st0" d="M636.1,1883c-19,13.5-39.5,25.2-61.6,35c-177,78.2-383.8-2-462-179c-78.2-177,2-383.8,179-462
	c172.6-76.2,373.6-1.9,456,166"/>
<polyline class="st0" points="726.7,1677 756.9,1738.4 817.7,1707.2 "/>
<line class="st0" x1="432.9" y1="1303" x2="432.9" y2="1318.4"/>
<line class="st1" x1="432.9" y1="1868.6" x2="432.9" y2="1884"/>
<line class="st0" x1="142.4" y1="1586.5" x2="157.8" y2="1586.5"/>
<line class="st0" x1="708" y1="1586.5" x2="723.4" y2="1586.5"/>
<line class="st0" x1="287.6" y1="1341.9" x2="295.4" y2="1355.3"/>
<line class="st0" x1="181.3" y1="1738.8" x2="194.7" y2="1731"/>
<line class="st0" x1="671.1" y1="1455.9" x2="684.5" y2="1448.2"/>
<line class="st0" x1="578.2" y1="1341.9" x2="570.4" y2="1355.3"/>
<line class="st0" x1="295.4" y1="1831.7" x2="287.6" y2="1845.1"/>
<line class="st0" x1="570.5" y1="1831.7" x2="578.2" y2="1845.1"/>
<line class="st0" x1="181.3" y1="1448.2" x2="194.7" y2="1455.9"/>
<line class="st0" x1="671.1" y1="1731" x2="684.5" y2="1738.8"/>
<polyline class="st0" points="323.9,1595.5 436,1596.2 436,1374.1 "/>
<polyline class="st0" points="323.9,1595.5 436,1596.2 436,1374.1 "/>
<line class="st2" x1="628.8" y1="1485.1" x2="434.6" y2="1592.9"/>
<line class="st3" x1="624.2" y1="1709.2" x2="432.2" y2="1597.5"/>
<line class="st4" x1="432.2" y1="1818.2" x2="433.6" y2="1596.2"/>
<line class="st5" x1="654.2" y1="1589.9" x2="432.2" y2="1595.2"/>
<line class="st6" x1="550.6" y1="1398.7" x2="436" y2="1588.9"/>
<line class="st7" x1="543.2" y1="1785.6" x2="429" y2="1595.2"/>
<line class="st8" x1="682.2" y1="1849.1" x2="675.8" y2="1854.3"/>
<line class="st8" x1="727.7" y1="1797.2" x2="722.9" y2="1804"/>
<circle class="st9" cx="431.1" cy="1219.6" r="74.6"/>
<text transform="matrix(1 0 0 1 391.7299 1230.9889)" class="st11" style="font-family:'SourceHanSansTC-Bold-B5pc-H'; font-size:39.3565px;">下單</text>
<circle class="st9" cx="431.1" cy="1958.6" r="74.6"/>
<text transform="matrix(1 0 0 1 391.7299 1969.9801)" class="st11" style="font-family:'SourceHanSansTC-Bold-B5pc-H'; font-size:39.3565px;">下單</text>
</svg>
