<?xml version="1.0" encoding="utf-8"?>
<!-- Generator: Adobe Illustrator 27.8.1, SVG Export Plug-In . SVG Version: 6.00 Build 0)  -->
<svg version="1.1" id="Stock_graph_technology" xmlns="http://www.w3.org/2000/svg" xmlns:xlink="http://www.w3.org/1999/xlink"
	 x="0px" y="0px" viewBox="0 0 1627.1 990.7" style="enable-background:new 0 0 1627.1 990.7;" xml:space="preserve">
<style type="text/css">
	.st0{fill:#DD0A00;}
	.st1{fill:#2BB573;}
	.st2{fill:#EA6100;}
	.st3{enable-background:new    ;}
	.st4{fill:#FFFFFF;}
	.st5{fill:none;stroke:#EA6100;stroke-width:12;stroke-linecap:round;stroke-linejoin:round;stroke-miterlimit:10;}
</style>
<g>
	<g>
		<rect x="824.2" y="2037.5" class="st0" width="28.4" height="14.6"/>
	</g>
	<g>
		<rect x="858.7" y="2039.4" class="st1" width="28.4" height="12.9"/>
	</g>
	<g>
		<rect x="755.7" y="2039.4" class="st1" width="28.4" height="12.9"/>
	</g>
	<g>
		<rect x="790" y="2039.4" class="st1" width="28.4" height="12.9"/>
	</g>
	<g>
		<rect x="687" y="2039.4" class="st0" width="28.4" height="12.9"/>
	</g>
	<g>
		<rect x="721.4" y="2041" class="st1" width="28.4" height="11.3"/>
	</g>
	<g>
		<rect x="618.4" y="2039.4" class="st1" width="28.4" height="12.9"/>
	</g>
	<g>
		<rect x="652.9" y="2041" class="st0" width="28.4" height="11.3"/>
	</g>
	<g>
		<rect x="549.9" y="2045.7" class="st1" width="28.4" height="6.4"/>
	</g>
	<g>
		<rect x="584.2" y="2046.6" class="st1" width="28.4" height="5.6"/>
	</g>
	<g>
		<rect x="481.2" y="2045.7" class="st1" width="28.4" height="6.4"/>
	</g>
	<g>
		<rect x="515.6" y="2046.6" class="st0" width="28.4" height="5.6"/>
	</g>
	<g>
		<rect x="412.7" y="2045.7" class="st1" width="28.4" height="6.4"/>
	</g>
	<g>
		<rect x="447.1" y="2046.6" class="st0" width="28.4" height="5.6"/>
	</g>
	<g>
		<rect x="344.1" y="2052.1" class="st1" width="28.4" height="6.1"/>
	</g>
	<g>
		<rect x="378.6" y="2052.1" class="st1" width="28.4" height="5.3"/>
	</g>
	<g>
		<rect x="275.5" y="2052.1" class="st1" width="28.4" height="6.1"/>
	</g>
	<g>
		<rect x="309.8" y="2052.1" class="st1" width="28.4" height="5.3"/>
	</g>
	<g>
		<rect x="206.9" y="2052.1" class="st0" width="28.4" height="6.1"/>
	</g>
	<g>
		<rect x="241.3" y="2052.1" class="st0" width="28.4" height="5.3"/>
	</g>
	<g>
		<rect x="138.4" y="2052.1" class="st1" width="28.4" height="6.1"/>
	</g>
	<g>
		<rect x="172.8" y="2052.1" class="st1" width="28.4" height="5.3"/>
	</g>
	<g>
		<rect x="69.7" y="2052.1" class="st1" width="28.4" height="14"/>
	</g>
	<g>
		<rect x="104.2" y="2052.1" class="st1" width="28.4" height="12.1"/>
	</g>
	<g>
		<rect x="1.1" y="2042.3" class="st1" width="28.4" height="9.9"/>
	</g>
	<g>
		<rect x="35.5" y="2043.4" class="st0" width="28.4" height="8.7"/>
	</g>
	<g>
		<rect x="1377.6" y="1824.7" class="st0" width="28.4" height="227.4"/>
	</g>
	<g>
		<rect x="1412.1" y="1852.6" class="st1" width="28.4" height="199.7"/>
	</g>
	<g>
		<rect x="1309.1" y="1879.7" class="st0" width="28.4" height="172.5"/>
	</g>
	<g>
		<rect x="1343.5" y="1914.6" class="st1" width="28.4" height="137.6"/>
	</g>
	<g>
		<rect x="1240.6" y="1983.1" class="st1" width="28.4" height="68.9"/>
	</g>
	<g>
		<rect x="1274.9" y="1991.6" class="st1" width="28.4" height="60.5"/>
	</g>
	<g>
		<rect x="1171.8" y="1963.2" class="st0" width="28.4" height="89"/>
	</g>
	<g>
		<rect x="1206.3" y="1974" class="st1" width="28.4" height="78.1"/>
	</g>
	<g>
		<rect x="1103.3" y="1993.2" class="st0" width="28.4" height="59.1"/>
	</g>
	<g>
		<rect x="1137.8" y="2000.4" class="st1" width="28.4" height="51.8"/>
	</g>
	<g>
		<rect x="1034.8" y="2037.5" class="st1" width="28.4" height="14.6"/>
	</g>
	<g>
		<rect x="1069.2" y="2039.4" class="st1" width="28.4" height="12.9"/>
	</g>
	<g>
		<rect x="966.2" y="2037.5" class="st0" width="28.4" height="14.6"/>
	</g>
	<g>
		<rect x="1000.5" y="2039.4" class="st1" width="28.4" height="12.9"/>
	</g>
	<g>
		<rect x="897.5" y="2037.5" class="st1" width="28.4" height="14.6"/>
	</g>
	<g>
		<rect x="932" y="2039.4" class="st0" width="28.4" height="12.9"/>
	</g>
</g>
<g id="Candle_00000178907639418626328280000018315277135354778539_">
	<g>
		<rect x="101.3" y="1440.8" class="st0" width="20.7" height="258"/>
		<rect x="111" y="1397.4" class="st0" width="1.6" height="361.2"/>
	</g>
	<g>
		<rect x="127.7" y="1639.6" class="st1" width="20.7" height="36.5"/>
		<rect x="137.2" y="1567" class="st1" width="1.6" height="119.3"/>
	</g>
	<g>
		<rect x="230.9" y="1637.4" class="st1" width="20.7" height="40.9"/>
		<rect x="240.3" y="1608.7" class="st1" width="1.6" height="88.9"/>
	</g>
	<g>
		<rect x="153.2" y="1663.7" class="st1" width="20.7" height="107.5"/>
		<rect x="162.9" y="1568.4" class="st1" width="1.6" height="280.2"/>
	</g>
	<g>
		<rect x="204.9" y="1753.2" class="st1" width="20.7" height="107.5"/>
		<rect x="214.3" y="1688.5" class="st1" width="2.1" height="222.9"/>
	</g>
	<g>
		<rect x="333.8" y="1585.1" class="st1" width="20.7" height="46.8"/>
		<rect x="343.3" y="1565.1" class="st1" width="2.1" height="87.6"/>
	</g>
	<g>
		<rect x="385.6" y="1662.9" class="st1" width="20.7" height="85.2"/>
		<rect x="394.9" y="1655.9" class="st1" width="2.1" height="149.3"/>
	</g>
	<g>
		<rect x="590.6" y="1544.7" class="st1" width="20.7" height="85.2"/>
		<rect x="599.8" y="1537.7" class="st1" width="2.1" height="149.3"/>
	</g>
	<g>
		<rect x="410.1" y="1669.9" class="st1" width="20.7" height="30.6"/>
		<rect x="419.3" y="1642.7" class="st1" width="2.1" height="74.4"/>
	</g>
	<g>
		<rect x="461.3" y="1553.8" class="st1" width="20.7" height="27.1"/>
		<rect x="470.6" y="1536.5" class="st1" width="2.1" height="88.4"/>
	</g>
	<g>
		<rect x="693.5" y="1737.9" class="st1" width="20.7" height="27.1"/>
		<rect x="702.8" y="1711.7" class="st1" width="2.1" height="127.8"/>
	</g>
	<g>
		<rect x="770.1" y="1601.8" class="st1" width="20.7" height="37.1"/>
		<rect x="779.5" y="1574.9" class="st1" width="2.1" height="81"/>
	</g>
	<g>
		<rect x="899.2" y="1632.4" class="st1" width="20.7" height="47.1"/>
		<rect x="908.6" y="1609.7" class="st1" width="2.1" height="103.4"/>
	</g>
	<g>
		<rect x="974.6" y="1420.7" class="st1" width="20.7" height="40.3"/>
		<rect x="983.9" y="1356.8" class="st1" width="2.1" height="133.8"/>
	</g>
	<g>
		<rect x="1000.7" y="1414.6" class="st1" width="20.7" height="53.1"/>
		<rect x="1010.2" y="1387.6" class="st1" width="2.1" height="117.7"/>
	</g>
	<g>
		<rect x="1129.9" y="1438.5" class="st1" width="20.7" height="59.8"/>
		<rect x="1139.2" y="1418.6" class="st1" width="2.1" height="154.4"/>
	</g>
	<g>
		<rect x="1181.1" y="1376.7" class="st1" width="20.7" height="125.4"/>
		<rect x="1190.5" y="1368.7" class="st1" width="2.1" height="142.7"/>
	</g>
	<g>
		<rect x="1258.2" y="1223.1" class="st0" width="20.7" height="155.3"/>
		<rect x="1267.7" y="1215.2" class="st0" width="2.1" height="172.5"/>
	</g>
	<g>
		<rect x="1364" y="1115.5" class="st1" width="20.7" height="140.5"/>
		<rect x="1373.5" y="1087.2" class="st1" width="2.1" height="200.3"/>
	</g>
	<g>
		<rect x="1026.6" y="1461.6" class="st1" width="20.7" height="21.2"/>
		<rect x="1035.9" y="1444" class="st1" width="2.1" height="64.7"/>
	</g>
	<g>
		<rect x="924.7" y="1463.2" class="st1" width="20.7" height="182.9"/>
		<rect x="933.9" y="1398.4" class="st1" width="2.1" height="314.8"/>
	</g>
	<g>
		<rect x="820.6" y="1575.6" class="st1" width="20.7" height="26"/>
		<rect x="829.9" y="1544.7" class="st1" width="2.1" height="68.9"/>
	</g>
	<g>
		<rect x="744.2" y="1663.1" class="st1" width="20.7" height="74.8"/>
		<rect x="753.4" y="1611.3" class="st1" width="2.1" height="150.1"/>
	</g>
	<g>
		<rect x="512.9" y="1434.2" class="st1" width="20.7" height="95.5"/>
		<rect x="522.2" y="1485.3" class="st1" width="2.1" height="126"/>
	</g>
	<g>
		<rect x="487.2" y="1543.3" class="st1" width="20.7" height="3.9"/>
		<rect x="496.6" y="1509.4" class="st1" width="2.1" height="90.9"/>
	</g>
	<g>
		<rect x="796" y="1611.3" class="st1" width="20.7" height="7.7"/>
		<rect x="805.4" y="1581.4" class="st1" width="2.1" height="67.7"/>
	</g>
	<g>
		<rect x="435.9" y="1628.4" class="st1" width="20.7" height="49"/>
		<rect x="445.4" y="1608" class="st1" width="2.1" height="83.3"/>
	</g>
	<g>
		<rect x="178.9" y="1704.3" class="st0" width="20.7" height="90.9"/>
		<rect x="188.5" y="1631.8" class="st0" width="1.6" height="201.4"/>
	</g>
	<g>
		<rect x="307" y="1521.3" class="st0" width="20.7" height="90.9"/>
		<rect x="316.6" y="1507.7" class="st0" width="1.6" height="132"/>
	</g>
	<g>
		<rect x="539.1" y="1440.7" class="st0" width="20.7" height="90.9"/>
		<rect x="548.5" y="1432.2" class="st0" width="2.1" height="106"/>
	</g>
	<g>
		<rect x="564.9" y="1516.2" class="st0" width="20.7" height="66.8"/>
		<rect x="574.2" y="1486.1" class="st0" width="2.1" height="103.4"/>
	</g>
	<g>
		<rect x="615.3" y="1589.6" class="st0" width="20.7" height="55.8"/>
		<rect x="624.6" y="1566.3" class="st0" width="2.1" height="95.6"/>
	</g>
	<g>
		<rect x="718.1" y="1704.2" class="st0" width="20.7" height="69.1"/>
		<rect x="727.4" y="1689.9" class="st0" width="2.1" height="99.9"/>
	</g>
	<g>
		<rect x="668.6" y="1645.2" class="st0" width="20.7" height="117.8"/>
		<rect x="677.9" y="1634" class="st0" width="2.1" height="197.3"/>
	</g>
	<g>
		<rect x="845.6" y="1593.3" class="st0" width="20.7" height="37.9"/>
		<rect x="855" y="1581.4" class="st0" width="2.1" height="98.7"/>
	</g>
	<g>
		<rect x="949.9" y="1461" class="st0" width="20.7" height="18.5"/>
		<rect x="959.2" y="1400.6" class="st0" width="2.1" height="108.2"/>
	</g>
	<g>
		<rect x="1231.6" y="1413.5" class="st0" width="20.7" height="18.5"/>
		<rect x="1241.1" y="1378.3" class="st0" width="2.1" height="111.2"/>
	</g>
	<g>
		<rect x="1282.9" y="1196.6" class="st0" width="20.7" height="18.5"/>
		<rect x="1292.3" y="1161.6" class="st0" width="2.1" height="111.2"/>
	</g>
	<g>
		<rect x="1336.3" y="1151.3" class="st0" width="20.7" height="35.9"/>
		<rect x="1345.6" y="1133.5" class="st0" width="2.1" height="67.2"/>
	</g>
	<g>
		<rect x="1308" y="1155" class="st0" width="20.7" height="10.8"/>
		<rect x="1317.3" y="1140" class="st0" width="2.1" height="56.6"/>
	</g>
	<g>
		<rect x="1051.7" y="1373" class="st0" width="20.7" height="18.5"/>
		<rect x="1060.9" y="1359.5" class="st0" width="2.1" height="84.6"/>
	</g>
	<g>
		<rect x="1078.9" y="1407.7" class="st0" width="20.7" height="80.9"/>
		<rect x="1088.2" y="1398.4" class="st0" width="2.1" height="106.9"/>
	</g>
	<g>
		<rect x="1205.9" y="1382.2" class="st0" width="20.7" height="65"/>
		<rect x="1215.2" y="1336.6" class="st0" width="2.1" height="93.4"/>
	</g>
	<g>
		<rect x="1104.7" y="1469" class="st0" width="20.7" height="79.4"/>
		<rect x="1114" y="1459.7" class="st0" width="2.1" height="152.5"/>
	</g>
	<g>
		<rect x="1155.4" y="1415.8" class="st0" width="20.7" height="79.4"/>
		<rect x="1164.7" y="1346.7" class="st0" width="2.1" height="141.6"/>
	</g>
	<g>
		<rect x="872.6" y="1630.9" class="st0" width="20.7" height="47.4"/>
		<rect x="882" y="1594.9" class="st0" width="2.1" height="118.3"/>
	</g>
	<g>
		<rect x="641.4" y="1641.6" class="st0" width="20.7" height="67.8"/>
		<rect x="650.7" y="1427.1" class="st0" width="2.1" height="298.7"/>
	</g>
	<g>
		<rect x="358.7" y="1626" class="st0" width="20.7" height="121.5"/>
		<rect x="368.2" y="1573.2" class="st0" width="2.1" height="185.4"/>
	</g>
	<g>
		<rect x="256.4" y="1645.9" class="st0" width="20.7" height="13.6"/>
		<rect x="265.8" y="1597.6" class="st0" width="1.6" height="130.5"/>
	</g>
	<g>
		<rect x="281.9" y="1584.4" class="st0" width="20.7" height="6.6"/>
		<rect x="291.4" y="1524.5" class="st0" width="1.6" height="83.5"/>
	</g>
</g>
<circle class="st2" cx="1532.8" cy="1169.3" r="91.6"/>
<text transform="matrix(1 0 0 1 1478.0498 1195.2751)" class="st4" style="font-family:'SourceHanSansTC-Bold-B5pc-H'; font-size:39.9632px;">$</text>
<text transform="matrix(1 0 0 1 1501.5957 1195.2751)" class="st4" style="font-family:'SourceHanSansTC-Bold-B5pc-H'; font-size:70.2056px;">54</text>
<circle class="st2" cx="1525.4" cy="1820.1" r="91.6"/>
<g>
	
		<text transform="matrix(1 0 0 1 1448.1953 1840.4719)" class="st4" style="font-family:'SourceHanSansTC-Bold-B5pc-H'; font-size:51.8406px;">1,000</text>
	
		<text transform="matrix(1 0 0 1 1448.1953 1840.4719)" class="st5" style="font-family:'SourceHanSansTC-Bold-B5pc-H'; font-size:51.8406px;">1,000</text>
	
		<text transform="matrix(1 0 0 1 1580.6992 1838.8792)" class="st4" style="font-family:'SourceHanSansTC-Bold-B5pc-H'; font-size:27.9939px;">張</text>
	
		<text transform="matrix(1 0 0 1 1580.6992 1838.8792)" class="st5" style="font-family:'SourceHanSansTC-Bold-B5pc-H'; font-size:27.9939px;">張</text>
</g>
<g>
	
		<text transform="matrix(1 0 0 1 1448.1953 1840.4719)" class="st4" style="font-family:'SourceHanSansTC-Bold-B5pc-H'; font-size:51.8406px;">1,000</text>
	
		<text transform="matrix(1 0 0 1 1580.6992 1838.8792)" class="st4" style="font-family:'SourceHanSansTC-Bold-B5pc-H'; font-size:27.9939px;">張</text>
</g>
<g>
	<g>
		<rect x="824.2" y="962.1" class="st0" width="28.4" height="14.6"/>
	</g>
	<g>
		<rect x="858.7" y="964" class="st1" width="28.4" height="12.9"/>
	</g>
	<g>
		<rect x="755.7" y="964" class="st1" width="28.4" height="12.9"/>
	</g>
	<g>
		<rect x="790" y="964" class="st1" width="28.4" height="12.9"/>
	</g>
	<g>
		<rect x="687" y="964" class="st0" width="28.4" height="12.9"/>
	</g>
	<g>
		<rect x="721.4" y="965.6" class="st1" width="28.4" height="11.3"/>
	</g>
	<g>
		<rect x="618.4" y="964" class="st1" width="28.4" height="12.9"/>
	</g>
	<g>
		<rect x="652.9" y="965.6" class="st0" width="28.4" height="11.3"/>
	</g>
	<g>
		<rect x="549.9" y="970.3" class="st1" width="28.4" height="6.4"/>
	</g>
	<g>
		<rect x="584.2" y="971.2" class="st1" width="28.4" height="5.6"/>
	</g>
	<g>
		<rect x="481.2" y="970.3" class="st1" width="28.4" height="6.4"/>
	</g>
	<g>
		<rect x="515.6" y="971.2" class="st0" width="28.4" height="5.6"/>
	</g>
	<g>
		<rect x="412.7" y="970.3" class="st1" width="28.4" height="6.4"/>
	</g>
	<g>
		<rect x="447.1" y="971.2" class="st0" width="28.4" height="5.6"/>
	</g>
	<g>
		<rect x="344.1" y="976.7" class="st1" width="28.4" height="6.1"/>
	</g>
	<g>
		<rect x="378.6" y="976.7" class="st1" width="28.4" height="5.3"/>
	</g>
	<g>
		<rect x="275.5" y="976.7" class="st1" width="28.4" height="6.1"/>
	</g>
	<g>
		<rect x="309.8" y="976.7" class="st1" width="28.4" height="5.3"/>
	</g>
	<g>
		<rect x="206.9" y="976.7" class="st0" width="28.4" height="6.1"/>
	</g>
	<g>
		<rect x="241.3" y="976.7" class="st0" width="28.4" height="5.3"/>
	</g>
	<g>
		<rect x="138.4" y="976.7" class="st1" width="28.4" height="6.1"/>
	</g>
	<g>
		<rect x="172.8" y="976.7" class="st1" width="28.4" height="5.3"/>
	</g>
	<g>
		<rect x="69.7" y="976.7" class="st1" width="28.4" height="14"/>
	</g>
	<g>
		<rect x="104.2" y="976.7" class="st1" width="28.4" height="12.1"/>
	</g>
	<g>
		<rect x="1.1" y="966.9" class="st1" width="28.4" height="9.9"/>
	</g>
	<g>
		<rect x="35.5" y="968" class="st0" width="28.4" height="8.7"/>
	</g>
	<g>
		<rect x="1377.6" y="749.3" class="st0" width="28.4" height="227.4"/>
	</g>
	<g>
		<rect x="1412.1" y="777.2" class="st1" width="28.4" height="199.7"/>
	</g>
	<g>
		<rect x="1309.1" y="804.3" class="st0" width="28.4" height="172.5"/>
	</g>
	<g>
		<rect x="1343.5" y="839.2" class="st1" width="28.4" height="137.6"/>
	</g>
	<g>
		<rect x="1240.6" y="907.7" class="st1" width="28.4" height="68.9"/>
	</g>
	<g>
		<rect x="1274.9" y="916.2" class="st1" width="28.4" height="60.5"/>
	</g>
	<g>
		<rect x="1171.8" y="887.8" class="st0" width="28.4" height="89"/>
	</g>
	<g>
		<rect x="1206.3" y="898.6" class="st1" width="28.4" height="78.1"/>
	</g>
	<g>
		<rect x="1103.3" y="917.8" class="st0" width="28.4" height="59.1"/>
	</g>
	<g>
		<rect x="1137.8" y="925" class="st1" width="28.4" height="51.8"/>
	</g>
	<g>
		<rect x="1034.8" y="962.1" class="st1" width="28.4" height="14.6"/>
	</g>
	<g>
		<rect x="1069.2" y="964" class="st1" width="28.4" height="12.9"/>
	</g>
	<g>
		<rect x="966.2" y="962.1" class="st0" width="28.4" height="14.6"/>
	</g>
	<g>
		<rect x="1000.5" y="964" class="st1" width="28.4" height="12.9"/>
	</g>
	<g>
		<rect x="897.5" y="962.1" class="st1" width="28.4" height="14.6"/>
	</g>
	<g>
		<rect x="932" y="964" class="st0" width="28.4" height="12.9"/>
	</g>
</g>
<g id="Candle_00000132776222925893886640000007335084552370623633_">
	<g>
		<rect x="101.3" y="365.4" class="st0" width="20.7" height="258"/>
		<rect x="111" y="322" class="st0" width="1.6" height="361.2"/>
	</g>
	<g>
		<rect x="127.7" y="564.2" class="st1" width="20.7" height="36.5"/>
		<rect x="137.2" y="491.6" class="st1" width="1.6" height="119.3"/>
	</g>
	<g>
		<rect x="230.9" y="562" class="st1" width="20.7" height="40.9"/>
		<rect x="240.3" y="533.3" class="st1" width="1.6" height="88.9"/>
	</g>
	<g>
		<rect x="153.2" y="588.3" class="st1" width="20.7" height="107.5"/>
		<rect x="162.9" y="493" class="st1" width="1.6" height="280.2"/>
	</g>
	<g>
		<rect x="204.9" y="677.8" class="st1" width="20.7" height="107.5"/>
		<rect x="214.3" y="613.1" class="st1" width="2.1" height="222.9"/>
	</g>
	<g>
		<rect x="333.8" y="509.7" class="st1" width="20.7" height="46.8"/>
		<rect x="343.3" y="489.7" class="st1" width="2.1" height="87.6"/>
	</g>
	<g>
		<rect x="385.6" y="587.5" class="st1" width="20.7" height="85.2"/>
		<rect x="394.9" y="580.5" class="st1" width="2.1" height="149.3"/>
	</g>
	<g>
		<rect x="590.6" y="469.3" class="st1" width="20.7" height="85.2"/>
		<rect x="599.8" y="462.3" class="st1" width="2.1" height="149.3"/>
	</g>
	<g>
		<rect x="410.1" y="594.5" class="st1" width="20.7" height="30.6"/>
		<rect x="419.3" y="567.3" class="st1" width="2.1" height="74.4"/>
	</g>
	<g>
		<rect x="461.3" y="478.4" class="st1" width="20.7" height="27.1"/>
		<rect x="470.6" y="461.1" class="st1" width="2.1" height="88.4"/>
	</g>
	<g>
		<rect x="693.5" y="662.5" class="st1" width="20.7" height="27.1"/>
		<rect x="702.8" y="636.3" class="st1" width="2.1" height="127.8"/>
	</g>
	<g>
		<rect x="770.1" y="526.4" class="st1" width="20.7" height="37.1"/>
		<rect x="779.5" y="499.5" class="st1" width="2.1" height="81"/>
	</g>
	<g>
		<rect x="899.2" y="557" class="st1" width="20.7" height="47.1"/>
		<rect x="908.6" y="534.3" class="st1" width="2.1" height="103.4"/>
	</g>
	<g>
		<rect x="974.6" y="345.3" class="st1" width="20.7" height="40.3"/>
		<rect x="983.9" y="281.4" class="st1" width="2.1" height="133.8"/>
	</g>
	<g>
		<rect x="1000.7" y="339.2" class="st1" width="20.7" height="53.1"/>
		<rect x="1010.2" y="312.2" class="st1" width="2.1" height="117.7"/>
	</g>
	<g>
		<rect x="1129.9" y="363.1" class="st1" width="20.7" height="59.8"/>
		<rect x="1139.2" y="343.2" class="st1" width="2.1" height="154.4"/>
	</g>
	<g>
		<rect x="1181.1" y="301.3" class="st1" width="20.7" height="125.4"/>
		<rect x="1190.5" y="293.3" class="st1" width="2.1" height="142.7"/>
	</g>
	<g>
		<rect x="1258.2" y="147.7" class="st0" width="20.7" height="155.3"/>
		<rect x="1267.7" y="139.8" class="st0" width="2.1" height="172.5"/>
	</g>
	<g>
		<rect x="1364" y="40.1" class="st1" width="20.7" height="140.5"/>
		<rect x="1373.5" y="11.8" class="st1" width="2.1" height="200.3"/>
	</g>
	<g>
		<rect x="1026.6" y="386.2" class="st1" width="20.7" height="21.2"/>
		<rect x="1035.9" y="368.6" class="st1" width="2.1" height="64.7"/>
	</g>
	<g>
		<rect x="924.7" y="387.8" class="st1" width="20.7" height="182.9"/>
		<rect x="933.9" y="323" class="st1" width="2.1" height="314.8"/>
	</g>
	<g>
		<rect x="820.6" y="500.2" class="st1" width="20.7" height="26"/>
		<rect x="829.9" y="469.3" class="st1" width="2.1" height="68.9"/>
	</g>
	<g>
		<rect x="744.2" y="587.7" class="st1" width="20.7" height="74.8"/>
		<rect x="753.4" y="535.9" class="st1" width="2.1" height="150.1"/>
	</g>
	<g>
		<rect x="512.9" y="358.8" class="st1" width="20.7" height="95.5"/>
		<rect x="522.2" y="409.9" class="st1" width="2.1" height="126"/>
	</g>
	<g>
		<rect x="487.2" y="467.9" class="st1" width="20.7" height="3.9"/>
		<rect x="496.6" y="434" class="st1" width="2.1" height="90.9"/>
	</g>
	<g>
		<rect x="796" y="535.9" class="st1" width="20.7" height="7.7"/>
		<rect x="805.4" y="506" class="st1" width="2.1" height="67.7"/>
	</g>
	<g>
		<rect x="435.9" y="553" class="st1" width="20.7" height="49"/>
		<rect x="445.4" y="532.6" class="st1" width="2.1" height="83.3"/>
	</g>
	<g>
		<rect x="178.9" y="628.9" class="st0" width="20.7" height="90.9"/>
		<rect x="188.5" y="556.4" class="st0" width="1.6" height="201.4"/>
	</g>
	<g>
		<rect x="307" y="445.9" class="st0" width="20.7" height="90.9"/>
		<rect x="316.6" y="432.3" class="st0" width="1.6" height="132"/>
	</g>
	<g>
		<rect x="539.1" y="365.3" class="st0" width="20.7" height="90.9"/>
		<rect x="548.5" y="356.8" class="st0" width="2.1" height="106"/>
	</g>
	<g>
		<rect x="564.9" y="440.8" class="st0" width="20.7" height="66.8"/>
		<rect x="574.2" y="410.7" class="st0" width="2.1" height="103.4"/>
	</g>
	<g>
		<rect x="615.3" y="514.2" class="st0" width="20.7" height="55.8"/>
		<rect x="624.6" y="490.9" class="st0" width="2.1" height="95.6"/>
	</g>
	<g>
		<rect x="718.1" y="628.8" class="st0" width="20.7" height="69.1"/>
		<rect x="727.4" y="614.5" class="st0" width="2.1" height="99.9"/>
	</g>
	<g>
		<rect x="668.6" y="569.8" class="st0" width="20.7" height="117.8"/>
		<rect x="677.9" y="558.6" class="st0" width="2.1" height="197.3"/>
	</g>
	<g>
		<rect x="845.6" y="517.9" class="st0" width="20.7" height="37.9"/>
		<rect x="855" y="506" class="st0" width="2.1" height="98.7"/>
	</g>
	<g>
		<rect x="949.9" y="385.6" class="st0" width="20.7" height="18.5"/>
		<rect x="959.2" y="325.2" class="st0" width="2.1" height="108.2"/>
	</g>
	<g>
		<rect x="1231.6" y="338.1" class="st0" width="20.7" height="18.5"/>
		<rect x="1241.1" y="302.9" class="st0" width="2.1" height="111.2"/>
	</g>
	<g>
		<rect x="1282.9" y="121.2" class="st0" width="20.7" height="18.5"/>
		<rect x="1292.3" y="86.2" class="st0" width="2.1" height="111.2"/>
	</g>
	<g>
		<rect x="1336.3" y="75.9" class="st0" width="20.7" height="35.9"/>
		<rect x="1345.6" y="58.1" class="st0" width="2.1" height="67.2"/>
	</g>
	<g>
		<rect x="1308" y="79.6" class="st0" width="20.7" height="10.8"/>
		<rect x="1317.3" y="64.6" class="st0" width="2.1" height="56.6"/>
	</g>
	<g>
		<rect x="1051.7" y="297.6" class="st0" width="20.7" height="18.5"/>
		<rect x="1060.9" y="284.1" class="st0" width="2.1" height="84.6"/>
	</g>
	<g>
		<rect x="1078.9" y="332.3" class="st0" width="20.7" height="80.9"/>
		<rect x="1088.2" y="323" class="st0" width="2.1" height="106.9"/>
	</g>
	<g>
		<rect x="1205.9" y="306.8" class="st0" width="20.7" height="65"/>
		<rect x="1215.2" y="261.2" class="st0" width="2.1" height="93.4"/>
	</g>
	<g>
		<rect x="1104.7" y="393.6" class="st0" width="20.7" height="79.4"/>
		<rect x="1114" y="384.3" class="st0" width="2.1" height="152.5"/>
	</g>
	<g>
		<rect x="1155.4" y="340.4" class="st0" width="20.7" height="79.4"/>
		<rect x="1164.7" y="271.3" class="st0" width="2.1" height="141.6"/>
	</g>
	<g>
		<rect x="872.6" y="555.5" class="st0" width="20.7" height="47.4"/>
		<rect x="882" y="519.5" class="st0" width="2.1" height="118.3"/>
	</g>
	<g>
		<rect x="641.4" y="566.2" class="st0" width="20.7" height="67.8"/>
		<rect x="650.7" y="351.7" class="st0" width="2.1" height="298.7"/>
	</g>
	<g>
		<rect x="358.7" y="550.6" class="st0" width="20.7" height="121.5"/>
		<rect x="368.2" y="497.8" class="st0" width="2.1" height="185.4"/>
	</g>
	<g>
		<rect x="256.4" y="570.5" class="st0" width="20.7" height="13.6"/>
		<rect x="265.8" y="522.2" class="st0" width="1.6" height="130.5"/>
	</g>
	<g>
		<rect x="281.9" y="509" class="st0" width="20.7" height="6.6"/>
		<rect x="291.4" y="449.1" class="st0" width="1.6" height="83.5"/>
	</g>
</g>
<circle class="st2" cx="1532.8" cy="93.9" r="91.6"/>
<g class="st3">
	<path class="st4" d="M1487.9,120.4c-2.7-0.3-5.8-1.6-7.9-3.5l2.6-4c2.2,1.7,4.3,2.7,6.6,2.7c2.8,0,4.1-1.2,4.1-3.5
		c0-5.4-12.1-4.9-12.1-13.3c0-4.4,2.6-7.4,6.8-8.2v-4.6h4v4.6c2.9,0.4,4.9,1.8,6.6,3.6l-3,3.4c-1.6-1.5-3.1-2.4-5.1-2.4
		c-2.4,0-3.7,1.1-3.7,3.3c0,5,12.1,4.2,12.1,13.1c0,4.4-2.4,7.6-7,8.5v4.6h-4V120.4z"/>
</g>
<g class="st3">
	<path class="st4" d="M1503.4,113.8l4.8-6.6c2.9,2.9,6.6,5.3,11.4,5.3c5.4,0,9.2-3.2,9.2-8.8c0-5.6-3.5-8.8-8.8-8.8
		c-3.1,0-4.8,0.8-7.8,2.7l-4.7-3l1.4-25.3h27.8v8.6h-18.9l-1,11c2.1-0.9,3.9-1.4,6.2-1.4c8.7,0,16,4.9,16,15.7
		c0,11.2-8.6,17.6-18.2,17.6C1512.8,120.9,1507.3,117.6,1503.4,113.8z"/>
	<path class="st4" d="M1566.6,107.3h-22.2v-7.1l19.4-31h12.4v30.1h6.1v7.9h-6.1v12.6h-9.6V107.3z M1566.6,99.4V89.3
		c0-3,0.2-7.8,0.4-10.8h-0.3c-1.3,2.7-2.7,5.3-4.1,8.1l-8.1,12.8H1566.6z"/>
</g>
<circle class="st2" cx="1525.4" cy="744.7" r="91.6"/>
<g>
	<g class="st3">
		<path class="st4" d="M1452.4,758.9h8.2v-23.3h-6.9v-4.7c3.8-0.7,6.5-1.7,8.9-3.2h5.6v31.2h7.2v6.2h-23.1V758.9z"/>
		<path class="st4" d="M1480.5,772c4-1.5,6.3-4.2,6.2-7.1c-0.2,0-0.3,0-0.5,0c-2.5,0-4.8-1.6-4.8-4.5c0-2.7,2.2-4.5,4.9-4.5
			c3.5,0,5.5,2.8,5.5,7.5c0,6.1-3.5,10.7-9.8,12.8L1480.5,772z"/>
		<path class="st4" d="M1495.9,746.2c0-12.6,5.1-19.2,13-19.2s13,6.6,13,19.2c0,12.7-5.1,19.6-13,19.6S1495.9,758.9,1495.9,746.2z
			 M1514.7,746.2c0-10.4-2.4-13.3-5.8-13.3c-3.3,0-5.8,2.9-5.8,13.3c0,10.4,2.5,13.6,5.8,13.6
			C1512.2,759.8,1514.7,756.6,1514.7,746.2z"/>
		<path class="st4" d="M1525.4,746.2c0-12.6,5.1-19.2,13-19.2s13,6.6,13,19.2c0,12.7-5.1,19.6-13,19.6S1525.4,758.9,1525.4,746.2z
			 M1544.2,746.2c0-10.4-2.4-13.3-5.8-13.3c-3.3,0-5.8,2.9-5.8,13.3c0,10.4,2.5,13.6,5.8,13.6
			C1541.8,759.8,1544.2,756.6,1544.2,746.2z"/>
		<path class="st4" d="M1555,746.2c0-12.6,5.1-19.2,13-19.2s13,6.6,13,19.2c0,12.7-5.1,19.6-13,19.6S1555,758.9,1555,746.2z
			 M1573.7,746.2c0-10.4-2.4-13.3-5.8-13.3s-5.8,2.9-5.8,13.3c0,10.4,2.5,13.6,5.8,13.6S1573.7,756.6,1573.7,746.2z"/>
	</g>
	<g class="st3">
		<path class="st5" d="M1452.4,758.9h8.2v-23.3h-6.9v-4.7c3.8-0.7,6.5-1.7,8.9-3.2h5.6v31.2h7.2v6.2h-23.1V758.9z"/>
		<path class="st5" d="M1480.5,772c4-1.5,6.3-4.2,6.2-7.1c-0.2,0-0.3,0-0.5,0c-2.5,0-4.8-1.6-4.8-4.5c0-2.7,2.2-4.5,4.9-4.5
			c3.5,0,5.5,2.8,5.5,7.5c0,6.1-3.5,10.7-9.8,12.8L1480.5,772z"/>
		<path class="st5" d="M1495.9,746.2c0-12.6,5.1-19.2,13-19.2s13,6.6,13,19.2c0,12.7-5.1,19.6-13,19.6S1495.9,758.9,1495.9,746.2z
			 M1514.7,746.2c0-10.4-2.4-13.3-5.8-13.3c-3.3,0-5.8,2.9-5.8,13.3c0,10.4,2.5,13.6,5.8,13.6
			C1512.2,759.8,1514.7,756.6,1514.7,746.2z"/>
		<path class="st5" d="M1525.4,746.2c0-12.6,5.1-19.2,13-19.2s13,6.6,13,19.2c0,12.7-5.1,19.6-13,19.6S1525.4,758.9,1525.4,746.2z
			 M1544.2,746.2c0-10.4-2.4-13.3-5.8-13.3c-3.3,0-5.8,2.9-5.8,13.3c0,10.4,2.5,13.6,5.8,13.6
			C1541.8,759.8,1544.2,756.6,1544.2,746.2z"/>
		<path class="st5" d="M1555,746.2c0-12.6,5.1-19.2,13-19.2s13,6.6,13,19.2c0,12.7-5.1,19.6-13,19.6S1555,758.9,1555,746.2z
			 M1573.7,746.2c0-10.4-2.4-13.3-5.8-13.3s-5.8,2.9-5.8,13.3c0,10.4,2.5,13.6,5.8,13.6S1573.7,756.6,1573.7,746.2z"/>
	</g>
	<g class="st3">
		<path class="st4" d="M1590.8,753.4c0,0,0,0.9-0.1,1.3c-0.3,6.3-0.6,9-1.5,9.9c-0.6,0.8-1.2,1-2.1,1.1c-0.8,0.1-2.1,0.1-3.4,0.1
			c-0.1-1-0.4-2.4-1-3.3c1.2,0.1,2.4,0.1,2.9,0.1c0.4,0,0.7-0.1,1-0.3c0.4-0.4,0.7-2.1,0.9-6.1h-5.2c0.2-2.4,0.4-6.2,0.4-9.2h4.8
			v-3.1h-5.2v-3h8.3v9h-5c0,1.1-0.1,2.3-0.1,3.4H1590.8z M1607.2,757.5c-1.3,0.8-2.6,1.7-3.7,2.4c1.3,1.3,2.9,2.3,4.5,3
			c-0.7,0.6-1.7,1.9-2.2,2.7c-3.9-2-6.9-5.9-8.8-10.4h-1.4v6.6l3.6-1c0,0.8,0.1,2,0.2,2.7c-5.2,1.7-6.2,2.1-6.7,2.5
			c-0.2-0.7-1-2-1.4-2.7c0.5-0.4,1.2-1.1,1.2-2.3v-5.8h-1.2v-2.8h1.7v-11.5h14v2.6h-10.8v1.3h9.7v2.3h-9.7v1.4h9.7v2.3h-9.7v1.4
			h11.2v2.8h-7.4c0.5,1,1.1,2,1.8,2.9c1.1-0.8,2.2-1.8,3-2.6L1607.2,757.5z"/>
	</g>
	<g class="st3">
		<path class="st5" d="M1590.8,753.4c0,0,0,0.9-0.1,1.3c-0.3,6.3-0.6,9-1.5,9.9c-0.6,0.8-1.2,1-2.1,1.1c-0.8,0.1-2.1,0.1-3.4,0.1
			c-0.1-1-0.4-2.4-1-3.3c1.2,0.1,2.4,0.1,2.9,0.1c0.4,0,0.7-0.1,1-0.3c0.4-0.4,0.7-2.1,0.9-6.1h-5.2c0.2-2.4,0.4-6.2,0.4-9.2h4.8
			v-3.1h-5.2v-3h8.3v9h-5c0,1.1-0.1,2.3-0.1,3.4H1590.8z M1607.2,757.5c-1.3,0.8-2.6,1.7-3.7,2.4c1.3,1.3,2.9,2.3,4.5,3
			c-0.7,0.6-1.7,1.9-2.2,2.7c-3.9-2-6.9-5.9-8.8-10.4h-1.4v6.6l3.6-1c0,0.8,0.1,2,0.2,2.7c-5.2,1.7-6.2,2.1-6.7,2.5
			c-0.2-0.7-1-2-1.4-2.7c0.5-0.4,1.2-1.1,1.2-2.3v-5.8h-1.2v-2.8h1.7v-11.5h14v2.6h-10.8v1.3h9.7v2.3h-9.7v1.4h9.7v2.3h-9.7v1.4
			h11.2v2.8h-7.4c0.5,1,1.1,2,1.8,2.9c1.1-0.8,2.2-1.8,3-2.6L1607.2,757.5z"/>
	</g>
</g>
<g>
	<g class="st3">
		<path class="st4" d="M1452.4,758.9h8.2v-23.3h-6.9v-4.7c3.8-0.7,6.5-1.7,8.9-3.2h5.6v31.2h7.2v6.2h-23.1V758.9z"/>
		<path class="st4" d="M1480.5,772c4-1.5,6.3-4.2,6.2-7.1c-0.2,0-0.3,0-0.5,0c-2.5,0-4.8-1.6-4.8-4.5c0-2.7,2.2-4.5,4.9-4.5
			c3.5,0,5.5,2.8,5.5,7.5c0,6.1-3.5,10.7-9.8,12.8L1480.5,772z"/>
		<path class="st4" d="M1495.9,746.2c0-12.6,5.1-19.2,13-19.2s13,6.6,13,19.2c0,12.7-5.1,19.6-13,19.6S1495.9,758.9,1495.9,746.2z
			 M1514.7,746.2c0-10.4-2.4-13.3-5.8-13.3c-3.3,0-5.8,2.9-5.8,13.3c0,10.4,2.5,13.6,5.8,13.6
			C1512.2,759.8,1514.7,756.6,1514.7,746.2z"/>
		<path class="st4" d="M1525.4,746.2c0-12.6,5.1-19.2,13-19.2s13,6.6,13,19.2c0,12.7-5.1,19.6-13,19.6S1525.4,758.9,1525.4,746.2z
			 M1544.2,746.2c0-10.4-2.4-13.3-5.8-13.3c-3.3,0-5.8,2.9-5.8,13.3c0,10.4,2.5,13.6,5.8,13.6
			C1541.8,759.8,1544.2,756.6,1544.2,746.2z"/>
		<path class="st4" d="M1555,746.2c0-12.6,5.1-19.2,13-19.2s13,6.6,13,19.2c0,12.7-5.1,19.6-13,19.6S1555,758.9,1555,746.2z
			 M1573.7,746.2c0-10.4-2.4-13.3-5.8-13.3s-5.8,2.9-5.8,13.3c0,10.4,2.5,13.6,5.8,13.6S1573.7,756.6,1573.7,746.2z"/>
	</g>
	<g class="st3">
		<path class="st4" d="M1590.8,753.4c0,0,0,0.9-0.1,1.3c-0.3,6.3-0.6,9-1.5,9.9c-0.6,0.8-1.2,1-2.1,1.1c-0.8,0.1-2.1,0.1-3.4,0.1
			c-0.1-1-0.4-2.4-1-3.3c1.2,0.1,2.4,0.1,2.9,0.1c0.4,0,0.7-0.1,1-0.3c0.4-0.4,0.7-2.1,0.9-6.1h-5.2c0.2-2.4,0.4-6.2,0.4-9.2h4.8
			v-3.1h-5.2v-3h8.3v9h-5c0,1.1-0.1,2.3-0.1,3.4H1590.8z M1607.2,757.5c-1.3,0.8-2.6,1.7-3.7,2.4c1.3,1.3,2.9,2.3,4.5,3
			c-0.7,0.6-1.7,1.9-2.2,2.7c-3.9-2-6.9-5.9-8.8-10.4h-1.4v6.6l3.6-1c0,0.8,0.1,2,0.2,2.7c-5.2,1.7-6.2,2.1-6.7,2.5
			c-0.2-0.7-1-2-1.4-2.7c0.5-0.4,1.2-1.1,1.2-2.3v-5.8h-1.2v-2.8h1.7v-11.5h14v2.6h-10.8v1.3h9.7v2.3h-9.7v1.4h9.7v2.3h-9.7v1.4
			h11.2v2.8h-7.4c0.5,1,1.1,2,1.8,2.9c1.1-0.8,2.2-1.8,3-2.6L1607.2,757.5z"/>
	</g>
</g>
</svg>
