<?xml version="1.0" encoding="utf-8"?>
<!-- Generator: Adobe Illustrator 27.8.1, SVG Export Plug-In . SVG Version: 6.00 Build 0)  -->
<svg version="1.1" id="Stock_graph_technology" xmlns="http://www.w3.org/2000/svg" xmlns:xlink="http://www.w3.org/1999/xlink"
	 x="0px" y="0px" viewBox="0 0 1600 947.9" style="enable-background:new 0 0 1600 947.9;" xml:space="preserve">
<style type="text/css">
	.st0{fill:none;stroke:#FFFFFF;stroke-width:25;stroke-linecap:round;stroke-linejoin:round;stroke-miterlimit:10;}
	.st1{fill:none;stroke:#FFFFFF;stroke-width:36;stroke-linecap:round;stroke-linejoin:round;stroke-miterlimit:10;}
	
		.st2{opacity:0.73;fill:none;stroke:#FFFFFF;stroke-width:25;stroke-linecap:round;stroke-linejoin:round;stroke-miterlimit:10;enable-background:new    ;}
	
		.st3{opacity:0.44;fill:none;stroke:#FFFFFF;stroke-width:25;stroke-linecap:round;stroke-linejoin:round;stroke-miterlimit:10;enable-background:new    ;}
	
		.st4{opacity:0.16;fill:none;stroke:#FFFFFF;stroke-width:25;stroke-linecap:round;stroke-linejoin:round;stroke-miterlimit:10;enable-background:new    ;}
	
		.st5{opacity:0.54;fill:none;stroke:#FFFFFF;stroke-width:25;stroke-linecap:round;stroke-linejoin:round;stroke-miterlimit:10;enable-background:new    ;}
	
		.st6{opacity:0.82;fill:none;stroke:#FFFFFF;stroke-width:25;stroke-linecap:round;stroke-linejoin:round;stroke-miterlimit:10;enable-background:new    ;}
	
		.st7{opacity:0.23;fill:none;stroke:#FFFFFF;stroke-width:25;stroke-linecap:round;stroke-linejoin:round;stroke-miterlimit:10;enable-background:new    ;}
	
		.st8{fill:none;stroke:#FFFFFF;stroke-width:25;stroke-linecap:round;stroke-linejoin:round;stroke-miterlimit:10;stroke-dasharray:0.388,5.3381;}
	.st9{fill:#EA6100;}
	.st10{enable-background:new    ;}
	.st11{fill:#FFFFFF;}
</style>
<path class="st0" d="M721,834.6c-22.6-5.3-45.1-12.9-67-23c-175.8-80.9-252.7-289-171.8-464.7c80.9-175.8,289-252.7,464.7-171.8
	c171.5,78.9,248.8,278.8,177.6,451.6"/>
<path class="st0" d="M1003.7,778.7c-19,13.5-39.5,25.2-61.6,35c-177,78.2-383.8-2-462-179s2-383.8,179-462
	c172.6-76.2,373.6-1.9,456,166"/>
<polyline class="st0" points="1094.3,572.7 1124.5,634.1 1185.3,602.9 "/>
<line class="st0" x1="800.5" y1="198.7" x2="800.5" y2="214.1"/>
<line class="st1" x1="800.5" y1="764.3" x2="800.5" y2="779.7"/>
<line class="st0" x1="510" y1="482.2" x2="525.4" y2="482.2"/>
<line class="st0" x1="1075.6" y1="482.2" x2="1091" y2="482.2"/>
<line class="st0" x1="655.2" y1="237.6" x2="663" y2="251"/>
<line class="st0" x1="548.9" y1="634.4" x2="562.3" y2="626.7"/>
<line class="st0" x1="1038.7" y1="351.6" x2="1052.1" y2="343.9"/>
<line class="st0" x1="945.8" y1="237.6" x2="938" y2="251"/>
<line class="st0" x1="663" y1="727.4" x2="655.2" y2="740.8"/>
<line class="st0" x1="938.1" y1="727.4" x2="945.8" y2="740.8"/>
<line class="st0" x1="548.9" y1="343.9" x2="562.3" y2="351.6"/>
<line class="st0" x1="1038.7" y1="626.7" x2="1052.1" y2="634.4"/>
<polyline class="st0" points="691.5,491.2 803.6,491.9 803.6,269.8 "/>
<polyline class="st0" points="691.5,491.2 803.6,491.9 803.6,269.8 "/>
<line class="st2" x1="996.4" y1="380.8" x2="802.2" y2="488.6"/>
<line class="st3" x1="991.8" y1="604.9" x2="799.8" y2="493.2"/>
<line class="st4" x1="799.8" y1="713.9" x2="801.2" y2="491.9"/>
<line class="st5" x1="1021.8" y1="485.6" x2="799.8" y2="490.9"/>
<line class="st6" x1="918.2" y1="294.4" x2="803.6" y2="484.6"/>
<line class="st7" x1="910.8" y1="681.3" x2="796.6" y2="490.9"/>
<line class="st8" x1="1049.8" y1="744.8" x2="1043.4" y2="750"/>
<line class="st8" x1="1095.3" y1="692.9" x2="1090.5" y2="699.7"/>
<circle class="st9" cx="798.7" cy="115.3" r="74.6"/>
<g class="st10">
	<path class="st11" d="M780.7,101v6.2l0.8-0.9c4.2,2.1,10.4,5.5,13.4,7.9l-3.5,4.3c-2.3-2-6.8-4.9-10.7-7.2V130h-5v-29h-14.2v-4.7
		h35.1v4.7H780.7z"/>
	<path class="st11" d="M835.9,125.1h-15.3v5h-4.8v-5h-15v-4h15v-2h-11.2v-14.8h27.9v14.8h-11.9v2h15.3V125.1z M817.2,102.8h-14v-7.9
		h14V102.8z M812.9,97.7h-5.5v2.3h5.5V97.7z M809.2,110h6.7v-2.1h-6.7V110z M815.8,115.5v-2.1h-6.7v2.1H815.8z M833.7,102.8h-14.1
		v-7.9h14.1V102.8z M827.7,107.9h-7.1v2.1h7.1V107.9z M827.7,113.3h-7.1v2.1h7.1V113.3z M829.4,97.7h-5.6v2.3h5.6V97.7z"/>
</g>
<circle class="st9" cx="798.7" cy="854.3" r="74.6"/>
<g class="st10">
	<path class="st11" d="M780.7,839.9v6.2l0.8-0.9c4.2,2.1,10.4,5.5,13.4,7.9l-3.5,4.3c-2.3-2-6.8-4.9-10.7-7.2V869h-5v-29h-14.2v-4.7
		h35.1v4.7L780.7,839.9L780.7,839.9z"/>
	<path class="st11" d="M835.9,864.1h-15.3v5h-4.8v-5h-15v-4h15v-2h-11.2v-14.8h27.9V858h-11.9v2h15.3V864.1z M817.2,841.8h-14v-7.9
		h14V841.8z M812.9,836.7h-5.5v2.3h5.5V836.7z M809.2,849h6.7v-2.1h-6.7V849z M815.8,854.5v-2.1h-6.7v2.1H815.8z M833.7,841.8h-14.1
		v-7.9h14.1V841.8z M827.7,846.9h-7.1v2.1h7.1V846.9z M827.7,852.3h-7.1v2.1h7.1V852.3z M829.4,836.7h-5.6v2.3h5.6V836.7z"/>
</g>
<path class="st0" d="M721,1919.9c-22.6-5.3-45.1-12.9-67-23c-175.8-80.9-252.7-289-171.8-464.7c80.9-175.8,289-252.7,464.7-171.8
	c171.4,78.9,248.7,278.8,177.5,451.6"/>
<path class="st0" d="M1003.7,1864c-19,13.5-39.5,25.2-61.6,35c-177,78.2-383.8-2-462-179s2-383.8,179-462
	c172.6-76.2,373.6-1.9,456,166"/>
<polyline class="st0" points="1094.3,1658 1124.5,1719.4 1185.3,1688.2 "/>
<line class="st0" x1="800.5" y1="1284" x2="800.5" y2="1299.4"/>
<line class="st1" x1="800.5" y1="1849.6" x2="800.5" y2="1865"/>
<line class="st0" x1="510" y1="1567.5" x2="525.4" y2="1567.5"/>
<line class="st0" x1="1075.6" y1="1567.5" x2="1091" y2="1567.5"/>
<line class="st0" x1="655.2" y1="1322.9" x2="663" y2="1336.3"/>
<line class="st0" x1="548.9" y1="1719.8" x2="562.3" y2="1712"/>
<line class="st0" x1="1038.7" y1="1436.9" x2="1052.1" y2="1429.2"/>
<line class="st0" x1="945.8" y1="1322.9" x2="938" y2="1336.3"/>
<line class="st0" x1="663" y1="1812.7" x2="655.2" y2="1826.1"/>
<line class="st0" x1="938.1" y1="1812.7" x2="945.8" y2="1826.1"/>
<line class="st0" x1="548.9" y1="1429.2" x2="562.3" y2="1436.9"/>
<line class="st0" x1="1038.7" y1="1712" x2="1052.1" y2="1719.8"/>
<polyline class="st0" points="691.5,1576.5 803.6,1577.2 803.6,1355.1 "/>
<polyline class="st0" points="691.5,1576.5 803.6,1577.2 803.6,1355.1 "/>
<line class="st2" x1="996.4" y1="1466.1" x2="802.2" y2="1573.9"/>
<line class="st3" x1="991.8" y1="1690.2" x2="799.8" y2="1578.5"/>
<line class="st4" x1="799.8" y1="1799.2" x2="801.2" y2="1577.2"/>
<line class="st5" x1="1021.8" y1="1570.9" x2="799.8" y2="1576.2"/>
<line class="st6" x1="918.2" y1="1379.7" x2="803.6" y2="1569.9"/>
<line class="st7" x1="910.8" y1="1766.6" x2="796.6" y2="1576.2"/>
<line class="st8" x1="1049.8" y1="1830.1" x2="1043.4" y2="1835.3"/>
<line class="st8" x1="1095.3" y1="1778.2" x2="1090.5" y2="1785"/>
<circle class="st9" cx="798.7" cy="1200.6" r="74.6"/>
<text transform="matrix(1 0 0 1 759.3687 1211.9889)" class="st11" style="font-family:'SourceHanSansTC-Bold-B5pc-H'; font-size:39.3565px;">下單</text>
<circle class="st9" cx="798.7" cy="1939.6" r="74.6"/>
<text transform="matrix(1 0 0 1 759.3687 1950.9801)" class="st11" style="font-family:'SourceHanSansTC-Bold-B5pc-H'; font-size:39.3565px;">下單</text>
</svg>
