<?xml version="1.0" encoding="utf-8"?>
<!-- Generator: Adobe Illustrator 27.8.1, SVG Export Plug-In . SVG Version: 6.00 Build 0)  -->
<svg version="1.1" id="Stock_graph_technology" xmlns="http://www.w3.org/2000/svg" xmlns:xlink="http://www.w3.org/1999/xlink"
	 x="0px" y="0px" viewBox="0 0 1600 839.7" style="enable-background:new 0 0 1600 839.7;" xml:space="preserve">
<style type="text/css">
	.st0{fill:#2BB573;}
	.st1{fill:#DD0A00;}
	.st2{fill:#FFFFFF;}
	.st3{fill:#EA6100;}
	.st4{enable-background:new    ;}
</style>
<g id="Candle_00000070116847795687138490000002654833795704568752_">
	<g>
		<rect x="237.5" y="574.3" class="st0" width="20" height="39.6"/>
		<rect x="246.7" y="546.5" class="st0" width="1.6" height="86"/>
	</g>
	<g>
		<rect x="212.4" y="686.5" class="st0" width="20" height="104.1"/>
		<rect x="221.5" y="623.8" class="st0" width="2" height="215.9"/>
	</g>
	<g>
		<rect x="337.2" y="523.5" class="st0" width="20" height="45.3"/>
		<rect x="346.3" y="504.2" class="st0" width="2" height="84.8"/>
	</g>
	<g>
		<rect x="387.3" y="599" class="st0" width="20" height="82.5"/>
		<rect x="396.3" y="592.2" class="st0" width="2" height="144.5"/>
	</g>
	<g>
		<rect x="585.8" y="484.6" class="st0" width="20" height="82.5"/>
		<rect x="594.8" y="477.8" class="st0" width="2" height="144.5"/>
	</g>
	<g>
		<rect x="410.9" y="605.7" class="st0" width="20" height="29.7"/>
		<rect x="419.9" y="579.4" class="st0" width="2" height="72"/>
	</g>
	<g>
		<rect x="460.6" y="493.4" class="st0" width="20" height="26.2"/>
		<rect x="469.6" y="476.6" class="st0" width="2" height="85.6"/>
	</g>
	<g>
		<rect x="685.4" y="671.6" class="st0" width="20" height="26.2"/>
		<rect x="694.4" y="646.2" class="st0" width="2" height="123.8"/>
	</g>
	<g>
		<rect x="759.6" y="539.8" class="st0" width="20" height="36"/>
		<rect x="768.6" y="513.7" class="st0" width="2" height="78.5"/>
	</g>
	<g>
		<rect x="884.6" y="569.4" class="st0" width="20" height="45.6"/>
		<rect x="893.6" y="547.5" class="st0" width="2" height="100.2"/>
	</g>
	<g>
		<rect x="957.5" y="364.5" class="st0" width="20" height="39"/>
		<rect x="966.6" y="302.6" class="st0" width="2" height="129.7"/>
	</g>
	<g>
		<rect x="982.9" y="358.6" class="st0" width="20" height="51.4"/>
		<rect x="992" y="332.4" class="st0" width="2" height="114"/>
	</g>
	<g>
		<rect x="1108" y="381.7" class="st0" width="20" height="57.9"/>
		<rect x="1117" y="362.4" class="st0" width="2" height="149.6"/>
	</g>
	<g>
		<rect x="1157.5" y="321.9" class="st0" width="20" height="121.4"/>
		<rect x="1166.6" y="314.2" class="st0" width="2" height="138.1"/>
	</g>
	<g>
		<rect x="1232.3" y="173.1" class="st1" width="20" height="150.3"/>
		<rect x="1241.3" y="165.4" class="st1" width="2" height="167"/>
	</g>
	<g>
		<rect x="1334.7" y="69" class="st1" width="20" height="136"/>
		<rect x="1343.7" y="41.5" class="st1" width="2" height="193.8"/>
	</g>
	<g>
		<rect x="1007.9" y="404.1" class="st0" width="20" height="20.5"/>
		<rect x="1017" y="387.1" class="st0" width="2" height="62.6"/>
	</g>
	<g>
		<rect x="909.3" y="405.6" class="st0" width="20" height="177.1"/>
		<rect x="918.3" y="342.9" class="st0" width="2" height="304.8"/>
	</g>
	<g>
		<rect x="808.4" y="514.5" class="st0" width="20" height="25.2"/>
		<rect x="817.5" y="484.6" class="st0" width="2" height="66.7"/>
	</g>
	<g>
		<rect x="734.4" y="599.2" class="st0" width="20" height="72.4"/>
		<rect x="743.4" y="549" class="st0" width="2" height="145.4"/>
	</g>
	<g>
		<rect x="510.5" y="377.5" class="st0" width="20" height="92.5"/>
		<rect x="519.6" y="427" class="st0" width="2" height="122"/>
	</g>
	<g>
		<rect x="485.7" y="483.1" class="st0" width="20" height="3.8"/>
		<rect x="494.7" y="450.4" class="st0" width="2" height="88"/>
	</g>
	<g>
		<rect x="784.7" y="549" class="st0" width="20" height="7.5"/>
		<rect x="793.7" y="520" class="st0" width="2" height="65.5"/>
	</g>
	<g>
		<rect x="436.1" y="565.6" class="st0" width="20" height="47.5"/>
		<rect x="445.1" y="545.8" class="st0" width="2" height="80.6"/>
	</g>
	<g>
		<rect x="311.3" y="461.9" class="st1" width="20" height="88.1"/>
		<rect x="320.5" y="448.7" class="st1" width="1.6" height="127.7"/>
	</g>
	<g>
		<rect x="535.9" y="383.7" class="st1" width="20" height="88.1"/>
		<rect x="545" y="375.6" class="st1" width="2" height="102.7"/>
	</g>
	<g>
		<rect x="560.9" y="456.8" class="st1" width="20" height="64.7"/>
		<rect x="569.9" y="427.8" class="st1" width="2" height="100.1"/>
	</g>
	<g>
		<rect x="609.6" y="527.9" class="st1" width="20" height="54.1"/>
		<rect x="618.7" y="505.4" class="st1" width="2" height="92.6"/>
	</g>
	<g>
		<rect x="709.3" y="639" class="st1" width="20" height="67"/>
		<rect x="718.3" y="625.1" class="st1" width="2" height="96.8"/>
	</g>
	<g>
		<rect x="661.2" y="582" class="st1" width="20" height="114.1"/>
		<rect x="670.3" y="570.9" class="st1" width="2" height="191"/>
	</g>
	<g>
		<rect x="832.7" y="531.5" class="st1" width="20" height="36.7"/>
		<rect x="841.7" y="520" class="st1" width="2" height="95.6"/>
	</g>
	<g>
		<rect x="933.6" y="403.5" class="st1" width="20" height="18"/>
		<rect x="942.6" y="345" class="st1" width="2" height="104.8"/>
	</g>
	<g>
		<rect x="1206.5" y="357.4" class="st1" width="20" height="18"/>
		<rect x="1215.5" y="323.4" class="st1" width="2" height="107.7"/>
	</g>
	<g>
		<rect x="1256.1" y="147.5" class="st0" width="20" height="18"/>
		<rect x="1265.1" y="113.5" class="st0" width="2" height="107.7"/>
	</g>
	<g>
		<rect x="1307.8" y="103.6" class="st1" width="20" height="34.8"/>
		<rect x="1316.8" y="86.4" class="st1" width="2" height="65"/>
	</g>
	<g>
		<rect x="1280.4" y="107.1" class="st0" width="20" height="10.4"/>
		<rect x="1289.4" y="92.7" class="st0" width="2" height="54.8"/>
	</g>
	<g>
		<rect x="1032.2" y="318.3" class="st1" width="20" height="18"/>
		<rect x="1041.2" y="305.2" class="st1" width="2" height="81.9"/>
	</g>
	<g>
		<rect x="1058.6" y="351.9" class="st1" width="20" height="78.3"/>
		<rect x="1067.7" y="342.9" class="st1" width="2" height="103.5"/>
	</g>
	<g>
		<rect x="1181.5" y="327.3" class="st1" width="20" height="62.9"/>
		<rect x="1190.6" y="283" class="st1" width="2" height="90.4"/>
	</g>
	<g>
		<rect x="1083.5" y="411.2" class="st1" width="20" height="77"/>
		<rect x="1092.6" y="402.2" class="st1" width="2" height="147.6"/>
	</g>
	<g>
		<rect x="1132.6" y="359.8" class="st1" width="20" height="77"/>
		<rect x="1141.7" y="292.9" class="st1" width="2" height="137.1"/>
	</g>
	<g>
		<rect x="858.9" y="568" class="st1" width="20" height="45.9"/>
		<rect x="867.9" y="533.2" class="st1" width="2" height="114.5"/>
	</g>
	<g>
		<rect x="635" y="578.3" class="st1" width="20" height="65.6"/>
		<rect x="644" y="370.7" class="st1" width="2" height="289.2"/>
	</g>
	<g>
		<rect x="361.4" y="563.2" class="st1" width="20" height="117.6"/>
		<rect x="370.4" y="512.1" class="st1" width="2" height="179.5"/>
	</g>
	<g>
		<rect x="262.1" y="582.4" class="st1" width="20" height="13.1"/>
		<rect x="271.3" y="535.7" class="st1" width="1.6" height="126.3"/>
	</g>
	<g>
		<rect x="286.9" y="523" class="st1" width="20" height="6.5"/>
		<rect x="296.2" y="465" class="st1" width="1.6" height="80.8"/>
	</g>
</g>
<circle class="st2" cx="1344.7" cy="91.6" r="11.6"/>
<circle class="st2" cx="222.4" cy="738.5" r="11.6"/>
<circle class="st3" cx="1462.3" cy="91.6" r="91.6"/>
<circle class="st3" cx="104.8" cy="740" r="91.6"/>
<g>
	<g class="st4">
		<path class="st2" d="M1425.2,75.6c0,2.3-0.5,3.4-2,4c-1.5,0.7-3.8,0.7-7.1,0.7c-0.2-1.1-1-2.9-1.6-4c2.2,0.1,4.9,0.1,5.6,0.1
			c0.8,0,1-0.3,1-0.9v-4.6h-13.7c-0.8,3.6-2.4,7.1-5.4,9.6c-0.6-0.8-2.1-2.2-2.9-2.8c4.8-4.1,5.3-10.2,5.3-15.1V52.1h20.8V75.6z
			 M1421.1,67.2v-3.9h-12.8c0,1.2-0.1,2.6-0.2,3.9H1421.1z M1408.3,55.8v3.9h12.8v-3.9H1408.3z"/>
		<path class="st2" d="M1437.6,57v5.6c0,5.2-0.5,13.1-3.4,18c-0.7-0.7-2.3-1.8-3.2-2.2c2.7-4.5,2.8-11.2,2.8-15.9v-9h12.1
			c-0.3-0.8-0.6-1.6-1-2.3l3.8-0.9c0.6,1,1.1,2.1,1.4,3.2h10.6V57H1437.6z M1453.8,69c0.8,4.4,2.2,7.5,3.4,7.5c0.6,0,0.8-1.3,1-4.1
			c0.8,0.8,2,1.5,2.9,1.8c-0.5,4.8-1.7,5.9-4.2,5.9c-3.5,0-5.8-4.7-6.9-11.1h-6.3v3.6l5.3-1.2c-0.1,1,0,2.5,0,3.3
			c-6.8,1.7-7.9,2.1-8.7,2.6c-0.2-0.9-0.8-2.4-1.3-3c0.6-0.3,1.1-0.9,1.1-2.2V59.6h0l0,0c5.9-0.2,12.5-0.7,16.5-1.6l2.7,2.8
			c-1.9,0.4-4.1,0.7-6.4,1c0.1,1.3,0.2,2.6,0.3,3.9h6.9V69H1453.8z M1449.5,65.6c-0.1-1.2-0.2-2.3-0.3-3.6c-1.9,0.2-3.7,0.3-5.5,0.3
			v3.2H1449.5z M1444.3,76.7h8.1v3h-8.1V76.7z"/>
		<path class="st2" d="M1492.3,65.2c-1,4.1-2.9,7.2-5.3,9.6c1.8,1,3.9,1.8,6.2,2.4c-0.8,0.8-1.9,2.3-2.4,3.3
			c-2.7-0.7-4.9-1.8-6.9-3.2c-2,1.3-4.4,2.3-7,3.1c-0.4-1-1.2-2.4-1.9-3.2c-0.1,1.1-0.4,1.9-1.2,2.4c-0.9,0.6-2.2,0.7-4,0.7
			c-0.1-1-0.5-2.6-1-3.6c1,0,2,0,2.3,0c0.4,0,0.5-0.1,0.5-0.5v-6.4c-0.9,0.5-1.7,1.1-2.5,1.6l-0.9-2.3c-0.2,4-0.8,8.3-2,11.4
			c-0.7-0.6-2.2-1.4-3-1.7c1.7-4.4,1.8-10.8,1.8-15.4V51.7h10.1v9.6c3.5-1.7,3.9-4,3.9-6.1v-3.4h10.8v7c0,0.9,0.1,1.3,0.4,1.3h1.2
			c0.4,0,1.2-0.1,1.6-0.2c0.1,0.9,0.2,2.2,0.3,3c-0.5,0.2-1.2,0.2-1.8,0.2h-1.6c-3,0-3.6-1.3-3.6-4.4v-3.4h-3.7
			c0,3.1-0.9,6.6-5.1,8.7c-0.4-0.6-1.5-1.8-2.2-2.4v14.7c0,0.3,0,0.5,0,0.7c2.2-0.5,4.2-1.3,6-2.3c-1.7-1.8-3-3.9-4.1-6.2l1.6-0.5
			h-2.3v-3.6h13l0.7-0.2L1492.3,65.2z M1468.4,63.3c0,1.3,0,2.8-0.1,4.4c1-0.3,2.1-0.7,3.3-1.2v-3.5l-1.3,1c-0.4-0.6-1.2-1.5-2-2.4
			V63.3z M1468.4,55.1v4l0.9-0.6c0.8,0.7,1.6,1.6,2.3,2.4v-5.7H1468.4z M1480.5,68c0.8,1.7,2,3.2,3.5,4.5c1.4-1.2,2.6-2.8,3.5-4.5
			H1480.5z"/>
		<path class="st2" d="M1504.6,51.7c-0.7,2-1.5,4.2-2.4,6.2v22.6h-3.6v-16c-0.6,1-1.3,1.9-2,2.6c-0.3-0.9-1.2-3.1-1.8-4.1
			c2.6-3,4.9-7.6,6.3-12.4L1504.6,51.7z M1518.9,75.7c2.5,0.8,5.2,1.9,6.8,2.7l-3.3,2.1c-1.5-0.9-4.3-2.2-6.9-3.1l2-1.8h-6.3
			l2.1,1.5c-2.1,1.5-5.3,2.6-8.1,3.3c-0.4-0.8-1.3-1.9-2-2.6c2.4-0.4,5-1.3,6.8-2.2h-4.5V63.8h18.1v11.9H1518.9z M1518.5,54.8v1.4
			h5.5v6.6h-18.9v-6.6h5.2v-1.4h-5.8V52h20.4v2.8H1518.5z M1508.4,60.5h2v-2.2h-2V60.5z M1509.1,67.1h10.9V66h-10.9V67.1z
			 M1509.1,70.3h10.9v-1.2h-10.9V70.3z M1509.1,73.6h10.9v-1.2h-10.9V73.6z M1515.4,54.8h-2.1v1.4h2.1V54.8z M1513.3,60.5h2.1v-2.2
			h-2.1V60.5z M1518.5,58.3v2.2h2v-2.2H1518.5z"/>
		<path class="st2" d="M1416.6,119.1v3.8h-29.1v-3.8h11.5V95h4.1v9.2h11.3v3.9h-11.3v11.1H1416.6z"/>
		<path class="st2" d="M1423.3,109.4c-1-1-3-2.4-4.4-3.4l1.8-2.4c1.5,0.9,3.5,2.2,4.6,3.1L1423.3,109.4z M1419.3,122.3
			c1.1-2.4,2.7-6.3,3.8-9.9l2.7,1.9c-1,3.3-2.3,6.9-3.5,9.9L1419.3,122.3z M1421.9,95.1c1.4,1.1,3.2,2.8,4.1,4l-2.2,2.3
			c-0.8-1.2-2.6-3-4-4.3L1421.9,95.1z M1426.5,95.5h7.9v10.6h-4.4c-0.1,1.4-0.1,2.9-0.2,4.2h4.6c0,0,0,0.9,0,1.3
			c-0.4,7.3-0.8,10.2-1.7,11.1c-0.6,0.7-1.2,1-2.1,1.1c-0.7,0.1-2,0.1-3.2,0.1c-0.1-0.9-0.4-2.1-0.9-2.9c1.1,0.1,2,0.1,2.4,0.1
			c0.4,0,0.7-0.1,1-0.4c0.5-0.5,0.8-2.5,1.1-7.3h-4.6c0.3-2.8,0.5-7.1,0.6-10.5h4.4v-4.2h-4.9V95.5z M1449.2,114.8
			c-1.1,0.8-2.3,1.6-3.3,2.3c1.1,1.5,2.3,2.8,3.7,3.7c-0.7,0.7-1.7,2-2.2,2.8c-3.1-2.3-5.5-6.8-6.9-11.5h-1.6v7.7l3.8-1.3
			c0,0.9,0.3,2.2,0.4,2.9c-5.7,2-6.6,2.6-7.2,3.1v0l0,0c-0.2-0.8-0.7-2.6-1.2-3.5c0.5-0.3,1.2-0.8,1.2-2v-6.9h-1.1V109h1.7V95.9h12
			v3h-8.7v1.5h7.7v2.7h-7.7v1.6h7.7v2.7h-7.7v1.6h9.2v3.1h-5.6c0.4,0.9,0.7,1.8,1.2,2.6c0.9-0.7,1.7-1.5,2.3-2.1L1449.2,114.8z"/>
		<path class="st2" d="M1480.6,119.9v3.6h-29v-3.6h12.4v-4.5h-9.4v-3.5h9.4v-3.1h4v3.1h9.7v3.5h-9.7v4.5H1480.6z M1476.6,109.7
			c-0.4-0.6-1-1.3-1.7-2.1c-16.3,0.7-18.4,0.7-19.9,1.2c-0.2-0.8-0.8-2.6-1.2-3.6c0.7-0.2,1.4-0.6,2.2-1.4c0.6-0.6,2.2-2.1,3.6-4.1
			h-7.1v-3.5h27v3.5h-15c-1.4,1.9-3,3.6-4.5,5.1l11.7-0.3c-1-0.9-2-1.9-3-2.6l3-2c2.8,2.2,6.5,5.3,8.3,7.6L1476.6,109.7z"/>
		<path class="st2" d="M1489.9,122.1c-2.2-0.3-4.6-1.2-6.3-2.8l2.1-3.2c1.8,1.4,3.5,2.2,5.3,2.2c2.2,0,3.3-1,3.3-2.8
			c0-4.3-9.7-3.9-9.7-10.6c0-3.5,2.1-5.9,5.4-6.5v-3.7h3.2v3.6c2.3,0.3,3.9,1.4,5.3,2.9l-2.4,2.7c-1.3-1.2-2.5-1.9-4.1-1.9
			c-1.9,0-2.9,0.9-2.9,2.7c0,4,9.7,3.4,9.7,10.5c0,3.5-2,6.1-5.6,6.8v3.7h-3.2V122.1z"/>
		<path class="st2" d="M1502.5,110.2c0-8.8,4.4-12.6,9.2-12.6c2.9,0,5,1.2,6.4,2.7l-2.5,2.8c-0.8-1-2.3-1.7-3.6-1.7
			c-2.7,0-5,2-5.2,8c1.3-1.6,3.3-2.6,4.9-2.6c4,0,6.8,2.4,6.8,7.4c0,4.9-3.4,7.9-7.4,7.9C1506.5,122.1,1502.5,118.5,1502.5,110.2z
			 M1506.9,112.6c0.4,4.3,2,6,4,6c1.8,0,3.2-1.5,3.2-4.4c0-2.8-1.3-4.1-3.4-4.1C1509.5,110.1,1508,110.8,1506.9,112.6z"/>
		<path class="st2" d="M1520.6,118.9l2.2-3c1.3,1.3,3,2.4,5.2,2.4c2.5,0,4.2-1.6,4.2-4.4c0-2.8-1.6-4.3-4-4.3
			c-1.4,0-2.2,0.4-3.6,1.2l-2.1-1.4l0.6-11.5h12.7v4h-8.6l-0.4,5c1-0.4,1.8-0.7,2.8-0.7c4,0,7.3,2.4,7.3,7.5c0,5.3-3.9,8.3-8.3,8.3
			C1524.8,122.1,1522.3,120.7,1520.6,118.9z"/>
	</g>
</g>
<g>
	<g class="st4">
		<path class="st2" d="M71.4,751.2c0,2.3-0.5,3.4-2,4c-1.5,0.7-3.8,0.7-7.1,0.7c-0.2-1.1-1-2.9-1.6-4c2.2,0.1,4.9,0.1,5.6,0.1
			c0.8,0,1-0.3,1-0.9v-4.6H53.7c-0.8,3.6-2.4,7.1-5.4,9.6c-0.6-0.8-2.1-2.2-2.9-2.8c4.8-4.1,5.3-10.2,5.3-15.1v-10.5h20.8V751.2z
			 M67.4,742.9V739H54.6c0,1.2-0.1,2.6-0.2,3.9H67.4z M54.6,731.4v3.9h12.8v-3.9H54.6z"/>
		<path class="st2" d="M88.9,748.2c-0.6-1-1.7-2.3-2.7-3.6v11.5h-3.9v-11c-1,1.1-2.1,2.1-3.1,2.9c-0.3-1.1-1.2-3-1.8-3.8
			c3-2,6-5.5,7.8-9.1h-6.9v-3.4h5.5c-0.6-1.2-1.7-2.7-2.5-3.9l3-1.7c1,1.3,2.2,3,2.9,4.2l-2.2,1.4h2.3l0.5-0.1l2.1,1.5
			c-1,2.4-2.2,4.8-3.7,7.1v0.5l0.5,0.5c0.8-0.9,1.8-2.2,2.4-3.1l2.5,2.1c-1.2,0.9-2.2,2-3.1,2.7c1.1,1,2.1,2.1,2.6,2.5L88.9,748.2z
			 M106.3,728.7c0,0,0,1.4,0,1.9c-0.3,16.1-0.6,21.6-1.8,23.4c-0.8,1.2-1.6,1.6-2.8,1.8c-1.2,0.2-2.9,0.2-4.6,0.1
			c-0.1-1-0.5-2.6-1.1-3.6c1.7,0.2,3.2,0.2,4,0.2c0.5,0,0.9-0.1,1.2-0.6c0.9-1.1,1.2-6.3,1.4-19.4h-4.3c-0.4,10.9-1.9,18.7-7.7,23.6
			c-0.4-0.7-2-2.3-2.9-3c5.3-4,6.5-11.1,6.7-20.7h-4v-3.7H106.3z"/>
		<path class="st2" d="M116.4,753.7c-2.2-0.3-4.6-1.2-6.3-2.8l2.1-3.2c1.8,1.4,3.5,2.2,5.3,2.2c2.2,0,3.3-1,3.3-2.8
			c0-4.3-9.7-3.9-9.7-10.6c0-3.5,2.1-5.9,5.4-6.5v-3.7h3.2v3.6c2.3,0.3,3.9,1.4,5.3,2.9l-2.4,2.7c-1.3-1.2-2.5-1.9-4.1-1.9
			c-1.9,0-2.9,0.9-2.9,2.7c0,4,9.7,3.4,9.7,10.5c0,3.5-2,6.1-5.6,6.8v3.7h-3.2V753.7z"/>
		<path class="st2" d="M128.2,750.5l2.2-3c1.3,1.3,3,2.4,5.2,2.4c2.5,0,4.2-1.6,4.2-4.4c0-2.8-1.6-4.3-4-4.3c-1.4,0-2.2,0.4-3.6,1.2
			l-2.1-1.4l0.6-11.5h12.7v4h-8.6l-0.4,5c1-0.4,1.8-0.7,2.8-0.7c4,0,7.3,2.4,7.3,7.5c0,5.3-3.9,8.3-8.3,8.3
			C132.5,753.8,130,752.3,128.2,750.5z"/>
		<path class="st2" d="M147.7,741.4c0-8.2,3.2-12.2,8-12.2c4.8,0,8,4,8,12.2s-3.2,12.4-8,12.4C150.9,753.8,147.7,749.5,147.7,741.4z
			 M159.3,741.4c0-6.6-1.5-8.5-3.6-8.5s-3.6,1.9-3.6,8.5c0,6.7,1.5,8.7,3.6,8.7S159.3,748,159.3,741.4z"/>
	</g>
</g>
<g id="Candle_00000173842218065413479040000016200555766060675226_">
	<g>
		<rect x="237.5" y="1435.5" class="st0" width="20" height="39.6"/>
		<rect x="246.7" y="1407.8" class="st0" width="1.6" height="86"/>
	</g>
	<g>
		<rect x="212.4" y="1547.7" class="st0" width="20" height="104.1"/>
		<rect x="221.5" y="1485.1" class="st0" width="2" height="215.9"/>
	</g>
	<g>
		<rect x="337.2" y="1384.8" class="st0" width="20" height="45.3"/>
		<rect x="346.3" y="1365.5" class="st0" width="2" height="84.8"/>
	</g>
	<g>
		<rect x="387.3" y="1460.3" class="st0" width="20" height="82.5"/>
		<rect x="396.3" y="1453.5" class="st0" width="2" height="144.5"/>
	</g>
	<g>
		<rect x="585.8" y="1345.9" class="st0" width="20" height="82.5"/>
		<rect x="594.8" y="1339.1" class="st0" width="2" height="144.5"/>
	</g>
	<g>
		<rect x="410.9" y="1467" class="st0" width="20" height="29.7"/>
		<rect x="419.9" y="1440.7" class="st0" width="2" height="72"/>
	</g>
	<g>
		<rect x="460.6" y="1354.7" class="st0" width="20" height="26.2"/>
		<rect x="469.6" y="1337.9" class="st0" width="2" height="85.6"/>
	</g>
	<g>
		<rect x="685.4" y="1532.9" class="st0" width="20" height="26.2"/>
		<rect x="694.4" y="1507.5" class="st0" width="2" height="123.8"/>
	</g>
	<g>
		<rect x="759.6" y="1401.1" class="st0" width="20" height="36"/>
		<rect x="768.6" y="1375" class="st0" width="2" height="78.5"/>
	</g>
	<g>
		<rect x="884.6" y="1430.7" class="st0" width="20" height="45.6"/>
		<rect x="893.6" y="1408.8" class="st0" width="2" height="100.2"/>
	</g>
	<g>
		<rect x="957.5" y="1225.8" class="st0" width="20" height="39"/>
		<rect x="966.6" y="1163.9" class="st0" width="2" height="129.7"/>
	</g>
	<g>
		<rect x="982.9" y="1219.9" class="st0" width="20" height="51.4"/>
		<rect x="992" y="1193.7" class="st0" width="2" height="114"/>
	</g>
	<g>
		<rect x="1108" y="1243" class="st0" width="20" height="57.9"/>
		<rect x="1117" y="1223.7" class="st0" width="2" height="149.6"/>
	</g>
	<g>
		<rect x="1157.5" y="1183.2" class="st0" width="20" height="121.4"/>
		<rect x="1166.6" y="1175.5" class="st0" width="2" height="138.1"/>
	</g>
	<g>
		<rect x="1232.3" y="1034.4" class="st1" width="20" height="150.3"/>
		<rect x="1241.3" y="1026.7" class="st1" width="2" height="167"/>
	</g>
	<g>
		<rect x="1334.7" y="930.3" class="st1" width="20" height="136"/>
		<rect x="1343.7" y="902.8" class="st1" width="2" height="193.8"/>
	</g>
	<g>
		<rect x="1007.9" y="1265.4" class="st0" width="20" height="20.5"/>
		<rect x="1017" y="1248.4" class="st0" width="2" height="62.6"/>
	</g>
	<g>
		<rect x="909.3" y="1266.9" class="st0" width="20" height="177.1"/>
		<rect x="918.3" y="1204.2" class="st0" width="2" height="304.8"/>
	</g>
	<g>
		<rect x="808.4" y="1375.8" class="st0" width="20" height="25.2"/>
		<rect x="817.5" y="1345.9" class="st0" width="2" height="66.7"/>
	</g>
	<g>
		<rect x="734.4" y="1460.5" class="st0" width="20" height="72.4"/>
		<rect x="743.4" y="1410.3" class="st0" width="2" height="145.4"/>
	</g>
	<g>
		<rect x="510.5" y="1238.8" class="st0" width="20" height="92.5"/>
		<rect x="519.6" y="1288.3" class="st0" width="2" height="122"/>
	</g>
	<g>
		<rect x="485.7" y="1344.4" class="st0" width="20" height="3.8"/>
		<rect x="494.7" y="1311.7" class="st0" width="2" height="88"/>
	</g>
	<g>
		<rect x="784.7" y="1410.3" class="st0" width="20" height="7.5"/>
		<rect x="793.7" y="1381.3" class="st0" width="2" height="65.5"/>
	</g>
	<g>
		<rect x="436.1" y="1426.9" class="st0" width="20" height="47.5"/>
		<rect x="445.1" y="1407" class="st0" width="2" height="80.6"/>
	</g>
	<g>
		<rect x="311.3" y="1323.2" class="st1" width="20" height="88.1"/>
		<rect x="320.5" y="1310" class="st1" width="1.6" height="127.7"/>
	</g>
	<g>
		<rect x="535.9" y="1245" class="st1" width="20" height="88.1"/>
		<rect x="545" y="1236.9" class="st1" width="2" height="102.7"/>
	</g>
	<g>
		<rect x="560.9" y="1318.1" class="st1" width="20" height="64.7"/>
		<rect x="569.9" y="1289.1" class="st1" width="2" height="100.1"/>
	</g>
	<g>
		<rect x="609.6" y="1389.2" class="st1" width="20" height="54.1"/>
		<rect x="618.7" y="1366.7" class="st1" width="2" height="92.6"/>
	</g>
	<g>
		<rect x="709.3" y="1500.3" class="st1" width="20" height="67"/>
		<rect x="718.3" y="1486.4" class="st1" width="2" height="96.8"/>
	</g>
	<g>
		<rect x="661.2" y="1443.2" class="st1" width="20" height="114.1"/>
		<rect x="670.3" y="1432.2" class="st1" width="2" height="191"/>
	</g>
	<g>
		<rect x="832.7" y="1392.8" class="st1" width="20" height="36.7"/>
		<rect x="841.7" y="1381.3" class="st1" width="2" height="95.6"/>
	</g>
	<g>
		<rect x="933.6" y="1264.8" class="st1" width="20" height="18"/>
		<rect x="942.6" y="1206.3" class="st1" width="2" height="104.8"/>
	</g>
	<g>
		<rect x="1206.5" y="1218.7" class="st1" width="20" height="18"/>
		<rect x="1215.5" y="1184.7" class="st1" width="2" height="107.7"/>
	</g>
	<g>
		<rect x="1256.1" y="1008.8" class="st0" width="20" height="18"/>
		<rect x="1265.1" y="974.8" class="st0" width="2" height="107.7"/>
	</g>
	<g>
		<rect x="1307.8" y="964.9" class="st1" width="20" height="34.8"/>
		<rect x="1316.8" y="947.7" class="st1" width="2" height="65"/>
	</g>
	<g>
		<rect x="1280.4" y="968.4" class="st0" width="20" height="10.4"/>
		<rect x="1289.4" y="954" class="st0" width="2" height="54.8"/>
	</g>
	<g>
		<rect x="1032.2" y="1179.6" class="st1" width="20" height="18"/>
		<rect x="1041.2" y="1166.5" class="st1" width="2" height="81.9"/>
	</g>
	<g>
		<rect x="1058.6" y="1213.2" class="st1" width="20" height="78.3"/>
		<rect x="1067.7" y="1204.2" class="st1" width="2" height="103.5"/>
	</g>
	<g>
		<rect x="1181.5" y="1188.6" class="st1" width="20" height="62.9"/>
		<rect x="1190.6" y="1144.3" class="st1" width="2" height="90.4"/>
	</g>
	<g>
		<rect x="1083.5" y="1272.5" class="st1" width="20" height="77"/>
		<rect x="1092.6" y="1263.5" class="st1" width="2" height="147.6"/>
	</g>
	<g>
		<rect x="1132.6" y="1221.1" class="st1" width="20" height="77"/>
		<rect x="1141.7" y="1154.2" class="st1" width="2" height="137.1"/>
	</g>
	<g>
		<rect x="858.9" y="1429.3" class="st1" width="20" height="45.9"/>
		<rect x="867.9" y="1394.5" class="st1" width="2" height="114.5"/>
	</g>
	<g>
		<rect x="635" y="1439.6" class="st1" width="20" height="65.6"/>
		<rect x="644" y="1231.9" class="st1" width="2" height="289.2"/>
	</g>
	<g>
		<rect x="361.4" y="1424.5" class="st1" width="20" height="117.6"/>
		<rect x="370.4" y="1373.4" class="st1" width="2" height="179.5"/>
	</g>
	<g>
		<rect x="262.1" y="1443.7" class="st1" width="20" height="13.1"/>
		<rect x="271.3" y="1397" class="st1" width="1.6" height="126.3"/>
	</g>
	<g>
		<rect x="286.9" y="1384.3" class="st1" width="20" height="6.5"/>
		<rect x="296.2" y="1326.3" class="st1" width="1.6" height="80.8"/>
	</g>
</g>
<circle class="st2" cx="1344.7" cy="952.9" r="11.6"/>
<circle class="st2" cx="222.4" cy="1599.8" r="11.6"/>
<circle class="st3" cx="1462.3" cy="952.9" r="91.6"/>
<circle class="st3" cx="104.8" cy="1601.3" r="91.6"/>
<g>
	<text transform="matrix(1 0 0 1 1398.306 938.9905)" class="st4"><tspan x="0" y="0" class="st2" style="font-family:'SourceHanSansTW-Bold-B5pc-H'; font-size:32px;">月底股價</tspan><tspan x="-12.3" y="44" class="st2" style="font-family:'SourceHanSansTW-Bold-B5pc-H'; font-size:32px;">上漲至$65</tspan></text>
</g>
<g>
	
		<text transform="matrix(1 0 0 1 44.5701 1614.6194)" class="st2" style="font-family:'SourceHanSansTW-Bold-B5pc-H'; font-size:32px;">月初$50</text>
</g>
</svg>
